<?xml version="1.0" encoding="UTF-8" standalone="no"?>
<!-- Created with Inkscape (http://www.inkscape.org/) -->

<svg
   width="186.14751mm"
   height="57.718628mm"
   viewBox="0 0 186.14751 57.718628"
   version="1.1"
   id="svg1"
   xml:space="preserve"
   xmlns="http://www.w3.org/2000/svg"
   xmlns:svg="http://www.w3.org/2000/svg"><defs
     id="defs1" /><g
     id="layer1"
     transform="translate(-11.223524,-119.83981)"><rect
       style="fill:#ffffff;stroke-width:0.264583"
       id="rect1"
       width="186.14751"
       height="57.718628"
       x="11.223524"
       y="119.83981" /><g
       id="g2"
       transform="matrix(1.0158034,0,0,1.0158034,-1.2902086,-3.3192748)"><path
         style="fill:#cc400e;stroke-width:1.34729"
         d="m 16.445451,166.10401 c 0.09711,-0.24507 0.610966,-1.56847 1.141906,-2.94087 0.84331,-2.17987 5.677338,-14.47318 6.658204,-16.93235 0.1955,-0.49014 1.037063,-2.60773 1.870139,-4.70574 l 1.514684,-3.81458 -3.058199,-2.66582 c -1.682009,-1.46619 -3.536751,-3.16611 -4.121648,-3.77759 l -1.06345,-1.1118 19.599906,0.10635 19.599906,0.10636 1.585893,0.89117 c 3.279267,1.84276 3.826379,5.08282 1.745596,10.33765 -1.155487,2.91809 -2.446042,4.68365 -4.323881,5.9154 -1.650803,1.08282 -1.668811,1.11466 -0.981869,1.73633 1.860254,1.68351 1.869554,6.31319 0.02088,10.39263 -1.942372,4.28616 -4.066164,5.87937 -8.69587,6.52329 -4.143127,0.57626 -31.723499,0.52344 -31.492192,-0.0604 z m 34.299101,-1.33009 c 2.873404,-1.36122 4.083102,-2.80448 5.469554,-6.52562 0.938283,-2.5183 1.040856,-6.278 0.209659,-7.68487 -0.307459,-0.52039 -1.058484,-1.30094 -1.668945,-1.73453 -1.157361,-0.82207 -1.112658,-0.8881 0.900186,-1.32974 2.984219,-0.65476 6.659067,-6.96637 6.670973,-11.4575 0.0031,-1.1465 -0.242158,-1.72597 -1.154671,-2.72883 -0.63719,-0.70027 -1.703803,-1.44886 -2.37025,-1.66351 -0.814491,-0.26234 -7.066469,-0.38504 -19.071162,-0.3743 l -17.85944,0.016 1.782351,1.61487 c 0.980294,0.88819 2.527093,2.25975 3.437331,3.04789 l 1.654979,1.43301 -1.007518,2.55056 c -0.554133,1.4028 -2.39678,6.0796 -4.094771,10.39289 -3.572783,9.07571 -3.327572,8.45675 -4.763001,12.02273 -0.609828,1.51498 -1.10878,2.85128 -1.10878,2.96956 0,0.11829 7.178422,0.1572 15.952048,0.0865 12.843489,-0.10345 16.16044,-0.22722 17.021457,-0.63509 z m -19.619664,-7.09261 c 0.116864,-0.36821 0.754101,-2.01244 1.416079,-3.65382 l 1.203596,-2.98435 6.458379,-0.0971 c 5.527523,-0.0831 6.488537,-0.0186 6.667605,0.44804 0.29296,0.76344 -1.958461,6.19239 -2.741904,6.61166 -0.354675,0.18982 -3.473422,0.34513 -6.93055,0.34513 -5.987428,0 -6.275606,-0.0318 -6.073205,-0.66947 z m 13.531004,-2.27141 c 0.452803,-1.0293 0.936021,-2.23239 1.073816,-2.67352 l 0.250539,-0.80206 h -5.81848 -5.818479 l -0.786,2.0497 c -0.432301,1.12734 -0.889778,2.33043 -1.016617,2.67353 -0.213639,0.57791 0.193522,0.62382 5.530662,0.62382 h 5.76128 z m -8.1502,-11.40706 c 0.135429,-0.44113 0.526061,-1.54876 0.868074,-2.46139 l 0.62184,-1.65934 -0.925068,-0.92506 -0.925066,-0.92508 h 6.091258 c 7.475845,0 9.398998,0.219 9.398998,1.07033 0,0.83192 -1.419472,4.30254 -2.077207,5.0788 -0.46707,0.55121 -1.271654,0.62382 -6.913822,0.62382 h -6.385238 z m 13.005392,-1.54807 c 0.385981,-0.90045 0.798699,-2.02333 0.917152,-2.49528 l 0.215369,-0.8581 h -5.920404 c -5.068041,0 -5.920405,0.0783 -5.920405,0.54361 0,0.29897 -0.308682,1.42186 -0.685961,2.49529 l -0.68596,1.95169 h 5.689213 5.689212 z"
         id="path5" /><path
         style="fill:#02329f;stroke-width:1.34729"
         d="m 17.771047,165.32249 c 0,-0.11829 0.498952,-1.45457 1.10878,-2.96955 1.435429,-3.56599 1.190218,-2.94703 4.763001,-12.02273 1.697991,-4.3133 3.540638,-8.99011 4.094771,-10.3929 l 1.007518,-2.55055 -1.654979,-1.43301 c -0.910238,-0.78815 -2.457037,-2.1597 -3.437331,-3.04789 l -1.782351,-1.61487 17.85944,-0.016 c 12.004693,-0.0107 18.256671,0.11196 19.071162,0.3743 0.666447,0.21465 1.73306,0.96324 2.37025,1.6635 0.912513,1.00287 1.15771,1.58234 1.154671,2.72883 -0.01186,4.49114 -3.686754,10.80275 -6.670973,11.45751 -2.012844,0.44164 -2.057547,0.50767 -0.900186,1.32973 1.709001,1.21388 2.227962,2.38286 2.227962,5.01851 0,3.64148 -1.971162,8.24707 -4.168815,9.74039 -2.514587,1.70868 -2.274277,1.68576 -19.090872,1.82122 -8.773626,0.0707 -15.952048,0.0318 -15.952048,-0.0865 z m 26.357596,-7.31683 c 0.783443,-0.41928 3.034864,-5.84822 2.741904,-6.61166 -0.179068,-0.46664 -1.140082,-0.53123 -6.667605,-0.44805 l -6.458379,0.0971 -1.203596,2.98434 c -0.661978,1.6414 -1.299214,3.28561 -1.416079,3.65383 -0.202401,0.6377 0.08578,0.66947 6.073205,0.66947 3.457128,0 6.575875,-0.1553 6.93055,-0.34513 z m 5.429878,-13.82456 c 0.657735,-0.77626 2.077207,-4.24688 2.077207,-5.0788 0,-0.85133 -1.923153,-1.07033 -9.398998,-1.07033 h -6.091258 l 0.925066,0.92508 0.925068,0.92506 -0.62184,1.65934 c -0.342013,0.91263 -0.732645,2.02026 -0.868074,2.46139 l -0.246231,0.80208 h 6.385238 c 5.642168,0 6.446752,-0.0726 6.913822,-0.62382 z M 77.7889,161.28374 c -1.267795,-1.02695 -1.55672,-2.03008 -1.55672,-5.40482 v -3.23166 h 1.247645 1.247646 v 2.97474 c 0,2.53683 0.106547,3.07118 0.723736,3.62972 0.572996,0.51857 0.92566,0.58415 1.693235,0.3149 0.949255,-0.33298 0.971638,-0.40876 1.071991,-3.62973 l 0.102497,-3.28963 h 1.234269 1.23427 v 3.59213 c 0,3.49494 -0.02819,3.6203 -1.041992,4.63411 -0.915954,0.91595 -1.293229,1.04102 -3.119114,1.03406 -1.427624,-0.005 -2.314877,-0.20051 -2.837462,-0.62382 z m 11.276211,-3.98085 v -4.65563 h 1.417473 c 1.330375,0 1.522035,0.14148 3.119116,2.30241 0.935902,1.26633 1.82195,2.30899 1.968994,2.31705 0.147044,0.009 0.267352,-1.07603 0.267352,-2.40905 v -2.42373 l 1.247642,0.14566 1.247657,0.14565 v 4.59512 4.59513 h -1.233047 c -1.111704,0 -1.416207,-0.24556 -3.094392,-2.49531 -1.023744,-1.3724 -1.952684,-2.49557 -2.064311,-2.49592 -0.111622,-3.5e-4 -0.202956,1.08242 -0.202956,2.40616 v 2.40681 l -1.336765,0.11062 -1.336763,0.11061 z m 13.545879,-0.12813 v -4.74078 l 1.24764,0.14565 1.24764,0.14566 v 4.59512 4.59512 h -1.24764 -1.24764 z m 8.82998,-0.0716 -1.96001,-4.81233 h 1.39555 c 1.52202,0 1.39726,-0.17196 2.96332,4.08443 l 0.65027,1.76738 0.44532,-1.05444 c 0.24492,-0.57995 0.76781,-1.8565 1.16197,-2.8368 0.66115,-1.6443 0.81913,-1.79114 2.03966,-1.89581 1.15096,-0.0987 1.29199,-0.0292 1.0846,0.5347 -0.13108,0.3565 -0.98265,2.53301 -1.89227,4.8367 -1.62927,4.12619 -1.67081,4.18853 -2.79113,4.18853 -1.12573,0 -1.15709,-0.0488 -3.09728,-4.81236 z m 12.55823,0.17824 v -4.63412 h 3.92118 3.92117 v 0.89119 c 0,0.86572 -0.0712,0.89118 -2.49529,0.89118 -2.424,0 -2.4953,0.0255 -2.4953,0.89116 0,0.85157 0.0951,0.89118 2.13883,0.89118 h 2.13882 v 1.09463 1.09462 l -2.22794,-0.091 c -1.22536,-0.0499 -2.18784,0.0189 -2.13883,0.15303 0.049,0.13419 0.0892,0.48457 0.0892,0.77865 0,0.42437 0.5149,0.53472 2.49529,0.53472 h 2.4953 v 1.06941 1.06941 h -3.92118 -3.92118 z m 12.1194,-0.0891 -6.2e-4,-4.72322 3.35116,0.17823 c 4.00188,0.21283 4.84886,0.72346 4.84886,2.92321 0,1.00546 -0.24604,1.63287 -0.89471,2.28155 l -0.89472,0.89472 1.09008,1.58437 1.09008,1.58437 -1.53212,-0.003 c -1.41252,-0.002 -1.59557,-0.11384 -2.34482,-1.42587 -1.12768,-1.97469 -2.21731,-1.97334 -2.21731,0.003 0,1.39194 -0.0297,1.42589 -1.24764,1.42589 h -1.24764 z m 5.3344,-0.95554 c 0.49227,-0.9198 -0.38889,-1.8071 -1.79457,-1.8071 -0.95543,0 -1.04395,0.10582 -1.04395,1.24764 0,1.18582 0.0611,1.24764 1.23511,1.24764 0.85545,0 1.34831,-0.21153 1.60341,-0.68818 z m 9.01412,4.97542 c -1.68336,-0.76409 -1.81468,-1.05375 -0.86671,-1.91165 0.59934,-0.54241 0.7592,-0.54311 2.1183,-0.01 1.56009,0.61283 2.58047,0.47514 2.58047,-0.34823 0,-0.28867 -0.68431,-0.69116 -1.62092,-0.9534 -2.18428,-0.61156 -3.36967,-1.5943 -3.36967,-2.79362 0,-2.25637 2.50814,-3.67874 5.18291,-2.93924 2.3251,0.64281 2.61269,0.94818 1.7281,1.83493 -0.65777,0.65935 -0.92066,0.70869 -2.0763,0.38959 -1.40512,-0.38796 -2.44904,-0.20234 -2.24832,0.39981 0.0667,0.2 1.0704,0.70157 2.23053,1.11461 3.33654,1.18788 4.04868,3.66312 1.50086,5.21658 -1.4473,0.88247 -3.21497,0.88243 -5.15925,-1.3e-4 z m 10.84264,0.4657 c -0.13068,-0.13068 -0.23765,-2.21606 -0.23765,-4.63412 v -4.39645 h 1.42588 1.42589 v 4.6341 4.63412 h -1.18824 c -0.65353,0 -1.29518,-0.10699 -1.42588,-0.23765 z m 9.66687,-3.41616 -0.10162,-3.65383 -1.42588,-0.17823 c -1.17665,-0.14709 -1.43084,-0.31844 -1.45418,-0.9803 -0.0277,-0.78815 0.0447,-0.80205 4.18851,-0.80205 h 4.21683 v 0.89117 c 0,0.80206 -0.14258,0.89118 -1.42587,0.89118 h -1.42589 v 3.74293 3.74294 h -1.23518 -1.23517 z m 13.26606,1.87774 c 0,-1.43304 -0.26393,-2.20759 -1.36655,-4.01028 -2.38658,-3.90198 -2.34635,-3.67752 -0.63486,-3.54114 1.29142,0.10292 1.58753,0.29108 2.19282,1.39348 0.38486,0.70096 0.86017,1.27396 1.05623,1.27331 0.19607,-6.3e-4 0.71002,-0.63263 1.14214,-1.40444 0.73694,-1.31628 0.87299,-1.39497 2.19381,-1.269 l 1.40815,0.13433 -1.74818,2.72847 c -1.52475,2.37974 -1.74818,2.96763 -1.74821,4.5999 l -6e-5,1.87149 h -1.24765 -1.24764 z m -93.363696,-13.1237 c -1.83562,-0.91574 -2.70506,-2.31377 -2.70506,-4.34962 0,-3.06768 2.447067,-5.21559 5.502134,-4.82948 1.958725,0.24755 3.042315,0.93454 3.807287,2.41384 1.32442,2.56113 0.37216,5.58446 -2.114535,6.71346 -1.826531,0.82928 -2.906451,0.84174 -4.489826,0.0519 z m 3.889642,-2.56728 c 1.518855,-1.51885 0.506902,-4.27764 -1.569082,-4.27764 -1.462861,0 -2.470916,1.04255 -2.470916,2.55544 0,2.10222 2.56609,3.19611 4.039998,1.7222 z m 16.038394,2.73526 c -0.68772,-0.23002 -1.56998,-0.61014 -1.96058,-0.84473 -0.70752,-0.42492 -0.70743,-0.4293 0.0216,-1.16749 0.6983,-0.70706 0.80302,-0.71584 2.28737,-0.19214 1.59475,0.56266 3.00341,0.42629 2.77186,-0.26832 -0.1631,-0.48931 -0.75074,-0.78623 -2.69762,-1.36306 -2.48429,-0.73604 -3.25509,-2.55218 -1.84437,-4.34564 0.8787,-1.11708 2.92604,-1.52588 4.93398,-0.9852 1.80566,0.48622 2.02409,0.82464 1.27257,1.97161 -0.419,0.63947 -0.72006,0.80336 -1.01941,0.55491 -0.23364,-0.19389 -0.9753,-0.39721 -1.64815,-0.4518 -1.84231,-0.1495 -1.56161,0.79352 0.43878,1.47407 2.06297,0.70185 3.15022,1.66236 3.15022,2.78298 0,1.32376 -0.65341,2.24988 -1.97782,2.80327 -1.41653,0.59186 -2.03739,0.5971 -3.72846,0.0315 z m 28.87687,-0.006 c -2.40975,-0.86672 -2.54038,-1.01032 -1.80537,-1.98474 0.64184,-0.85093 0.65653,-0.85266 2.15449,-0.2533 0.82952,0.33192 1.81218,0.50702 2.18367,0.38912 1.31587,-0.41765 0.68206,-1.17189 -1.54317,-1.83638 -2.75884,-0.82381 -3.53066,-1.84542 -2.77409,-3.67195 0.62136,-1.50007 2.40779,-2.29174 4.47273,-1.98208 2.14507,0.32168 2.8661,0.9236 2.32267,1.93899 -0.35909,0.67098 -0.60533,0.75562 -1.56013,0.53626 -1.79879,-0.41323 -2.55962,-0.35856 -2.55962,0.18394 0,0.28329 0.73703,0.75152 1.68333,1.06941 2.15682,0.72452 3.129,1.57095 3.129,2.72424 0,1.38134 -0.63569,2.30122 -1.97781,2.862 -1.45493,0.60789 -2.09199,0.61208 -3.7257,0.0245 z m -63.45172,-4.4776 v -4.66752 h 3.331218 c 2.774517,0 3.429811,0.10899 3.921174,0.6519 0.721199,0.79691 0.772132,2.67431 0.08795,3.24213 -0.422019,0.35025 -0.359785,0.55884 0.390613,1.30924 0.691973,0.69198 0.8396,1.10891 0.656776,1.85496 -0.432935,1.76665 -1.006612,2.02226 -4.835044,2.15429 l -3.552693,0.12247 z m 5.651395,1.99001 c 0.597079,-0.71944 -0.215411,-1.31048 -1.801516,-1.31048 -1.207247,0 -1.354588,0.097 -1.354588,0.89118 0,0.79737 0.145498,0.89119 1.382235,0.89119 0.760228,0 1.558469,-0.21236 1.773869,-0.47189 z m -0.304341,-3.80576 c 0,-0.59412 -0.237647,-0.71294 -1.425881,-0.71294 -1.188235,0 -1.425882,0.11882 -1.425882,0.71294 0,0.59412 0.237647,0.71294 1.425882,0.71294 1.188234,0 1.425881,-0.11882 1.425881,-0.71294 z m 20.318816,1.78235 v -4.63412 h 1.42587 1.42589 v 4.63412 4.63411 h -1.42589 -1.42587 z m 18.53645,0 v -4.63412 h 3.74294 3.74294 v 1.06942 1.06941 h -2.49529 c -2.25766,0 -2.4953,0.0679 -2.4953,0.71294 0,0.63982 0.23764,0.71294 2.31706,0.71294 h 2.31706 v 1.06941 1.06942 h -2.31706 c -2.07942,0 -2.31706,0.0732 -2.31706,0.71292 0,0.64957 0.23764,0.71296 2.67353,0.71296 h 2.67352 v 1.0694 1.06941 h -3.92116 -3.92118 z m 31.01292,1.06942 v -3.56471 h -1.42588 c -1.34667,0 -1.42589,-0.0594 -1.42589,-1.06941 v -1.06942 h 4.27765 4.27763 v 1.06942 c 0,1.0298 -0.0594,1.06941 -1.60411,1.06941 h -1.60411 v 3.56471 3.56469 h -1.24765 -1.24764 z m 7.50657,3.11911 c 0.0107,-0.24508 0.86995,-2.37053 1.90796,-4.72324 1.86684,-4.23127 1.90015,-4.27765 3.07398,-4.27765 1.25889,0 1.3383,0.13694 4.80578,8.28794 l 0.49284,1.15853 h -1.41651 c -1.18295,0 -1.47238,-0.14695 -1.75534,-0.89117 -0.29968,-0.7882 -0.54683,-0.89118 -2.13882,-0.89118 -1.592,0 -1.83915,0.10292 -2.13882,0.89118 -0.27296,0.71794 -0.58307,0.89117 -1.5953,0.89117 -0.77855,0 -1.2486,-0.16948 -1.23577,-0.44558 z m 5.85875,-3.74294 c -0.14123,-0.34311 -0.33752,-0.90454 -0.43617,-1.24765 -0.27034,-0.94018 -0.69433,-0.75316 -1.13077,0.49877 -0.21523,0.61744 -0.39132,1.17889 -0.39132,1.24767 0,0.0688 0.49838,0.12502 1.10753,0.12502 0.91499,0 1.0629,-0.10846 0.85073,-0.62382 z m 9.0923,0.62383 v -3.56471 h -1.42587 c -1.34667,0 -1.42589,-0.0594 -1.42589,-1.06941 v -1.06942 h 4.09942 4.0994 v 1.06942 c 0,1.01 -0.0792,1.06941 -1.42588,1.06941 h -1.42588 v 3.56471 3.56469 h -1.24764 -1.24766 z m 8.91176,-1.06942 v -4.63412 h 3.74295 3.74293 v 1.06942 1.06941 h -2.64015 c -2.46465,0 -2.62777,0.0474 -2.45372,0.71294 0.15978,0.61103 0.48623,0.71294 2.28369,0.71294 2.09262,0 2.09724,0.003 2.09724,1.06941 v 1.06942 h -2.13881 c -1.90118,0 -2.13883,0.0792 -2.13883,0.71292 0,0.64505 0.23765,0.71296 2.49529,0.71296 h 2.49529 v 1.0694 1.06941 h -3.74293 -3.74295 z"
         id="path4" /></g></g></svg>
