<?xml version="1.0" encoding="UTF-8" standalone="no"?>
<!-- Created with Inkscape (http://www.inkscape.org/) -->

<svg
   width="186.14751mm"
   height="57.718628mm"
   viewBox="0 0 186.14751 57.718628"
   version="1.1"
   id="svg1"
   xml:space="preserve"
   xmlns="http://www.w3.org/2000/svg"
   xmlns:svg="http://www.w3.org/2000/svg"><defs
     id="defs1" /><g
     id="layer1"
     transform="translate(-11.223524,-119.83981)"><rect
       style="fill:#ffffff;stroke-width:0.264583"
       id="rect1"
       width="186.14751"
       height="57.718628"
       x="11.223524"
       y="119.83981" /><g
       id="g10"
       transform="matrix(0.23998352,0,0,0.23998352,86.440113,143.58341)"><path
         style="fill:#fec201"
         d="m -117.15222,119.34628 c 1.57226,-0.0469 4.07257,-0.0467 5.55625,3.9e-4 1.48368,0.0471 0.19729,0.0854 -2.85865,0.0852 -3.05594,-2.2e-4 -4.26985,-0.0387 -2.6976,-0.0856 z m 257.83861,-0.51233 c 0.191,-0.0764 0.4192,-0.067 0.50712,0.0209 0.0879,0.0879 -0.0684,0.15045 -0.34727,0.13896 -0.30822,-0.0127 -0.37092,-0.0754 -0.15985,-0.15985 z M -286.56607,98.021088 V 80.996233 l 5.6224,-4.065989 C -221.38333,33.857558 -151.75429,8.4786783 -78.868161,3.2763472 -60.687268,1.9786651 -39.610285,1.9769485 -21.585871,3.2716818 7.9731256,5.3949697 37.269525,10.87063 65.66237,19.578866 c 2.438514,0.747905 4.391766,1.401722 4.340561,1.452927 -0.05121,0.0512 -1.629634,-0.274392 -3.507619,-0.723548 C 48.541158,16.014163 27.124416,12.657994 8.4443362,11.211208 -3.2429148,10.306022 -7.6768135,10.152465 -22.115038,10.152861 c -17.834177,4.88e-4 -27.263556,0.493369 -43.127082,2.254286 -54.71397,6.073475 -107.17812,23.814932 -154.61809,52.286178 -21.9118,13.150437 -42.75815,28.713833 -61.84109,46.169095 -2.5155,2.30094 -4.63914,4.18352 -4.7192,4.18352 -0.0801,0 -0.14557,-7.66118 -0.14557,-17.024852 z m 447.14582,8.193712 c 0,-0.0549 0.20836,-0.2633 0.46302,-0.46302 0.41964,-0.32911 0.429,-0.31975 0.0999,0.0999 -0.34564,0.44073 -0.56291,0.58089 -0.56291,0.36313 z m -393.19085,-9.888128 -0.64143,-0.727604 0.7276,0.641433 c 0.68006,0.599516 0.84894,0.813775 0.64144,0.813775 -0.0474,0 -0.37482,-0.327422 -0.72761,-0.727604 z m 74.96325,-1.05542 c 0.83675,-0.05251 2.20597,-0.05251 3.04271,0 0.83675,0.05251 0.15214,0.09547 -1.52135,0.09547 -1.67349,0 -2.3581,-0.04296 -1.52136,-0.09547 z m -76.68815,-0.664372 -0.50403,-0.595312 0.59531,0.504028 c 0.55945,0.473662 0.71576,0.686597 0.50403,0.686597 -0.0502,0 -0.3181,-0.267891 -0.59531,-0.595313 z M 217.00214,83.89149 c 3.45612,-0.04178 9.11159,-0.04178 12.56771,0 3.45612,0.04178 0.62839,0.07596 -6.28385,0.07596 -6.91224,0 -9.73998,-0.03418 -6.28386,-0.07596 z m 66.80729,-3.681192 c 0.1819,-0.0734 0.47956,-0.0734 0.66146,0 0.1819,0.0734 0.0331,0.133452 -0.33073,0.133452 -0.3638,0 -0.51263,-0.06005 -0.33073,-0.133452 z m 47.11237,-0.0055 c 0.191,-0.07643 0.4192,-0.06703 0.50712,0.02089 0.0879,0.08792 -0.0684,0.150453 -0.34727,0.138964 -0.30822,-0.01269 -0.37092,-0.07539 -0.15985,-0.159852 z m -38.38112,-0.259071 c 0.1819,-0.0734 0.47956,-0.0734 0.66146,0 0.1819,0.0734 0.0331,0.133452 -0.33073,0.133452 -0.3638,0 -0.51263,-0.06005 -0.33073,-0.133452 z m 29.63333,0 c 0.1819,-0.0734 0.47956,-0.0734 0.66146,0 0.1819,0.0734 0.0331,0.133452 -0.33073,0.133452 -0.3638,0 -0.51263,-0.06005 -0.33073,-0.133452 z m -21.42816,-0.276484 c 0.32912,-0.06329 0.80537,-0.06088 1.05833,0.0053 0.25297,0.06622 -0.0163,0.118003 -0.5984,0.115066 -0.58208,-0.0029 -0.78905,-0.05712 -0.45993,-0.120405 z m 12.96458,0 c 0.32912,-0.06329 0.80537,-0.06088 1.05833,0.0053 0.25297,0.06622 -0.0163,0.118003 -0.59839,0.115066 -0.58209,-0.0029 -0.78906,-0.05712 -0.45994,-0.120405 z m -132.6857,-2.723288 c 0,-0.654843 0.0516,-0.922734 0.11466,-0.595312 0.0631,0.327422 0.0631,0.863203 0,1.190625 -0.0631,0.327422 -0.11466,0.05953 -0.11466,-0.595313 z m 260.82798,-0.15434 c 0.0127,-0.308224 0.0754,-0.370919 0.15985,-0.159852 0.0764,0.190996 0.067,0.419199 -0.0209,0.507118 -0.0879,0.08792 -0.15045,-0.06835 -0.13896,-0.347266 z m -145.73512,-2.14568 c 0.25743,-0.06708 0.61462,-0.06267 0.79375,0.0098 0.17913,0.07247 -0.0315,0.127362 -0.46806,0.12197 -0.43656,-0.0054 -0.58312,-0.06469 -0.32569,-0.131774 z m 22.35226,0.0081 c 0.1819,-0.0734 0.47955,-0.0734 0.66145,0 0.18191,0.0734 0.0331,0.133452 -0.33072,0.133452 -0.36381,0 -0.51263,-0.06005 -0.33073,-0.133452 z M 287.91551,74.38134 c 0.25743,-0.06708 0.61462,-0.06267 0.79375,0.0098 0.17913,0.07247 -0.0315,0.127361 -0.46806,0.121969 -0.43656,-0.0054 -0.58312,-0.06469 -0.32569,-0.131773 z m 38.75642,0.0081 c 0.1819,-0.0734 0.47956,-0.0734 0.66146,0 0.1819,0.0734 0.0331,0.133452 -0.33073,0.133452 -0.3638,0 -0.51263,-0.06005 -0.33073,-0.133452 z M -18.990343,72.051152 c 0.0015,-0.873125 0.05088,-1.198415 0.109765,-0.722866 0.05889,0.475549 0.05767,1.189924 -0.0027,1.5875 -0.06037,0.397576 -0.10855,0.0085 -0.107065,-0.864634 z M 162.2744,53.596465 l -0.50403,-0.595313 0.59532,0.504028 c 0.55944,0.473662 0.71576,0.686597 0.50402,0.686597 -0.0502,0 -0.31809,-0.26789 -0.59531,-0.595312 z m 215.79284,-1.389062 c 0.34177,-0.363803 0.68094,-0.661459 0.7537,-0.661459 0.0728,0 -0.14734,0.297656 -0.48912,0.661459 -0.34177,0.363802 -0.68094,0.661458 -0.7537,0.661458 -0.0728,0 0.14735,-0.297656 0.48912,-0.661458 z m 43.09333,-0.33073 c -0.3291,-0.419644 -0.31975,-0.429002 0.0999,-0.09989 0.44073,0.345643 0.58089,0.562915 0.36312,0.562915 -0.0549,0 -0.2633,-0.208359 -0.46302,-0.463021 z M 125.86972,45.808954 c 0.191,-0.07643 0.4192,-0.06703 0.50712,0.02089 0.0879,0.08792 -0.0683,0.150453 -0.34726,0.138964 -0.30823,-0.0127 -0.37092,-0.07539 -0.15986,-0.159852 z m 275.96041,-5.820833 c 0.191,-0.07643 0.4192,-0.06703 0.50712,0.02089 0.0879,0.08792 -0.0684,0.150453 -0.34727,0.138964 -0.30822,-0.0127 -0.37092,-0.07539 -0.15985,-0.159852 z M 136.45306,27.552704 c 0.19099,-0.07643 0.4192,-0.06703 0.50711,0.02089 0.0879,0.08792 -0.0684,0.150452 -0.34726,0.138964 -0.30823,-0.0127 -0.37092,-0.07539 -0.15985,-0.159853 z M 401.47734,2.8626125 c 0,-13.1696345 0.0322,-18.5572125 0.0716,-11.9723954 0.0394,6.5848174 0.0394,17.3599733 0,23.9447909 -0.0394,6.584817 -0.0716,1.197239 -0.0716,-11.9723955 z M -257.92435,25.484487 c 0.003,-0.582084 0.0571,-0.789055 0.12041,-0.459936 0.0633,0.329118 0.0609,0.805368 -0.005,1.058333 -0.0662,0.252965 -0.118,-0.01631 -0.11507,-0.598397 z m 594.38586,-2.159604 c 0.1819,-0.0734 0.47956,-0.0734 0.66146,0 0.1819,0.0734 0.0331,0.133452 -0.33073,0.133452 -0.3638,0 -0.51263,-0.06005 -0.33073,-0.133452 z M 179.596,22.507924 c -0.32911,-0.419644 -0.31975,-0.429002 0.0999,-0.09989 0.44073,0.345643 0.58089,0.562915 0.36313,0.562915 -0.0549,0 -0.2633,-0.208359 -0.46302,-0.463021 z M 82.758501,21.185008 c -0.329107,-0.419644 -0.319749,-0.429003 0.0999,-0.0999 0.440729,0.345644 0.580887,0.562916 0.363126,0.562916 -0.05494,0 -0.263301,-0.20836 -0.463021,-0.463021 z m 75.572289,-1.124479 c 0.26339,-0.291042 0.53842,-0.529167 0.61118,-0.529167 0.0728,0 -0.0832,0.238125 -0.3466,0.529167 -0.26339,0.291041 -0.53842,0.529166 -0.61118,0.529166 -0.0728,0 0.0832,-0.238125 0.3466,-0.529166 z m -33.23896,-0.198438 c -0.3291,-0.419644 -0.31975,-0.429002 0.0999,-0.0999 0.25466,0.19972 0.46302,0.408079 0.46302,0.463021 0,0.217761 -0.21727,0.0776 -0.56292,-0.363126 z M -6.6865226,16.704788 c 0.190996,-0.07643 0.4191992,-0.06703 0.507118,0.02089 0.087919,0.08792 -0.068351,0.150453 -0.3472656,0.138965 -0.3082245,-0.0127 -0.3709192,-0.07539 -0.1598524,-0.159853 z M 174.90902,8.948029 c 0,-0.3638021 0.0601,-0.5126302 0.13346,-0.3307292 0.0734,0.181901 0.0734,0.4795573 0,0.6614583 -0.0734,0.1819011 -0.13346,0.033073 -0.13346,-0.3307291 z m 6.16699,-15.7427079 c 5e-5,-7.8581251 0.0338,-11.0346431 0.0749,-7.0589291 0.0412,3.9757133 0.0412,10.4050881 -7e-5,14.28749929 -0.0412,3.88241121 -0.0749,0.62955461 -0.0749,-7.22857019 z m 30.58921,13.7362843 c 0.0127,-0.3082245 0.0754,-0.3709192 0.15985,-0.1598524 0.0764,0.1909961 0.067,0.4191992 -0.0209,0.507118 -0.0879,0.087919 -0.15045,-0.068351 -0.13896,-0.3472656 z M 103.66058,4.2516749 c -0.3291,-0.4196438 -0.31975,-0.4290022 0.0999,-0.099895 0.44073,0.3456437 0.58089,0.5629157 0.36312,0.5629157 -0.0549,0 -0.2633,-0.2083594 -0.46302,-0.4630207 z M 345.19276,3.2165507 c 0.1819,-0.073399 0.47956,-0.073399 0.66146,0 0.1819,0.073399 0.0331,0.1334521 -0.33073,0.1334521 -0.3638,0 -0.51263,-0.060053 -0.33073,-0.1334521 z M 276.66568,2.6873841 c 0.1819,-0.073399 0.47956,-0.073399 0.66146,0 0.1819,0.073399 0.0331,0.1334521 -0.33073,0.1334521 -0.3638,0 -0.51263,-0.060053 -0.33073,-0.1334521 z m 24.34167,0 c 0.1819,-0.073399 0.47955,-0.073399 0.66146,0 0.1819,0.073399 0.0331,0.1334521 -0.33073,0.1334521 -0.36381,0 -0.51263,-0.060053 -0.33073,-0.1334521 z m -14.94532,-0.279215 c 0.40218,-0.060816 0.99749,-0.05919 1.32291,0.00361 0.32542,0.062802 -0.004,0.1125603 -0.73124,0.1105739 -0.7276,-0.00199 -0.99386,-0.05337 -0.59167,-0.1141855 z m 5.02708,0 c 0.40218,-0.060816 0.9975,-0.05919 1.32292,0.00361 0.32542,0.062802 -0.004,0.1125603 -0.73124,0.1105739 -0.72761,-0.00199 -0.99386,-0.05337 -0.59168,-0.1141855 z m -11.37568,-3.16849361 c 0.25743,-0.0670834 0.61461,-0.0626716 0.79375,0.009804 0.17913,0.0724755 -0.0315,0.12736187 -0.46806,0.12196974 -0.43656,-0.005392 -0.58313,-0.0646903 -0.32569,-0.13177374 z m 18.3835,0.008125 c 0.1819,-0.0733987 0.47956,-0.0733987 0.66146,0 0.1819,0.0733987 0.0331,0.13345212 -0.33073,0.13345212 -0.3638,0 -0.51263,-0.0600534 -0.33073,-0.13345212 z M 125.91933,-14.467595 c 0.34178,-0.363802 0.68094,-0.661459 0.7537,-0.661459 0.0728,0 -0.14734,0.297657 -0.48911,0.661459 -0.34178,0.363802 -0.68094,0.661458 -0.7537,0.661458 -0.0728,0 0.14734,-0.297656 0.48911,-0.661458 z m 32.91549,-0.198438 -0.50403,-0.595312 0.59531,0.504028 c 0.55945,0.473662 0.71576,0.686597 0.50403,0.686597 -0.0502,0 -0.3181,-0.267891 -0.59531,-0.595313 z m -373.30193,-0.727604 c 0.56838,-0.582083 1.09296,-1.058333 1.16572,-1.058333 0.0728,0 -0.33275,0.47625 -0.90114,1.058333 -0.56839,0.582083 -1.09297,1.058333 -1.16573,1.058333 -0.0728,0 0.33276,-0.47625 0.90115,-1.058333 z m 450.51925,-2.299051 c 0.25466,-0.06655 0.67138,-0.06655 0.92604,0 0.25466,0.06655 0.0463,0.121 -0.46302,0.121 -0.50932,0 -0.71768,-0.05445 -0.46302,-0.121 z m 12.43542,0 c 0.25466,-0.06655 0.67138,-0.06655 0.92604,0 0.25466,0.06655 0.0463,0.121 -0.46302,0.121 -0.50932,0 -0.71768,-0.05445 -0.46302,-0.121 z m 90.61979,0.0072 c 0.1819,-0.0734 0.47955,-0.0734 0.66145,0 0.18191,0.0734 0.0331,0.133452 -0.33072,0.133452 -0.36381,0 -0.51264,-0.06005 -0.33073,-0.133452 z M 92.780271,-35.677198 c 0.181901,-0.0734 0.479557,-0.0734 0.661458,0 0.181901,0.0734 0.03307,0.133452 -0.330729,0.133452 -0.363802,0 -0.51263,-0.06005 -0.330729,-0.133452 z m 86.270699,-1.063845 c 0.191,-0.07643 0.4192,-0.06703 0.50712,0.02089 0.0879,0.08792 -0.0683,0.150452 -0.34727,0.138964 -0.30822,-0.0127 -0.37092,-0.07539 -0.15985,-0.159852 z m 34.39583,0 c 0.191,-0.07643 0.4192,-0.06703 0.50712,0.02089 0.0879,0.08792 -0.0684,0.150452 -0.34726,0.138964 -0.30823,-0.0127 -0.37092,-0.07539 -0.15986,-0.159852 z m 34.39584,0 c 0.19099,-0.07643 0.41919,-0.06703 0.50711,0.02089 0.0879,0.08792 -0.0684,0.150452 -0.34726,0.138964 -0.30823,-0.0127 -0.37092,-0.07539 -0.15985,-0.159852 z m 80.43333,0 c 0.19099,-0.07643 0.4192,-0.06703 0.50711,0.02089 0.0879,0.08792 -0.0684,0.150452 -0.34726,0.138964 -0.30823,-0.0127 -0.37092,-0.07539 -0.15985,-0.159852 z m 52.40335,-1.869781 c -0.3291,-0.419644 -0.31974,-0.429002 0.0999,-0.09989 0.44073,0.345643 0.58089,0.562915 0.36313,0.562915 -0.055,0 -0.26331,-0.208359 -0.46303,-0.463021 z m -526.28862,-0.252871 c 0.32742,-0.06306 0.8632,-0.06306 1.19062,0 0.32742,0.06307 0.0595,0.114663 -0.59531,0.114663 -0.65485,0 -0.92274,-0.0516 -0.59531,-0.114663 z m 105.833325,-0.01118 c 2.219193,-0.04425 5.850599,-0.04425 8.069792,0 2.219192,0.04425 0.403489,0.08046 -4.034896,0.08046 -4.438385,0 -6.254088,-0.03621 -4.034896,-0.08046 z m 336.153115,-8.715729 c 0.25466,-0.06655 0.67138,-0.06655 0.92604,0 0.25466,0.06655 0.0463,0.121 -0.46302,0.121 -0.50932,0 -0.71768,-0.05445 -0.46302,-0.121 z m 111.6494,-1.669699 c 0,-0.509323 0.0544,-0.717683 0.121,-0.463021 0.0666,0.254661 0.0666,0.67138 0,0.926041 -0.0666,0.254662 -0.121,0.0463 -0.121,-0.46302 z m -131.80299,-0.418924 c 0.0127,-0.308225 0.0754,-0.370919 0.15985,-0.159852 0.0764,0.190996 0.067,0.419199 -0.0209,0.507118 -0.0879,0.08792 -0.15045,-0.06835 -0.13896,-0.347266 z m -417.15719,-8.047743 c 0,-2.983177 0.0386,-4.203567 0.0857,-2.711979 0.0472,1.491589 0.0472,3.93237 0,5.423958 -0.0472,1.491589 -0.0857,0.271198 -0.0857,-2.711979 z m 420.70818,-1.058333 c 0.26338,-0.291042 0.53842,-0.529167 0.61118,-0.529167 0.0728,0 -0.0832,0.238125 -0.3466,0.529167 -0.26339,0.291042 -0.53842,0.529167 -0.61118,0.529167 -0.0728,0 0.0832,-0.238125 0.3466,-0.529167 z m -3.70417,-0.264583 c 0.26339,-0.291042 0.53842,-0.529167 0.61118,-0.529167 0.0728,0 -0.0832,0.238125 -0.3466,0.529167 -0.26339,0.291041 -0.53842,0.529166 -0.61118,0.529166 -0.0728,0 0.0832,-0.238125 0.3466,-0.529166 z M 92.796807,-63.463959 c 0.190996,-0.07643 0.4192,-0.06703 0.507118,0.02089 0.08792,0.08792 -0.06835,0.150453 -0.347265,0.138964 -0.308225,-0.0127 -0.370919,-0.07539 -0.159853,-0.159852 z m 1.041797,0.0055 c 0.181901,-0.0734 0.479557,-0.0734 0.661459,0 0.181901,0.0734 0.03307,0.133452 -0.33073,0.133452 -0.363802,0 -0.51263,-0.06005 -0.330729,-0.133452 z m 40.233206,-0.0055 c 0.19099,-0.07643 0.4192,-0.06703 0.50711,0.02089 0.0879,0.08792 -0.0684,0.150453 -0.34726,0.138964 -0.30823,-0.0127 -0.37092,-0.07539 -0.15985,-0.159852 z m 1.32291,0 c 0.191,-0.07643 0.4192,-0.06703 0.50712,0.02089 0.0879,0.08792 -0.0683,0.150453 -0.34726,0.138964 -0.30823,-0.0127 -0.37092,-0.07539 -0.15986,-0.159852 z m 152.13541,0 c 0.191,-0.07643 0.4192,-0.06703 0.50712,0.02089 0.0879,0.08792 -0.0683,0.150453 -0.34726,0.138964 -0.30823,-0.0127 -0.37092,-0.07539 -0.15986,-0.159852 z m 1.57097,0.0055 c 0.1819,-0.0734 0.47955,-0.0734 0.66146,0 0.1819,0.0734 0.0331,0.133452 -0.33073,0.133452 -0.36381,0 -0.51263,-0.06005 -0.33073,-0.133452 z m 102.67486,-0.0055 c 0.191,-0.07643 0.4192,-0.06703 0.50712,0.02089 0.0879,0.08792 -0.0684,0.150453 -0.34726,0.138964 -0.30823,-0.0127 -0.37092,-0.07539 -0.15986,-0.159852 z m 1.0418,0.0055 c 0.1819,-0.0734 0.47956,-0.0734 0.66146,0 0.1819,0.0734 0.0331,0.133452 -0.33073,0.133452 -0.3638,0 -0.51263,-0.06005 -0.33073,-0.133452 z"
         id="path11" /><path
         style="fill:#010101"
         d="m 393.0162,120.32911 c -9.26417,-1.05763 -17.90274,-4.70664 -24.23838,-10.23852 -6.52555,-5.6977 -10.24446,-13.480304 -11.4755,-24.014901 -1.01522,-8.687807 0.17503,-16.639618 3.57747,-23.900242 3.49696,-7.46232 10.2386,-14.267282 17.62896,-17.794558 14.03985,-6.700943 34.32721,-5.596312 46.85053,2.550976 11.03233,7.177297 16.51119,17.779334 16.53599,31.998453 0.0206,11.816441 -3.50814,21.329702 -10.70368,28.856362 -6.24776,6.53527 -13.91573,10.38642 -24.01705,12.06229 -3.53502,0.58648 -11.00725,0.83988 -14.15834,0.48014 z m 8.80782,-3.4478 c 7.56715,-0.8285 12.95383,-3.34062 18.08413,-8.43365 5.52773,-5.48759 8.74029,-11.786411 10.46647,-20.521509 0.36541,-1.849124 0.46988,-3.682 0.46749,-8.202083 -0.005,-9.167569 -0.89494,-13.883194 -3.69562,-19.579166 -2.01269,-4.093378 -3.69693,-6.392599 -6.42682,-8.773461 -5.68007,-4.953861 -11.83521,-7.375305 -19.50139,-7.671888 -14.56019,-0.563294 -26.1038,7.396411 -30.69099,21.162477 -3.88742,11.666056 -3.25763,26.730849 1.51726,36.29329 1.43872,2.88125 2.95403,4.94142 5.26621,7.15973 6.88325,6.60382 15.36516,9.56785 24.51326,8.56626 z m -578.45572,2.49015 c -20.71996,-1.6705 -38.36269,-8.23745 -51.55772,-19.19075 -4.01587,-3.3336 -10.53257,-10.257407 -12.44151,-13.218758 l -0.45099,-0.699616 2.98865,-2.1002 c 4.5953,-3.229229 8.30268,-5.687201 14.33501,-9.504035 l 5.52553,-3.49616 3.20572,3.237049 c 3.46673,3.500605 6.20584,5.734566 10.34948,8.440811 7.91414,5.168799 17.70344,8.953462 28.49705,11.017307 6.0451,1.155883 8.89047,1.349929 22.37176,1.525685 l 13.03339,0.169917 -0.0688,11.92943 -0.0688,11.92943 -17.33021,0.0226 c -9.53161,0.0124 -17.80646,-0.0158 -18.38854,-0.0627 z m 45.76051,-0.0605 c -0.0659,-0.0659 -0.11989,-5.45372 -0.11989,-11.97286 V 95.485119 l 31.551566,-0.09319 c 28.509665,-0.08421 31.768384,-0.136909 33.800519,-0.546652 4.930212,-0.994088 9.376785,-2.751438 12.193351,-4.818988 2.02021,-1.48297 4.541211,-4.357816 5.615877,-6.404113 3.504942,-6.67385 2.977259,-14.775061 -1.380366,-21.191948 -5.866899,-8.639393 -15.75582,-15.207319 -39.712194,-26.375655 -11.495203,-5.359003 -19.050003,-9.190265 -19.050003,-9.660822 0,-0.179311 5.28013,-1.379482 12.038545,-2.736355 8.148962,-1.636052 19.449118,-3.430621 28.504782,-4.526824 3.977324,-0.481462 2.625493,-0.972237 11.821778,4.291834 15.868634,9.083409 23.891203,15.610606 29.530854,24.026432 3.114315,4.647367 4.982224,9.10987 6.255673,14.945024 0.547721,2.50975 0.605863,3.455451 0.601865,9.789583 -0.0038,6.050693 -0.0855,7.479254 -0.596059,10.425341 -1.906268,10.999675 -5.068842,17.986534 -10.888094,24.054334 -7.083308,7.38585 -16.606924,11.38511 -29.379759,12.33747 -3.482508,0.25966 -70.545125,0.5537 -70.788445,0.31037 z M 78.029751,80.517818 V 41.888653 h 4.894791 4.894792 V 80.517818 119.14698 H 82.924542 78.029751 Z M 189.54852,118.79508 c 0.0743,-0.19355 8.02301,-18.02207 17.66386,-39.618938 l 17.52882,-39.267028 1.33289,-0.0024 1.33289,-0.0024 16.92336,39.44084 c 9.30785,21.692466 16.95314,39.522076 16.98953,39.621356 0.0364,0.0993 -2.58299,0.16044 -5.82083,0.13591 l -5.887,-0.0446 -2.94016,-7.7606 c -2.80198,-7.39589 -7.14455,-18.343745 -8.45789,-21.322768 l -0.61338,-1.391328 -14.49788,0.06841 -14.49788,0.06841 -2.53882,6.217708 c -2.88709,7.070618 -5.71156,14.759478 -7.48391,20.372918 l -1.2113,3.83645 h -3.97867 c -3.20193,0 -3.95231,-0.0687 -3.84363,-0.3519 z m 46.17374,-35.036116 c 0.001,-0.435277 -12.23858,-28.774874 -12.42498,-28.768618 -0.1078,0.0036 -11.93409,27.510833 -12.4026,28.847694 -0.055,0.156834 4.60557,0.251653 12.36927,0.251653 9.78913,0 12.45764,-0.07084 12.45831,-0.330729 z m 38.09932,-3.241146 -1.3e-4,-38.629165 4.89477,-0.0018 4.89477,-0.0018 v 16.179701 16.1797 l 4.16719,0.225771 c 5.41054,0.293134 33.82344,0.293288 39.55521,2.14e-4 l 4.43177,-0.226603 2e-5,-16.177563 1e-5,-16.177563 4.89478,-0.0018 4.89477,-0.0018 1.1e-4,38.630994 1.1e-4,38.630986 h -4.89306 -4.89305 l -0.068,-19.446867 -0.068,-19.446874 -9.78959,-0.341866 c -9.2837,-0.324199 -17.80789,-0.293342 -32.08072,0.116132 l -6.15157,0.176483 1.1e-4,19.4715 1.1e-4,19.471492 h -4.89474 -4.89475 z M -7.783441,118.8383 C -8.0284555,118.59329 -8.0064886,16.942024 -7.7613924,16.809306 -7.32214,16.571455 5.5958781,17.391282 14.907482,18.247959 l 3.326437,0.306036 V 68.784343 119.01469 H 5.3134336 c -7.1062672,0 -12.9998607,-0.0794 -13.0968746,-0.17639 z M 110.30892,80.398755 V 41.735958 l 21.62968,0.08948 c 21.37274,0.08842 21.66112,0.09662 24.27552,0.690189 12.85682,2.919007 21.50689,12.342147 24.14363,26.301376 0.66675,3.529852 0.64521,13.799569 -0.0367,17.521648 -1.29239,7.053802 -3.6452,12.452194 -7.85108,18.013889 -5.12283,6.77424 -11.55584,11.00772 -19.68373,12.95359 -5.72007,1.36943 -7.78085,1.5001 -25.74239,1.63227 l -16.73489,0.12315 z m 31.88229,33.842925 c 5.98055,-0.68 10.56513,-2.19954 14.40548,-4.77463 6.69822,-4.49142 10.80497,-11.293368 12.52633,-20.747149 0.5073,-2.786122 0.57772,-4.098585 0.57499,-10.715624 -0.003,-7.118811 -0.0415,-7.718231 -0.68979,-10.715625 -1.92831,-8.915935 -5.50515,-14.130703 -12.01558,-17.5178 -3.70516,-1.927639 -8.21835,-3.171133 -13.66653,-3.765465 -2.87752,-0.313904 -12.72367,-0.368495 -19.06042,-0.10568 l -4.16719,0.172834 v 33.957534 c 0,18.676643 0.0298,33.972125 0.0661,33.989955 0.86778,0.42534 18.66047,0.60438 22.02657,0.22165 z m -397.632,-62.53177 c -0.30388,-1.256799 -1.48983,-9.51091 -1.81027,-12.599382 -0.54442,-5.247334 -0.45989,-20.751691 0.13487,-24.738541 2.5288,-16.9510357 9.48147,-31.649616 21.21783,-44.856435 13.56953,-15.269675 34.10843,-26.831679 54.91969,-30.916057 8.1298,-1.595538 9.18475,-1.670994 25.24905,-1.805964 l 14.81667,-0.124487 -0.0713,12.15378 -0.0713,12.153779 -3.76516,0.172246 c -2.07084,0.09474 -5.20455,0.172681 -6.96381,0.173214 -11.15642,0.0034 -26.2367,2.965841 -37.2826,7.324031 -24.07388,9.498418 -38.1711,26.2075732 -41.81488,49.562351 -0.51716,3.314742 -0.80806,14.882013 -0.46093,18.32834 l 0.23379,2.321048 -5.04044,2.674589 c -5.85999,3.109458 -10.77174,5.836603 -15.6699,8.700372 -3.24271,1.895892 -3.49515,1.998861 -3.62131,1.477116 z M 86.893292,27.452818 C 83.499374,26.93594 79.798448,25.48099 78.580879,24.184947 78.08683,23.659056 78.073298,23.527171 78.401198,22.43369 c 0.195033,-0.650395 0.499657,-2.04574 0.676942,-3.100766 0.177286,-1.055026 0.416338,-1.918229 0.531228,-1.918229 0.114889,0 0.720441,0.677546 1.345671,1.505658 2.60178,3.446032 4.92516,5.046697 8.18259,5.637298 4.627836,0.839068 8.932575,-1.218481 10.896791,-5.208372 0.73752,-1.498118 0.87533,-2.093249 0.96252,-4.156624 0.13095,-3.099188 -0.50817,-4.978707 -2.301451,-6.7681185 C 97.363924,7.0958481 93.952566,5.2830249 90.217154,3.9190801 82.387224,1.0600667 79.357348,-2.4096397 79.359718,-8.5144705 c 0.0021,-5.5342595 2.321239,-9.4099945 6.948025,-11.6117565 2.943093,-1.400538 4.543868,-1.74411 8.126174,-1.74411 4.033151,0 6.868863,0.735988 9.312923,2.417099 l 0.97855,0.67308 -0.49909,1.362531 c -0.2745,0.749393 -0.69353,2.047141 -0.93118,2.883886 -0.23765,0.836745 -0.57267,1.521354 -0.74449,1.521354 -0.17183,0 -0.59991,-0.541943 -0.9513,-1.204318 -2.773375,-5.227857 -10.067159,-6.407512 -14.554038,-2.353886 -2.630468,2.376469 -3.127027,7.3932549 -1.043175,10.5392969 1.10291,1.6650908 3.900727,3.3504447 8.867976,5.34190677 4.590195,1.84029423 6.442857,2.87071363 8.481047,4.71701243 2.23884,2.0280656 3.24859,4.505286 3.24588,7.9631119 -0.007,8.807337 -6.27981,14.959727 -15.86727,15.562464 -1.236927,0.07776 -2.963333,0.03259 -3.836458,-0.100383 z m 48.267278,0.01215 c -4.61682,-0.523879 -8.55102,-1.905881 -12.20398,-4.287002 -5.59048,-3.644058 -8.49643,-8.42328 -9.61759,-15.817438 -1.75741,-11.5901228 3.27786,-21.920647 12.96264,-26.594631 6.0722,-2.930511 14.29185,-3.536709 21.52689,-1.587607 11.4522,3.085191 18.02188,12.224511 17.41413,24.2254089 -0.20802,4.1075595 -1.10359,7.5859941 -2.85798,11.1005791 -1.22003,2.444085 -1.70619,3.098232 -4.04325,5.440377 -3.05099,3.057625 -5.24387,4.47956 -8.95246,5.805062 -4.3117,1.541062 -9.86438,2.210444 -14.2284,1.715251 z m 8.56535,-2.627674 c 7.24884,-1.856629 12.70598,-8.365042 14.35956,-17.1258214 0.60012,-3.1794555 0.39551,-10.0876104 -0.39236,-13.2468249 -0.99987,-4.0093035 -3.05398,-7.4466607 -5.82765,-9.7520227 -5.40674,-4.493855 -12.6724,-5.727254 -19.36016,-3.286525 -8.51461,3.107449 -13.02749,11.4982482 -12.59396,23.4159545 0.27795,7.6407245 2.30987,12.6129345 6.63035,16.2248085 4.84903,4.053739 10.89705,5.38075 17.18422,3.770431 z m 47.28091,2.617 c -6.15572,-0.756681 -11.332,-3.856857 -13.57887,-8.132661 -2.26244,-4.305424 -2.55089,-7.254061 -2.55652,-26.1329789 l -0.004,-14.0395821 3.04271,0.01294 3.0427,0.01294 0.004,13.4974797 c 0.002,7.42361364 0.12185,14.9262293 0.26566,16.6724792 0.45528,5.5283201 1.59741,8.8293231 3.9105,11.3022011 1.40608,1.503209 2.74267,2.349675 4.96892,3.146814 2.19785,0.786971 7.93859,0.998968 10.53493,0.38904 5.47707,-1.286665 9.08171,-5.325067 10.52842,-11.795347 0.52924,-2.366986 0.56849,-3.4089844 0.67305,-17.871047 l 0.11104,-15.357506 h 1.84292 1.84292 l -0.0861,16.5481309 c -0.0846,16.2611051 -0.0964,16.5817281 -0.67866,18.4851451 -2.18919,7.156054 -6.78905,11.348886 -14.09056,12.843748 -2.56324,0.524779 -7.26823,0.726117 -9.77308,0.418212 z M 239.69016,4.5162583 V -17.774887 l -1.12448,0.0066 c -1.67513,0.0098 -9.82881,0.458999 -12.10468,0.66691 l -1.98438,0.181282 v -2.014875 -2.014876 l 17.99167,-6.16e-4 17.99166,-6.15e-4 -0.0881,2.016675 -0.0882,2.016676 -1.49934,-0.168086 c -1.68369,-0.188751 -10.15324,-0.676206 -11.88424,-0.683982 l -1.12448,-0.0051 V 4.5162583 26.807403 h -3.04271 -3.04271 z M 437.75982,24.215551 c -6.81805,-7.825622 -31.73203,-35.111271 -32.0594,-35.111271 -0.32816,0 -0.3811,2.6093666 -0.3811,18.7854157 V 26.675112 h -1.85208 -1.85208 V 2.8487855 -20.977541 l 1.38218,0.07997 1.38219,0.07997 16.45176,17.8593744 c 9.04847,9.8226559 16.6418,17.8978706 16.87406,17.9449206 0.38338,0.07766 0.42231,-1.570755 0.42231,-17.8828531 V -20.864552 l 1.98437,0.01743 1.98438,0.01743 V 3.0550014 26.939695 l -0.99219,-0.01216 c -0.92296,-0.01132 -1.15631,-0.20054 -3.3444,-2.711979 z M 268.26516,2.9134939 V -20.848124 h 3.04271 3.04271 v 9.962129 9.96212793 l 3.77031,0.17248031 c 4.85303,0.22201151 17.23967,0.22201151 22.09271,0 l 3.77031,-0.17248031 v -9.96212793 -9.962129 h 3.04271 3.04271 V 2.9134939 26.675112 h -3.04271 -3.04271 V 14.7964 2.9176886 L 301.8011,2.718026 c -1.20055,-0.1098144 -6.88578,-0.1996626 -12.63386,-0.1996626 -5.74807,0 -11.4333,0.089848 -12.63385,0.1996626 l -2.18281,0.1996626 V 14.7964 26.675112 h -3.04271 -3.04271 z m 54.50417,-0.050881 V -20.949887 h 12.36927 12.36927 v 2.004498 2.004497 l -1.05834,-0.15629 c -2.52553,-0.372959 -8.03992,-0.666142 -12.63385,-0.671701 l -4.96094,-0.006 v 8.8994416 8.89944139 l 8.13594,-0.13414794 c 4.47476,-0.0737814 8.29311,-0.17923326 8.4852,-0.23433753 0.26113,-0.0749082 0.36128,0.34363944714 0.39688,1.65869508 l 0.0476,1.7588847 -8.53282,-0.1454351 -8.53281,-0.1454351 V 13.141166 23.500112 l 3.50573,-0.0096 c 3.6475,-0.01001 10.68212,-0.353249 13.74364,-0.670594 l 1.77123,-0.1836 v 2.019406 2.019407 h -12.55301 -12.553 z m 35.18958,-0.019437 V -20.988761 l 10.12031,0.102112 c 9.32362,0.09407 10.28005,0.146393 12.14942,0.664595 2.49007,0.690265 3.89566,1.390139 5.25098,2.614587 2.93923,2.655422 3.63749,8.0653519 1.60444,12.4307191 -1.53181,3.2891007 -5.26935,5.95989113 -10.36301,7.4052589 -1.36965,0.3886479 -2.53428,0.7442447 -2.58807,0.7902151 -0.17746,0.1516656 14.18466,18.3385109 17.37553,22.0027399 l 1.44002,1.653646 h -4.00535 -4.00535 l -3.87774,-5.225521 c -4.1611,-5.607363 -7.6206,-9.988749 -11.80358,-14.9489578 l -2.62172,-3.1088541 h -1.29523 -1.29524 V 15.033445 26.675112 h -3.0427 -3.04271 z m 16.00244,-2.60613863 c 3.57944,-0.94769996 5.96317,-2.75080167 7.34578,-5.55651277 0.51427,-1.0436173 0.59657,-1.6303536 0.59657,-4.2533276 0,-2.9128819 -0.035,-3.1047989 -0.81989,-4.4979159 -0.95765,-1.699729 -2.75499,-3.173428 -4.70078,-3.854326 -1.08872,-0.380983 -2.44875,-0.49668 -6.8486,-0.58261 l -5.49011,-0.107223 V -8.7662245 1.08243 l 3.90261,-0.14313344 c 2.74382,-0.10063345 4.52965,-0.30915231 6.01442,-0.70225929 z M -131.46478,3.5902166 c -1.07837,-1.302018 -3.44858,-7.7904765 -4.2999,-11.7709669 -0.71152,-3.3268257 -0.97536,-10.2431427 -0.53783,-14.0985127 2.50542,-22.076683 16.50295,-35.969399 40.501016,-40.197717 5.602707,-0.987164 8.456615,-1.066244 38.56302,-1.068559 l 29.434895,-0.0023 v 12.303125 12.303124 h -29.441836 c -18.59281,0 -30.267997,0.100523 -31.683853,0.272797 -6.799842,0.82737 -12.229812,3.528459 -15.664882,7.792349 -1.66904,2.071761 -3.44748,5.560815 -4.3263,8.48762 -0.92494,3.080365 -1.05193,7.626378 -0.27671,9.905567 1.18066,3.4712506 3.57941,6.4400962 7.66363,9.4850135 1.991664,1.4848496 2.262117,1.7715204 1.73113,1.8349428 -6.98422,0.83421182 -19.85202,2.8755824 -27.00229,4.2836907 -4.71961,0.9294359 -4.31333,0.8884781 -4.66009,0.4697896 z M 13.471419,0.86429288 C 9.9595715,0.26251096 0.40809913,-1.062563 -5.0494133,-1.7050988 L -7.8275382,-2.032179 -7.8947863,-32.78999 -7.9620343,-63.547802 H 5.1359425 18.233919 V -31.004053 1.5396959 L 17.638607,1.5080284 C 17.311185,1.4906113 15.435951,1.2009303 13.471419,0.86429288 Z M 88.179706,-34.703309 c -2.527592,-0.662645 -4.225277,-1.559245 -5.967718,-3.151739 -2.497759,-2.28281 -3.830941,-5.485217 -4.087193,-9.817754 -0.455749,-7.7055 3.74314,-13.566782 10.909553,-15.228785 3.36984,-0.781518 8.868887,-0.397276 12.049832,0.841973 0.63522,0.247472 1.18431,0.469869 1.22019,0.494218 0.0728,0.04937 -0.73522,2.863724 -0.86041,2.996914 -0.0437,0.04649 -0.81676,-0.458252 -1.717929,-1.121652 -3.581472,-2.636529 -7.786081,-2.949042 -11.727027,-0.871624 -4.580913,2.414768 -6.883276,8.75774 -5.604624,15.44065 0.519971,2.717643 1.504931,4.671263 3.221868,6.39042 3.791162,3.796065 9.906631,4.077542 14.943742,0.687817 l 1.35609,-0.912582 -0.17089,1.263721 c -0.19295,1.426875 -0.47095,1.703705 -2.457114,2.446825 -3.084686,1.154129 -7.880105,1.387933 -11.10837,0.541598 z m 42.502124,0.111486 c -2.36227,-0.509189 -5.24547,-1.988004 -6.99703,-3.588834 -4.54281,-4.151872 -5.3961,-13.058233 -1.78578,-18.639355 2.77339,-4.287328 7.1701,-6.475309 13.03876,-6.488609 5.13325,-0.01163 8.69342,1.283848 11.63914,4.235274 3.37662,3.383149 4.57274,7.813889 3.55355,13.163207 -1.36525,7.165606 -7.44664,11.764183 -15.47989,11.705459 -1.23693,-0.009 -3.02286,-0.183256 -3.96875,-0.387142 z m 7.84962,-1.442632 c 5.15134,-1.772655 8.35077,-7.496012 7.91109,-14.151889 -0.28089,-4.25213 -1.33459,-6.860673 -3.64384,-9.020708 -3.2488,-3.038873 -8.29931,-3.790672 -12.51126,-1.862379 -2.01057,0.920468 -4.20415,3.17225 -5.17405,5.311332 -0.81708,1.802021 -1.58156,5.475168 -1.56608,7.524642 0.0162,2.148793 0.73114,5.362277 1.57372,7.073791 2.27794,4.627166 8.23818,6.905058 13.41042,5.125211 z m 144.55038,1.460857 c -5.39666,-1.220439 -9.12301,-4.798133 -10.33657,-9.924205 -0.48665,-2.055641 -0.43028,-6.384295 0.10988,-8.436794 0.97123,-3.690469 3.61728,-6.991961 6.87377,-8.576427 4.79518,-2.333129 12.77945,-2.455394 17.68451,-0.270806 l 1.4993,0.66775 -0.39884,1.362826 c -0.21937,0.749555 -0.49535,1.464183 -0.61329,1.588062 -0.11794,0.12388 -0.85127,-0.280823 -1.62962,-0.899338 -2.90493,-2.3084 -6.33579,-3.233135 -10.00898,-2.697761 -6.30872,0.919505 -9.85941,5.548172 -9.89329,12.896864 -0.0227,4.920104 1.47801,8.607106 4.4716,10.986117 2.93892,2.335559 9.48235,2.981185 13.28788,1.311086 l 1.12448,-0.49349 3e-5,-5.240399 3e-5,-5.240398 1.71976,-0.01925 1.71976,-0.01925 v 5.780489 5.780489 l -0.7276,0.280488 c -3.35305,1.292585 -11.49746,1.929542 -14.88281,1.163953 z m 104.8736,-0.128997 c -7.26166,-1.903835 -11.03222,-7.211554 -10.60634,-14.930257 0.26777,-4.853162 2.07473,-8.35431 5.61294,-10.875578 2.83795,-2.022276 5.57372,-2.806107 9.75804,-2.795806 9.39089,0.02312 15.25455,5.423968 15.24118,14.038207 -0.007,4.664023 -1.25052,7.898669 -4.13963,10.770106 -3.68765,3.66509 -10.3133,5.249167 -15.86619,3.793328 z m 7.27601,-1.091765 c 2.99573,-0.675133 5.73172,-2.993647 7.27415,-6.164216 1.14344,-2.350403 1.49082,-4.015602 1.49082,-7.146345 0,-3.125551 -0.33356,-4.870503 -1.34447,-7.033401 -3.11784,-6.670775 -12.64214,-8.071536 -17.83862,-2.623569 -2.37519,2.490141 -3.57665,6.033067 -3.56649,10.517051 0.009,4.098931 1.03569,7.153684 3.15743,9.397114 2.79895,2.959472 6.54997,4.017297 10.82718,3.053366 z M 169.84016,-48.731136 v -14.022916 h 1.85209 1.85208 v 13.138186 13.138185 l 4.69635,-0.177887 c 2.583,-0.09784 5.11308,-0.246238 5.6224,-0.329779 l 0.92604,-0.151892 v 1.21451 1.214509 h -7.47448 -7.47448 z m 34.39584,0 v -14.022916 h 1.85208 1.85208 v 13.138186 13.138185 l 4.69636,-0.177887 c 2.58299,-0.09784 5.14284,-0.251068 5.68854,-0.340513 l 0.99219,-0.162626 v 1.225244 1.225243 h -7.54063 -7.54062 z m 34.66041,0 v -14.022916 h 7.27604 7.27604 v 1.218932 c 0,1.057069 -0.0615,1.193637 -0.46302,1.028439 -0.25466,-0.104772 -2.75497,-0.253071 -5.55625,-0.329554 l -5.09322,-0.13906 v 5.196038 5.196038 h 5.02708 5.02708 l 1.6e-4,0.992187 1.6e-4,0.992188 -5.02724,-0.09093 -5.02724,-0.09093 v 6.151512 6.151511 l 4.69635,-0.177887 c 2.58299,-0.09784 5.11307,-0.246201 5.62239,-0.329697 l 0.92605,-0.151811 0.0254,1.214428 0.0254,1.214428 h -7.36756 -7.36756 z m 80.43333,0 v -14.022916 h 7.27604 7.27605 v 1.218932 c 0,1.05671 -0.0616,1.193706 -0.46303,1.02938 -0.25466,-0.104253 -2.69544,-0.252745 -5.42395,-0.329982 l -4.96094,-0.14043 v 5.196466 5.196467 h 4.89479 4.89479 l 1.5e-4,0.992187 1.4e-4,0.992188 -4.89493,-0.09138 -4.89494,-0.09138 v 6.152015 6.152014 l 4.55014,-0.178879 c 2.50258,-0.09838 5.00289,-0.251277 5.55625,-0.339763 l 1.00611,-0.160883 v 1.224441 1.22444 h -7.40833 -7.40834 z m 108.21458,0 v -14.022916 l 7.2099,6.6e-5 7.20989,6.6e-5 0.0257,1.203336 c 0.0214,1.004188 -0.0443,1.174379 -0.39688,1.028372 -0.2324,-0.09623 -2.7145,-0.23754 -5.51578,-0.314023 l -5.09322,-0.13906 v 5.196038 5.196038 h 5.02708 5.02708 v 0.992508 0.992509 l -5.02708,-0.095 -5.02708,-0.095 v 7.039987 7.039987 h -1.7198 -1.71979 z"
         id="path10" /></g></g></svg>
