<?xml version="1.0" encoding="UTF-8" standalone="no"?>
<!-- Created with Inkscape (http://www.inkscape.org/) -->

<svg
   version="1.1"
   id="svg1"
   width="741.39178"
   height="272.95367"
   viewBox="0 0 741.39178 272.95367"
   sodipodi:docname="ISU-stacked.svg"
   inkscape:version="1.3.2 (091e20e, 2023-11-25, custom)"
   inkscape:export-filename="ISU.svg"
   inkscape:export-xdpi="96"
   inkscape:export-ydpi="96"
   xmlns:inkscape="http://www.inkscape.org/namespaces/inkscape"
   xmlns:sodipodi="http://sodipodi.sourceforge.net/DTD/sodipodi-0.dtd"
   xmlns="http://www.w3.org/2000/svg"
   xmlns:svg="http://www.w3.org/2000/svg">
  <defs
     id="defs1" />
  <sodipodi:namedview
     id="namedview1"
     pagecolor="#ffffff"
     bordercolor="#000000"
     borderopacity="0.25"
     inkscape:showpageshadow="2"
     inkscape:pageopacity="0.0"
     inkscape:pagecheckerboard="0"
     inkscape:deskcolor="#d1d1d1"
     showgrid="false"
     inkscape:zoom="1.1952198"
     inkscape:cx="325.04482"
     inkscape:cy="137.63159"
     inkscape:window-width="1920"
     inkscape:window-height="1001"
     inkscape:window-x="-9"
     inkscape:window-y="-9"
     inkscape:window-maximized="1"
     inkscape:current-layer="g1" />
  <g
     inkscape:groupmode="layer"
     inkscape:label="Image"
     id="g1"
     transform="translate(17.461273,16.768156)">
    <rect
       style="fill:#ffffff"
       id="rect4"
       width="741.39178"
       height="272.95367"
       x="-17.461273"
       y="-16.768156" />
    <g
       id="g2">
      <path
         style="fill:#fefefe"
         d="m 0,206.0304 c 0,-31.41181 0.02710612,-32.98578 0.55999998,-32.51759 0.30799999,0.2706 4.28769612,3.74828 8.84376922,7.72818 l 8.2837688,7.23618 34.91623,0.0814 34.916229,0.0814 -9.12,2.02872 c -5.016,1.1158 -10.668,2.38786 -12.559999,2.82681 l -3.44,0.7981 v 6.53318 6.53319 h -15.36 -15.359999 v 15.84 15.84 h -15.84 H 0 Z m 125.12,17.16959 v -15.84 H 109.76 94.399996 v -9.44 -9.44 h 22.325874 22.32588 l 8.87412,-7.7536 8.87412,-7.75361 -0.0126,-26.24639 -0.0126,-26.24639 -8.70736,-7.59514 -8.70737,-7.59514 -22.47999,-0.005 -22.480004,-0.005 V 92.316894 79.353792 l 15.280004,0.0831 15.28,0.0831 0.0886,4.72 0.0885,4.72 h 15.83145 15.83144 l -2.8e-4,-11.44 -2.8e-4,-11.44 -8.85244,-7.76 -8.85244,-7.759999 H 116.74728 94.399996 v -9.44 -9.44 H 109.76 125.12 V 15.84 0 h 291.51998 291.51999 l -0.0261,42.479999 c -0.0235,38.253419 -0.073,42.257128 -0.49738,40.239999 -1.58743,-7.544952 -7.0711,-13.347388 -14.19654,-15.021768 -2.43257,-0.571622 -7.39291,-0.646042 -10.10122,-0.151548 -8.4878,1.549729 -14.82547,7.637235 -17.29606,16.613316 -0.79307,2.881389 -0.798,9.88764 -0.009,12.799999 3.86312,14.259493 19.13751,20.988903 34.46661,15.184893 2.31052,-0.87483 6.30952,-3.22723 6.78092,-3.98885 0.21839,-0.35286 -0.25051,-1.49976 -1.73086,-4.23357 -1.11672,-2.06228 -2.12368,-3.7525 -2.23769,-3.75604 -0.11401,-0.004 -1.12445,0.55076 -2.24543,1.23177 -5.71584,3.4725 -12.39861,4.20696 -17.06728,1.87577 -3.73472,-1.86485 -6.0127,-4.996911 -6.85712,-9.428075 l -0.25804,-1.354103 15.63766,-0.0859 15.63766,-0.0859 -8e-5,73.360008 -8e-5,73.35998 H 416.63998 125.12 Z m 526.07998,-16.98808 c 4.86938,-1.44939 8.7362,-4.6794 11.076,-9.25192 0.72049,-1.408 5.02561,-12.09453 9.56693,-23.74786 l 8.25696,-21.18787 2.58519,-0.0921 2.58518,-0.0921 0.87309,-4 c 0.4802,-2.2 0.87839,-4.108 0.88487,-4.24 0.006,-0.132 -5.60423,-0.24 -12.46823,-0.24 h -12.48 v 4.30952 4.30952 l 3.46053,0.0905 3.46053,0.0905 -3.95804,11.04 c -2.17691,6.072 -4.28914,12.17453 -4.69383,13.56118 l -0.73581,2.52119 -0.2186,-1.64795 c -0.1618,-1.21966 -6.59533,-19.80095 -8.68169,-25.07442 -0.2,-0.50551 0.0309,-0.56 2.37268,-0.56 h 2.59424 v -4.3245 -4.32449 l -10.16,0.0845 -10.16,0.0845 -0.86603,3.84 c -0.47632,2.112 -0.87232,4.02 -0.88,4.24 -0.0101,0.28919 0.72651,0.4 2.65904,0.4 h 2.67302 l 7.69254,18.91176 7.69254,18.91176 -1.26451,2.5264 c -2.57939,5.15348 -7.26505,6.65857 -12.92922,4.15304 -0.78688,-0.34808 -1.5357,-0.61403 -1.66404,-0.59101 -0.23976,0.043 -3.59334,7.40939 -3.59334,7.89303 0,0.42345 4.13436,2.15934 6.08,2.5528 0.968,0.19575 2.048,0.42224 2.4,0.5033 1.20748,0.27807 6.08039,-0.12542 7.84,-0.64917 z m -374.8919,-17.87328 c 4.13158,-1.23208 6.97938,-2.84092 9.81711,-5.54609 2.81045,-2.67916 4.23605,-5.10078 5.60699,-9.52446 l 0.88885,-2.86808 0.10673,-17.84 0.10673,-17.84 h 3.83178 3.83178 l -0.089,-4.4 -0.089,-4.4 h -13.28 -13.28 l -0.089,4.4 -0.089,4.4 h 3.86939 3.8694 l -0.12383,16.88 c -0.13054,17.79548 -0.16755,18.26507 -1.6709,21.2 -2.2695,4.43066 -6.74155,6.61581 -12.94915,6.32727 -6.21957,-0.28911 -9.90432,-2.64646 -11.95208,-7.64646 -0.69249,-1.69084 -0.70639,-2.026 -0.79763,-19.24081 l -0.0929,-17.52 h 3.69286 3.69286 v -4.48 -4.48 h -13.28 -13.28 v 4.48 4.48 h 3.66055 3.66056 l 0.11458,17.84 c 0.11015,17.1512 0.14145,17.93637 0.81048,20.33615 2.25779,8.09847 8.35302,13.76991 16.87383,15.70059 1.232,0.27915 2.528,0.57539 2.88,0.6583 0.352,0.0829 2.944,0.10308 5.76,0.0448 4.42803,-0.0916 5.50762,-0.22154 7.98809,-0.96123 z m 197.9319,0.47803 c 3.45602,-0.77441 6.72327,-2.13376 9.59738,-3.99301 l 2.25994,-1.46195 -0.53591,-1.04085 c -0.68576,-1.3319 -3.68499,-6.76681 -3.81188,-6.90751 -0.0529,-0.0587 -1.06988,0.4806 -2.25995,1.19837 -4.11943,2.48454 -7.3989,3.36457 -11.81798,3.1713 -2.63226,-0.11513 -3.22467,-0.26111 -5.37758,-1.32514 -1.52241,-0.75241 -2.85585,-1.69667 -3.5965,-2.54681 -1.48823,-1.70825 -2.94841,-4.75754 -3.21718,-6.71841 L 455.27299,167.68 h 15.52504 15.52503 l 0.15768,-2 c 0.23621,-2.9962 -0.29088,-7.2899 -1.25185,-10.19747 -1.95789,-5.92398 -5.95276,-9.9949 -11.78891,-12.01336 -2.30739,-0.79802 -2.98627,-0.88507 -6.88,-0.88217 -4.88547,0.004 -7.05815,0.45363 -10.72,2.22027 -5.58385,2.6939 -9.64941,7.83945 -11.38652,14.41129 -0.94095,3.5598 -0.94943,9.54382 -0.0185,13.03319 2.27325,8.52036 8.89133,14.82556 17.48497,16.65834 3.25589,0.69439 8.9985,0.65084 12.32,-0.0934 z m -18.56,-28.61367 c 0,-1.22157 2.15976,-5.18624 3.4353,-6.30618 3.14386,-2.76035 7.71678,-3.47316 10.96091,-1.70856 1.0278,0.55906 2.13117,1.50773 2.75852,2.37175 1.01298,1.39512 2.04527,4.27254 2.04527,5.70099 V 160.96 h -9.6 -9.6 z m 101.25664,28.46174 c 4.78185,-1.32644 8.69927,-4.16477 10.3292,-7.48391 0.81433,-1.65827 0.89416,-2.13507 0.89416,-5.34082 0,-3.20225 -0.0776,-3.66709 -0.85973,-5.14937 -1.14988,-2.17925 -3.96129,-4.68612 -6.76693,-6.03393 -1.26134,-0.60594 -4.62762,-1.87865 -7.48062,-2.82826 -7.17302,-2.3875 -8.89272,-3.64615 -8.89272,-6.50859 0,-2.67118 2.93008,-4.20575 7.38682,-3.86869 3.93093,0.29729 5.57318,1.65042 5.57318,4.59199 V 157.76 h 4.8 4.8 v -3.73897 c 0,-3.12589 -0.10851,-3.96311 -0.66174,-5.10594 -1.21493,-2.50972 -3.94642,-4.31246 -8.51928,-5.62261 -3.2848,-0.94111 -10.32209,-1.0202 -13.53898,-0.15216 -4.95653,1.33747 -8.81641,4.0978 -10.2849,7.3551 -0.6255,1.38743 -0.75083,2.19737 -0.75277,4.86458 -0.002,2.84719 0.0949,3.3979 0.87921,4.99503 1.87333,3.81459 5.38493,6.11795 14.26331,9.35573 2.69767,0.98378 5.5001,2.11732 6.22762,2.51897 2.52319,1.39299 3.43004,3.83269 2.18411,5.87588 -1.1996,1.9672 -5.07385,2.96249 -9.26345,2.37977 -4.60303,-0.64022 -6.44966,-2.17587 -6.45193,-5.36538 l -0.001,-1.68 h -4.8 -4.8 v 3.45716 c 0,3.07765 0.0909,3.63963 0.82825,5.11925 1.03262,2.0722 2.81306,3.62313 5.82913,5.0777 3.66763,1.76881 7.02171,2.36188 12.54262,2.21782 2.97122,-0.0775 5.32213,-0.3103 6.53664,-0.6472 z m 72.11185,-4.53665 0.0885,-4.51192 -2.58206,-0.19911 c -2.88632,-0.22258 -4.82979,-0.95269 -6.18464,-2.32339 -1.98813,-2.01141 -1.96151,-1.83142 -2.06568,-13.96546 l -0.0954,-11.1118 5.04818,-0.0882 5.04819,-0.0882 0.69078,-3.11561 c 0.37992,-1.71358 0.78569,-3.62158 0.90171,-4.24 l 0.21094,-1.12439 h -5.92744 -5.92744 l -0.0871,-6 -0.0871,-6 h -5.44 -5.44 l -0.0871,6 -0.0871,6 h -3.51294 -3.51294 v 4.32 4.32 h 3.36 3.36 v 10.85185 c 0,12.13896 0.23445,14.2891 1.92282,17.63373 1.37306,2.72002 3.63551,4.89822 6.50124,6.25915 3.24361,1.54039 5.75815,2.0253 10.13594,1.95465 l 3.68,-0.0594 z m -300.79919,0.11191 -0.0893,-4.24 -3.12,-0.0916 -3.12,-0.0916 v -7.12118 c 0,-7.69092 0.24597,-9.42137 1.79324,-12.61557 1.06551,-2.19965 3.51963,-4.8557 5.45816,-5.90729 3.65382,-1.98207 8.12625,-1.83513 10.29976,0.33838 2.06334,2.06334 2.06743,2.09831 2.20723,18.84884 l 0.12618,15.11999 h 8.75615 c 8.06092,0 8.76968,-0.0445 8.9266,-0.56 0.48476,-1.59269 1.68313,-7.76287 1.53623,-7.90978 -0.0936,-0.0936 -1.93461,-0.17022 -4.09108,-0.17022 H 353.0116 L 352.87489,167.28 c -0.11646,-10.7004 -0.21894,-12.8417 -0.69212,-14.46258 -1.65401,-5.66576 -4.86532,-8.85574 -10.01306,-9.94655 -4.52898,-0.95969 -9.62407,-0.28675 -13.50981,1.78433 -2.2242,1.18549 -5.06013,3.81217 -6.4044,5.93187 l -0.97551,1.53823 v -2.54765 c 0,-3.0891 -0.61094,-4.4475 -2.42932,-5.4015 -1.12845,-0.59202 -1.93092,-0.66616 -8.21068,-0.75853 l -6.96,-0.10237 V 147.65762 152 h 2.976 c 1.888,0 3.11639,0.14038 3.36,0.384 0.28656,0.28656 0.384,3.81866 0.384,13.92 v 13.53599 h -3.2 -3.2 v 4.32 4.32 h 12.16929 12.16928 z m 60.47999,0 -0.0893,-4.24 -3.11737,-0.0915 -3.11736,-0.0916 -0.0826,-18.14844 -0.0826,-18.14844 -9.04,-0.085 -9.04,-0.085 v 4.325 V 152 h 3.36 3.36 v 13.90598 13.90598 l -2.31528,0.094 -2.31528,0.094 -0.87295,4 c -0.48012,2.2 -0.87824,4.108 -0.88472,4.24 -0.006,0.132 5.46441,0.24 12.15751,0.24 h 12.16929 z m 40.70916,-13.98838 6.83657,-18.22837 2.72386,-0.0916 2.72387,-0.0916 0.86527,-4 c 0.4759,-2.2 0.79978,-4.108 0.71974,-4.24 -0.08,-0.132 -5.31253,-0.24 -11.62776,-0.24 -6.31522,0 -11.54056,0.108 -11.61185,0.24 -0.0713,0.132 -0.0624,2.076 0.0197,4.32 l 0.14937,4.08 h 2.38294 c 2.32501,0 2.37742,0.0175 2.15628,0.72 -0.12465,0.396 -1.93478,5.544 -4.02251,11.44 -2.08772,5.896 -3.96668,11.63277 -4.17546,12.74838 l -0.37959,2.02839 -0.526,-2.18839 c -0.2893,-1.20361 -2.27805,-7.1992 -4.41946,-13.32353 -2.1414,-6.12432 -3.89346,-11.20032 -3.89346,-11.28 0,-0.0797 1.08,-0.14485 2.4,-0.14485 h 2.4 v -4.32426 -4.32426 l -10.8,0.0843 -10.79999,0.0843 v 4.16 4.16 l 2.73055,0.0914 2.73055,0.0914 6.05058,16.22855 c 3.32781,8.92571 6.39706,17.12855 6.82055,18.22855 l 0.76998,2 h 6.46983 6.46983 z m 89.53084,13.98838 -0.0893,-4.24 -4.11456,-0.0898 -4.11457,-0.0898 0.13359,-7.11018 c 0.1257,-6.69068 0.18334,-7.24954 0.97705,-9.47205 2.21338,-6.19784 6.02088,-9.0984 11.99764,-9.13984 l 2.63915,-0.0183 8.5e-4,-5.5055 8.5e-4,-5.5055 -1.06793,-0.20035 c -1.63048,-0.30588 -4.60146,0.36427 -7.13836,1.61017 -2.82864,1.38917 -5.41085,4.06268 -6.9026,7.14668 l -1.05111,2.17301 v -3.37926 c 0,-3.97923 -0.51037,-5.22277 -2.56891,-6.25925 -1.13208,-0.57001 -2.03226,-0.6512 -8.23109,-0.74238 l -6.96,-0.10237 V 147.65762 152 h 2.976 c 1.888,0 3.11639,0.14038 3.36,0.384 0.28655,0.28655 0.384,3.81609 0.384,13.90841 v 13.52441 l -3.12,0.0916 -3.12,0.0916 -0.0893,4.24 -0.0893,4.24 h 13.13857 13.13858 z m 81.67071,-0.08 v -4.32 h -3.99736 -3.99736 l -0.0826,-18.15999 -0.0826,-18.16 h -9.12 -9.12 l -0.10807,1.28 c -0.0594,0.704 -0.01,2.612 0.10986,4.24 l 0.21794,2.96 h 3.33013 3.33014 v 13.92 13.91999 h -3.2 -3.2 v 4.32 4.32 h 12.96 12.96 z M 382.23999,130.88 v -4.96 l -5.68,-0.0874 -5.68,-0.0874 v 5.13477 5.13476 l 5.68,-0.0874 5.68,-0.0874 z m 210.23999,0 v -4.96 l -5.68,-0.0874 -5.68,-0.0874 v 5.13477 5.13476 l 5.68,-0.0874 5.68,-0.0874 z M 289.21006,113.75663 c 3.64021,-0.85823 6.98819,-3.01117 8.9821,-5.77598 l 1.16783,-1.61934 0.0111,1.85071 c 0.0126,2.10937 0.64288,3.21982 2.42238,4.26798 0.9846,0.57994 1.76965,0.64953 8.36655,0.74163 l 7.28,0.10163 V 108.98163 104.64 h -3.33714 c -2.6071,0 -3.44715,-0.11001 -3.84,-0.50286 -0.44906,-0.44906 -0.50286,-3.34199 -0.50286,-27.039999 V 50.559999 h -9.12 c -5.016,0 -9.12,0.07445 -9.12,0.165434 0,0.09099 -0.36,1.83051 -0.8,3.865601 -0.44,2.035091 -0.8,3.904646 -0.8,4.154565 0,0.370093 0.8015,0.454399 4.32,0.454399 h 4.32 v 6.928711 6.92871 l -1.91013,-1.821954 c -3.22614,-3.07722 -6.75508,-4.223119 -12.21641,-3.966858 -10.69143,0.501671 -17.85434,8.048113 -19.16133,20.187286 -0.61741,5.734482 0.29298,11.341441 2.63426,16.224107 1.03091,2.14992 1.81454,3.22437 3.73894,5.12651 1.33907,1.32359 3.18212,2.80392 4.09566,3.28963 3.69706,1.96564 9.2639,2.65193 13.46908,1.66049 z m -5.10776,-9.60318 c -1.97271,-0.63199 -4.79827,-3.22998 -5.8493,-5.378207 -1.65699,-3.386769 -2.16488,-8.073971 -1.31127,-12.101319 0.89214,-4.209071 2.92337,-7.054808 6.1799,-8.657994 1.88752,-0.929222 2.45291,-1.055755 4.71163,-1.054455 2.16225,0.0012 2.85539,0.142994 4.39849,0.899503 3.32153,1.628393 5.41756,4.96368 6.26027,9.961608 0.56632,3.358684 0.25612,6.795248 -0.88984,9.858095 -0.91349,2.441519 -3.30574,5.047339 -5.51576,6.008159 -2.14347,0.9319 -5.85188,1.1477 -7.98412,0.46461 z m 54.76466,9.58769 c 3.5802,-0.8143 6.96827,-3.14761 9.087,-6.25808 l 1.00603,-1.47693 v 2.01347 c 0,2.28758 0.59446,3.37719 2.43345,4.4604 0.94903,0.559 1.77994,0.65339 6.56538,0.7458 l 5.47883,0.10581 0.21365,-0.85126 c 0.41672,-1.66031 1.46869,-6.95753 1.46869,-7.39558 0,-0.34206 -0.58216,-0.44477 -2.52082,-0.44477 -1.63504,0 -2.63823,-0.14148 -2.85497,-0.40263 -0.2131,-0.25676 -0.38252,-4.632976 -0.46767,-12.079998 -0.10735,-9.388397 -0.23193,-12.006313 -0.63557,-13.355477 -1.81517,-6.067245 -5.96166,-9.785016 -12.4497,-11.162481 -3.56973,-0.757885 -10.10017,-0.454418 -13.87127,0.644593 -2.80631,0.817841 -8.46045,3.401274 -9.08128,4.149328 -0.21182,0.255238 0.34545,1.606855 1.76169,4.272824 l 2.07152,3.89949 1.49031,-0.945124 c 3.53027,-2.238829 9.19342,-3.741559 12.55776,-3.332227 4.53014,0.551173 6.69799,2.847778 6.71297,7.1117 l 0.007,2 h -3.8082 c -4.12331,0 -9.86835,0.833045 -12.83324,1.86085 -5.0773,1.760094 -8.29839,4.239622 -10.00135,7.69882 -0.98208,1.994885 -1.03673,2.294328 -1.02811,5.633602 0.0112,4.33066 0.70173,6.35733 3.03665,8.9121 3.58278,3.92013 9.68513,5.555 15.66122,4.19577 z m -4.49664,-8.88361 c -1.86913,-0.98401 -2.94176,-2.87465 -2.94176,-5.185202 0,-3.985222 3.57177,-6.373522 10.71881,-7.167239 4.44649,-0.493805 5.67076,-0.454385 5.91825,0.190561 0.35909,0.93578 -0.51169,4.85535 -1.52435,6.861419 -1.19172,2.360781 -3.15212,4.379021 -5.1778,5.330561 -2.11256,0.99236 -5.07521,0.9796 -6.99315,-0.0301 z m 124.1809,8.42345 c 10.5832,-3.02155 17.28876,-11.77198 17.28876,-22.560983 0,-9.120736 -4.69614,-16.79081 -12.71394,-20.765327 -4.44838,-2.205113 -7.89319,-2.900408 -13.29273,-2.682987 -3.28856,0.13242 -4.39867,0.320696 -6.95333,1.179297 -4.17099,1.401839 -7.06261,3.179576 -9.9404,6.11126 -4.36547,4.447223 -6.38363,9.553341 -6.37487,16.128945 0.006,4.29584 0.55968,6.844389 2.23201,10.268815 3.36527,6.89106 9.67672,11.47357 17.86914,12.97412 2.58742,0.47393 9.21301,0.10983 11.88536,-0.65314 z m -10.80807,-9.13979 c -3.11608,-0.83867 -5.60247,-2.61079 -7.36377,-5.248361 -1.78121,-2.667378 -2.41172,-5.261301 -2.23136,-9.179773 0.16658,-3.618979 0.89264,-5.595402 3.03921,-8.273058 3.12735,-3.901107 9.05618,-5.574985 14.22898,-4.017252 1.99857,0.601847 4.97963,2.828938 6.35204,4.745485 3.21155,4.484871 3.45181,11.686585 0.54321,16.28203 -3.10787,4.910279 -8.96609,7.198719 -14.56831,5.690929 z m 84.85784,9.16896 c 7.36596,-1.94287 12.26462,-6.32788 14.15428,-12.67015 0.85511,-2.870023 0.78853,-7.702437 -0.14396,-10.448905 -2.01899,-5.946528 -6.1231,-9.060957 -17.65133,-13.394818 -6.41127,-2.410216 -8.61554,-3.542347 -10.43023,-5.357035 -3.0192,-3.019201 -2.6944,-7.832775 0.67261,-9.968067 2.08168,-1.320165 4.17467,-1.742597 7.71611,-1.557357 2.52683,0.13217 3.3204,0.31531 5.04485,1.164254 2.53618,1.248558 3.07666,2.206019 3.07666,5.450287 v 2.271639 h 5.30753 5.30753 l -0.10753,-5.2 c -0.10306,-4.98372 -0.14362,-5.261394 -0.9753,-6.676111 -2.49096,-4.237228 -8.74773,-6.880635 -17.12483,-7.235026 -4.72147,-0.19974 -7.81734,0.170893 -11.28819,1.351407 -7.74807,2.635289 -11.93215,8.913395 -11.40953,17.11973 0.30766,4.830947 2.1672,8.611526 5.61858,11.423003 2.18771,1.782099 6.62482,4.023042 11.87174,5.995774 6.54535,2.460914 9.62542,4.07954 11.29362,5.934982 3.30931,3.680747 2.39173,8.822853 -1.966,11.017453 -4.0105,2.01974 -9.72869,1.95974 -14.03605,-0.14726 -2.91008,-1.4235 -3.41506,-2.29376 -3.61157,-6.223953 l -0.16,-3.2 -5.22767,-0.08806 -5.22767,-0.08806 0.10767,5.20806 c 0.0983,4.752303 0.17613,5.348073 0.89003,6.808063 1.63795,3.34975 6.08504,6.67322 10.72151,8.01257 5.52894,1.59716 12.64464,1.79859 17.57714,0.49758 z m 72.02569,0.43987 c 3.65627,-0.95234 7.31187,-3.59011 9.52092,-6.87002 0.53466,-0.79384 0.53895,-0.78521 0.55679,1.12 0.0212,2.26663 0.74737,3.68694 2.32144,4.54066 0.89023,0.48284 2.06176,0.58919 7.53415,0.68398 l 6.48,0.11224 V 108.98844 104.64 h -2.54186 c -3.7566,0 -3.53702,0.75295 -3.5437,-12.151205 -0.006,-11.908842 -0.19261,-13.557868 -1.91974,-16.979282 -2.0222,-4.005969 -5.86246,-6.775157 -10.85087,-7.824501 -4.96138,-1.043659 -12.12655,-0.378834 -17.14799,1.591086 -2.59766,1.019071 -6.23584,3.04396 -6.23584,3.470665 0,0.375917 3.83292,7.573235 4.03311,7.573235 0.0826,0 1.62091,-0.714325 3.41852,-1.587389 5.84752,-2.840038 10.8896,-3.246826 14.44173,-1.165139 1.76742,1.035777 2.76051,2.967192 2.98895,5.813088 l 0.16531,2.05944 h -3.70066 c -6.49337,0 -11.98637,1.074839 -16.44323,3.217517 -3.33395,1.60283 -5.54398,3.716249 -6.91676,6.614398 -0.95229,2.010418 -1.02499,2.400792 -0.99967,5.368087 0.0316,3.70507 0.70247,5.86336 2.56599,8.25527 3.34769,4.29691 10.371,6.39213 16.27341,4.85475 z m -4.30368,-8.74371 c -3.33717,-1.78974 -4.24958,-6.147618 -1.85754,-8.872007 1.927,-2.194726 5.74197,-3.437517 11.74674,-3.826703 l 3.6376,-0.235762 -0.15401,2.399754 c -0.2772,4.319406 -2.9245,8.568538 -6.42522,10.313028 -2.07059,1.03181 -5.24796,1.1332 -6.94757,0.22169 z m -18.95458,3.73369 0.0884,-4.7 h -2.05997 c -4.59411,0 -7.51963,-1.87056 -8.51178,-5.442361 -0.18465,-0.664745 -0.32232,-5.551651 -0.32335,-11.477641 l -0.002,-10.32 h 4.93843 c 4.42529,0 4.95608,-0.05819 5.10816,-0.56 0.29318,-0.967307 1.79341,-7.482499 1.79341,-7.788372 0,-0.164995 -2.57064,-0.291628 -5.92,-0.291628 h -5.92 v -6.08 -6.08 h -5.6 -5.6 v 6.08 6.08 h -3.52 -3.52 v 4.32 4.32 h 3.33286 3.33287 l 0.13353,11.76 c 0.14191,12.498262 0.26901,13.639162 1.86891,16.775212 0.83056,1.62804 3.25098,4.25756 4.85459,5.27396 3.14191,1.99142 7.21806,2.96542 12.07724,2.88585 l 3.36,-0.055 z m 79.03999,0 0.0884,-4.7 h -2.05998 c -4.5941,0 -7.51963,-1.87056 -8.51177,-5.442361 -0.18463,-0.664658 -0.32233,-5.54897 -0.32335,-11.469516 l -0.002,-10.311874 5.00937,-0.08813 5.00937,-0.08813 0.89311,-3.84 c 0.49121,-2.112 0.901,-4.02 0.91063,-4.24 0.0134,-0.306217 -1.37048,-0.4 -5.90248,-0.4 h -5.92 v -6.08 -6.08 h -5.6 -5.6 v 6.08 6.08 h -3.52 -3.52 v 4.32 4.32 h 3.33286 3.33287 l 0.13352,11.76 c 0.14191,12.498261 0.26902,13.639161 1.86891,16.775211 0.83057,1.62804 3.25099,4.25756 4.8546,5.27396 3.14191,1.99142 7.21806,2.96542 12.07724,2.88585 l 3.35999,-0.055 z m -399.28842,0.06 v -4.48 h -3.68 -3.68 v -22.400002 -22.4 h 3.68 3.68 v -4.48 -4.479999 h -13.28 -13.28 v 4.479999 4.48 h 3.68 3.68 v 22.4 V 104.32 h -3.68 -3.68 v 4.48 4.48 h 13.28 13.28 z m 132,0.16 v -4.16 l -3.28,-0.0912 -3.28,-0.0912 v -6.045652 c 0,-9.271888 0.64544,-12.527878 3.18702,-16.077149 2.40574,-3.359585 6.63606,-5.326587 10.66909,-4.960885 2.43989,0.221241 4.06092,1.285355 5.06512,3.324959 l 0.75876,1.541115 0.0944,15.439999 0.0944,15.440003 h 8.94565 8.94564 v -4.32 -4.32 h -3.16384 -3.16384 l -0.16132,-12.240003 c -0.13014,-9.873692 -0.26234,-12.636084 -0.68383,-14.288795 -1.50036,-5.883057 -5.30677,-9.575392 -10.96034,-10.631865 -3.01948,-0.564244 -7.87902,-0.193303 -10.4676,0.799017 -3.54994,1.360856 -7.19818,4.304707 -8.7761,7.081644 -0.2763,0.486257 -0.366,-2.415642 -0.37339,-12.08 l -0.01,-12.719999 h -9.06966 -9.06966 l -0.85488,4.079999 c -0.47018,2.244 -0.85283,4.188 -0.85034,4.32 0.002,0.132 1.94854,0.24 4.32454,0.24 h 4.32 V 81.908793 104.6176 l -3.26122,0.0912 -3.26122,0.0912 -0.88145,4 c -0.4848,2.2 -0.88925,4.10961 -0.89878,4.24359 -0.01,0.13397 5.85067,0.20597 13.02267,0.16 l 13.04,-0.0836 z M 31.679999,154.88 v -4.8 h -15.84 H 0 v -15.69889 c 0,-10.39468 0.10822475,-15.632 0.32031356,-15.50092 0.17617246,0.10888 4.09566164,3.50138 8.70997604,7.53889 L 17.419952,133.76 h 35.034022 c 20.944836,0 34.911767,0.1166 34.730023,0.28994 -0.1672,0.15946 -5.272,1.38979 -11.344,2.73406 -6.072,1.34426 -11.579999,2.58734 -12.239999,2.76239 l -1.2,0.31827 v 9.90767 9.90767 h -15.36 -15.359999 z m 62.719997,-8.16 V 133.76 H 116.32 c 12.056,0 21.91702,0.108 21.91337,0.24 -0.004,0.132 -2.95564,1.45957 -6.56,2.95015 L 125.12,139.66031 V 149.67015 159.68 H 109.76 94.399996 Z M 31.826124,104.87923 c -0.08458,-0.22042 -0.116064,-6.016419 -0.06996,-12.879998 l 0.08383,-12.479234 27.81511,-0.08178 c 15.298311,-0.04498 27.712846,0.02049 27.587857,0.145475 -0.124989,0.124989 -5.729788,1.457789 -12.45511,2.961777 L 62.559998,85.279998 62.475439,95.279997 62.39088,105.28 H 47.185396 c -11.884681,0 -15.23907,-0.0875 -15.359272,-0.40077 z M 677.583,84.003192 c 0.9593,-3.187495 3.09931,-5.813618 5.75892,-7.067066 4.45858,-2.10128 9.34558,-0.866169 11.5663,2.923196 0.71089,1.213054 1.70481,4.287136 1.72675,5.340676 0.003,0.132 -4.38011,0.24 -9.73969,0.24 h -9.74469 z M 0,33.009595 V 0 h 15.839999 15.84 v 15.84 15.839999 h 15.359999 15.36 v 9.44 9.44 H 40.032065 17.664132 L 9.3920658,57.800407 C 4.8424296,61.782632 0.86799997,65.26095 0.55999998,65.530003 0.02712431,65.995496 0,64.420328 0,33.009595 Z"
         id="path4"
         inkscape:export-filename="ISU.svg"
         inkscape:export-xdpi="96"
         inkscape:export-ydpi="96" />
      <path
         style="fill:#f3781f"
         d="m 31.679999,223.19999 v -15.84 h 15.359999 15.36 v -6.53319 -6.53318 l 3.44,-0.7981 c 1.891999,-0.43895 7.543999,-1.71101 12.559999,-2.82681 l 9.12,-2.02872 -34.912578,-0.0814 -34.912578,-0.0814 L 8.8474207,180.74342 0,173.00966 V 161.54483 150.08 h 15.839999 15.84 v 4.8 4.8 h 15.359999 15.36 v -9.90767 -9.90767 l 1.2,-0.31827 c 0.66,-0.17505 6.167999,-1.41813 12.239999,-2.76239 6.072,-1.34427 11.1768,-2.5746 11.344,-2.73406 C 87.365741,133.8766 73.400389,133.76 52.457899,133.76 H 17.427802 L 8.7187927,126.16 0.00978335,118.56 0.00489168,92.300335 0,66.040673 8.8365509,58.300336 17.673102,50.559999 H 40.03655 62.399998 v -9.44 -9.44 h -15.36 -15.359999 V 15.84 0 H 78.399997 125.12 V 15.84 31.679999 H 109.76 94.399996 v 9.44 9.44 h 22.347284 22.34727 l 8.85244,7.759999 8.85244,7.76 2.8e-4,11.44 2.8e-4,11.44 H 140.96855 125.1371 l -0.0885,-4.72 -0.0886,-4.72 -15.28,-0.0831 -15.280004,-0.0831 V 92.316894 105.28 l 22.480004,0.005 22.47999,0.005 8.70737,7.59514 8.70736,7.59514 0.0126,26.24639 0.0126,26.24639 -8.87412,7.75361 -8.87412,7.7536 H 116.72587 94.399996 v 9.44 9.44 H 109.76 125.12 v 15.84 15.84 H 78.399997 31.679999 Z M 125.12,149.67015 v -10.00984 l 6.55337,-2.71016 c 3.60436,-1.49058 6.55636,-2.81815 6.56,-2.95015 0.004,-0.132 -9.85737,-0.24 -21.91337,-0.24 H 94.399996 v 12.96 12.96 H 109.76 125.12 Z M 62.475439,95.279997 62.559998,85.279998 74.787856,82.545472 C 81.513178,81.041484 87.117977,79.708684 87.242966,79.583695 87.367955,79.458706 74.95342,79.393242 59.655109,79.43822 L 31.839999,79.52 31.756169,91.999234 c -0.04611,6.863579 -0.01463,12.659576 0.06996,12.879996 0.120202,0.31324 3.474591,0.40077 15.359272,0.40077 H 62.39088 Z M 644.09998,206.8214 c 0.231,-0.0924 0.507,-0.0811 0.61333,0.0253 0.10633,0.10633 -0.0827,0.18197 -0.42,0.16807 -0.37278,-0.0153 -0.44861,-0.0912 -0.19333,-0.19333 z m 2.88,0 c 0.231,-0.0924 0.507,-0.0811 0.61333,0.0253 0.10633,0.10633 -0.0827,0.18197 -0.42,0.16807 -0.37278,-0.0153 -0.44861,-0.0912 -0.19333,-0.19333 z m -128.19204,-22.89184 -0.068,-3.75044 -4.08,-0.10002 -4.08,-0.10001 4.09004,-0.0696 c 3.13392,-0.0533 4.12777,0.0288 4.25143,0.35102 0.0888,0.23131 0.11483,1.99531 0.0579,3.92 l -0.10347,3.49943 z m 28.99204,-3.34816 c 0.231,-0.0924 0.507,-0.0811 0.61333,0.0253 0.10634,0.10633 -0.0827,0.18197 -0.42,0.16807 -0.37278,-0.0154 -0.44861,-0.0912 -0.19333,-0.19333 z m -190.81999,-0.42141 -4.16,-0.18933 4.06111,-0.0653 c 2.43541,-0.0392 4.14029,0.0628 4.25889,0.25466 0.10877,0.176 0.15327,0.29061 0.0989,0.25467 -0.0544,-0.0359 -1.97088,-0.15053 -4.25888,-0.25467 z m 9.32856,-0.08 c 0.0821,-0.132 1.14719,-0.24 2.36696,-0.24 h 2.21775 L 370.96167,166 l 0.0884,-13.84 -0.005,13.92 -0.005,13.91999 -2.45032,0.16 c -1.34768,0.088 -2.38318,0.052 -2.30112,-0.08 z m -59.1721,-0.1526 3.27646,-0.10971 0.089,-13.18884 0.089,-13.18884 -0.005,13.28 -0.005,13.27999 -3.36,0.0186 -3.36,0.0186 z m 14.62601,-0.17769 c -0.0866,-0.22566 -0.11462,-3.06966 -0.0623,-6.32 l 0.0952,-5.9097 0.0723,6.14841 0.0723,6.14841 3.12,0.10461 3.12,0.10462 -3.13005,0.067 c -2.30092,0.0492 -3.17174,-0.0417 -3.28748,-0.34332 z m 60.55086,0.19696 c -0.11733,-0.11733 -0.21333,-8.32309 -0.21333,-18.23501 v -18.02169 l -9.04,-0.0927 -9.04,-0.0927 9.12,0.008 9.12,0.008 0.0826,18.14844 0.0826,18.14844 3.11736,0.10459 3.11737,0.10458 -3.06667,0.067 c -1.68667,0.0368 -3.16267,-0.029 -3.28,-0.14636 z m 85.79039,-0.013 c 0.39806,-0.0765 0.97406,-0.0736 1.28,0.006 0.30595,0.0801 -0.0197,0.14272 -0.72373,0.13917 -0.704,-0.004 -0.95432,-0.0691 -0.55627,-0.14563 z m 28.07203,-0.007 3.03724,-0.10989 0.0889,-13.34845 0.0889,-13.34845 -0.005,13.44 -0.005,13.43999 -3.12074,0.0183 -3.12075,0.0183 z m 80.08424,-0.003 c 0.924,-0.0646 2.436,-0.0646 3.36,0 0.924,0.0646 0.168,0.11753 -1.68,0.11753 -1.848,0 -2.604,-0.0529 -1.68,-0.11753 z m 16.29333,0.0226 c -0.11733,-0.11733 -0.21333,-8.32533 -0.21333,-18.24 V 143.68 h -8.94754 -8.94754 l -0.11347,2.8 -0.11346,2.8 0.021,-2.88 0.021,-2.88 h 9.12 9.12 l 0.0826,18.15045 0.0826,18.15046 4.07737,0.1 4.07736,0.1 -4.02667,0.0695 c -2.21467,0.0383 -4.12267,-0.0265 -4.24,-0.14379 z M 606.7705,173.76 c 0,-0.44 0.0726,-0.62 0.16141,-0.4 0.0888,0.22 0.0888,0.58 0,0.8 -0.0888,0.22 -0.16141,0.04 -0.16141,-0.4 z m 11.29201,-11.84 c 0,-5.544 0.0436,-7.812 0.0969,-5.04 0.0533,2.772 0.0533,7.308 0,10.08 -0.0533,2.772 -0.0969,0.504 -0.0969,-5.04 z m -376.11726,5.89333 c 0.0154,-0.37278 0.0912,-0.44861 0.19334,-0.19333 0.0924,0.231 0.0811,0.507 -0.0253,0.61333 -0.10633,0.10633 -0.18196,-0.0827 -0.16807,-0.42 z m 39.04,-0.96 c 0.0154,-0.37278 0.0912,-0.44861 0.19334,-0.19333 0.0924,0.231 0.0811,0.507 -0.0253,0.61333 -0.10633,0.10633 -0.18196,-0.0827 -0.16807,-0.42 z M 443.61151,165.92 c 0.002,-0.88 0.0645,-1.20202 0.1381,-0.7156 0.0735,0.48642 0.0716,1.20642 -0.004,1.6 -0.076,0.39358 -0.13613,-0.004 -0.13373,-0.8844 z M 253.5885,150.72 c 0,-8.888 0.0411,-12.524 0.0912,-8.08 0.0502,4.444 0.0502,11.716 0,16.16 -0.0502,4.444 -0.0912,0.808 -0.0912,-8.08 z m 232.87387,12.96 c 0.007,-0.528 0.0782,-0.70526 0.15937,-0.39391 0.0811,0.31135 0.0758,0.74335 -0.0119,0.96 -0.0876,0.21665 -0.15404,-0.0381 -0.14751,-0.56609 z m -144.99712,-3.86667 c 0.0154,-0.37278 0.0912,-0.44861 0.19333,-0.19333 0.0924,0.231 0.0811,0.507 -0.0253,0.61333 -0.10633,0.10633 -0.18196,-0.0827 -0.16807,-0.42 z M 352.70237,157.6 c 0.007,-0.528 0.0782,-0.70526 0.15937,-0.39391 0.0811,0.31135 0.0758,0.74335 -0.0118,0.96 -0.0877,0.21665 -0.15404,-0.0381 -0.14752,-0.56609 z m 206.73761,-0.0779 c 1.364,-0.06 3.596,-0.06 4.96,0 1.364,0.06 0.248,0.10906 -2.48,0.10906 -2.728,0 -3.844,-0.0491 -2.48,-0.10906 z M 510.1824,150.4 c 0,-1.144 0.0581,-1.612 0.12907,-1.04 0.071,0.572 0.071,1.508 0,2.08 -0.071,0.572 -0.12907,0.104 -0.12907,-1.04 z m -119.63735,-2.79952 0.0149,-4.08048 10.71999,-0.006 10.72,-0.006 -10.63047,0.0906 -10.63047,0.0906 -0.10446,3.99624 -0.10447,3.99624 z m 74.35493,3.54092 c 0.231,-0.0924 0.507,-0.0811 0.61334,0.0253 0.10633,0.10634 -0.0827,0.18197 -0.42,0.16807 -0.37279,-0.0154 -0.44861,-0.0912 -0.19334,-0.19333 z m -44.93087,-6.8214 0.0309,-0.8 11.52,-0.006 11.52,-0.006 -11.41912,0.09 -11.41913,0.09 -0.13175,0.71603 c -0.11329,0.61571 -0.12743,0.60394 -0.10087,-0.084 z m -112.99173,-0.87897 c 1.90157,-0.0567 4.92557,-0.0565 6.72,4.8e-4 1.79443,0.0569 0.23861,0.1033 -3.45739,0.10304 -3.696,-2.6e-4 -5.16417,-0.0468 -3.26261,-0.10352 z m 188.79999,0 c 1.90157,-0.0567 4.92557,-0.0565 6.72,4.8e-4 1.79444,0.0569 0.23861,0.1033 -3.45739,0.10304 -3.696,-2.6e-4 -5.16417,-0.0468 -3.26261,-0.10352 z m 107.81558,0.004 3.43298,-0.10612 0.0976,-5.82959 0.0976,-5.82958 -0.0106,5.92 -0.0106,5.92 -3.52,0.0157 -3.52,0.0157 z m 14.46932,-0.17605 c -0.0867,-0.22592 -0.11463,-2.99792 -0.0621,-6.16 l 0.0955,-5.74924 0.0721,5.99294 0.0721,5.99293 6,0.0946 6,0.0946 -6.01005,0.0725 c -4.65001,0.0561 -6.04571,-0.0205 -6.16766,-0.33826 z m 22.51786,0.17123 c 2.87108,-0.0531 7.47908,-0.053 10.24,2.4e-4 2.76091,0.0532 0.41185,0.0967 -5.22015,0.0965 -5.632,-1.3e-4 -7.89094,-0.0437 -5.01985,-0.0968 z m 27.65984,-7e-5 c 3.476,-0.0517 9.164,-0.0517 12.64,0 3.476,0.0517 0.632,0.0939 -6.32,0.0939 -6.952,0 -9.796,-0.0423 -6.32,-0.0939 z m -144.47626,-0.62673 c 0.39805,-0.0765 0.97405,-0.0736 1.28,0.006 0.30595,0.0801 -0.0197,0.14272 -0.72373,0.13917 -0.704,-0.004 -0.95432,-0.0691 -0.55627,-0.14563 z m 29.13627,-0.31227 c 0.231,-0.0924 0.507,-0.0811 0.61333,0.0253 0.10634,0.10634 -0.0827,0.18197 -0.42,0.16807 -0.37278,-0.0153 -0.44861,-0.0912 -0.19333,-0.19333 z m -170.74951,-11.53402 -0.0705,-4.87262 -5.68,-0.0952 -5.68,-0.0953 5.69004,-0.0721 c 4.41704,-0.056 5.72565,0.0207 5.84918,0.34259 0.0875,0.2281 0.11473,2.4961 0.0604,5.04 l -0.0987,4.62529 z m 210.23999,0 -0.0705,-4.87262 -5.68,-0.0952 -5.68,-0.0953 5.69004,-0.0721 c 4.41704,-0.056 5.72565,0.0207 5.84919,0.34259 0.0875,0.2281 0.11472,2.4961 0.0604,5.04 l -0.0987,4.62529 z m -318.64454,-0.64695 0.0141,-4.40043 h 13.28 13.28 l 0.0161,4 0.016,4 -0.1059,-3.92 -0.1059,-3.92 H 287.0392 273.93808 l -0.1031,4.32043 -0.10309,4.32042 z m -32.52439,-4.48015 c 3.75185,-0.0512 9.79985,-0.0512 13.44,1.5e-4 3.64015,0.0513 0.57046,0.0932 -6.82154,0.0931 -7.392,-8e-5 -10.37031,-0.0421 -6.61846,-0.0933 z M 686.33997,114.0214 c 0.231,-0.0924 0.507,-0.0811 0.61334,0.0253 0.10633,0.10634 -0.0827,0.18197 -0.42,0.16807 -0.37278,-0.0153 -0.44861,-0.0912 -0.19334,-0.19333 z m -382.39998,-0.96 c 0.231,-0.0924 0.507,-0.0811 0.61333,0.0253 0.10634,0.10634 -0.0827,0.18197 -0.42,0.16807 -0.37278,-0.0153 -0.44861,-0.0912 -0.19333,-0.19333 z m 49.6,0 c 0.231,-0.0924 0.507,-0.0811 0.61333,0.0253 0.10633,0.10634 -0.0827,0.18197 -0.42,0.16807 -0.37278,-0.0153 -0.44861,-0.0912 -0.19333,-0.19333 z m 39.54433,-4.1014 c 5.6e-4,-2.288 0.0515,-3.18201 0.11326,-1.98669 0.0617,1.19531 0.0613,3.06731 -0.001,4.16 -0.0623,1.09268 -0.11281,0.11469 -0.11225,-2.17331 z M 299.28069,108 c 0.004,-0.704 0.0691,-0.95432 0.14562,-0.55627 0.0765,0.39805 0.0736,0.97405 -0.006,1.28 -0.0801,0.30595 -0.14271,-0.0197 -0.13916,-0.72373 z m 49.37987,-1.3462 c -0.17366,-0.45607 -0.1369,-0.49282 0.17913,-0.17914 0.2187,0.21707 0.31702,0.47528 0.2185,0.5738 -0.0985,0.0985 -0.27746,-0.0791 -0.39763,-0.39466 z m -11.45684,-0.96013 c 0.39805,-0.0765 0.97405,-0.0736 1.28,0.006 0.30595,0.0801 -0.0197,0.14272 -0.72373,0.13917 -0.704,-0.004 -0.95432,-0.0691 -0.55627,-0.14563 z m 265.75626,0.006 c 0.308,-0.0805 0.812,-0.0805 1.12,0 0.308,0.0805 0.056,0.14635 -0.56,0.14635 -0.616,0 -0.868,-0.0659 -0.56,-0.14635 z M 236.41253,104.403 c 1.1069,-0.0627 2.8349,-0.0621 3.84,10e-4 1.0051,0.0633 0.0995,0.11458 -2.01254,0.11394 -2.112,-6.3e-4 -2.93436,-0.0524 -1.82746,-0.11509 z m 17.17459,-0.163 c -0.084,-0.22 -0.11552,-10.408003 -0.07,-22.640002 l 0.0828,-22.24 3.76055,-0.01592 3.76056,-0.01592 -3.68056,0.106078 -3.68055,0.106079 V 81.920004 104.2997 l 3.76,0.10134 3.76,0.10135 -3.77004,0.0688 c -2.77362,0.0506 -3.81043,-0.0369 -3.92283,-0.33119 z m 164.1563,-10.160003 c 0,-5.895999 0.0432,-8.307999 0.096,-5.359999 0.0528,2.947999 0.0528,7.771999 0,10.719999 -0.0528,2.948003 -0.096,0.536 -0.096,-5.36 z m 160.41656,10.028073 c 0.22,-0.0888 0.58,-0.0888 0.8,0 0.22,0.0888 0.04,0.1614 -0.4,0.1614 -0.44,0 -0.62,-0.0726 -0.4,-0.1614 z m 1.76609,-0.01 c 0.31135,-0.0811 0.74335,-0.0758 0.96,0.0119 0.21665,0.0876 -0.0381,0.15403 -0.56609,0.14751 -0.528,-0.007 -0.70526,-0.0782 -0.39391,-0.15937 z m 77.27391,0.01 c 0.22,-0.0888 0.58,-0.0888 0.8,0 0.22,0.0888 0.04,0.1614 -0.4,0.1614 -0.44,0 -0.62,-0.0726 -0.4,-0.1614 z m 1.76609,-0.01 c 0.31134,-0.0811 0.74334,-0.0758 0.96,0.0119 0.21665,0.0876 -0.0381,0.15403 -0.5661,0.14751 -0.52799,-0.007 -0.70525,-0.0782 -0.3939,-0.15937 z m -73.34083,-5.084909 c 0.0154,-0.372782 0.0912,-0.448608 0.19333,-0.193334 0.0924,0.231 0.0811,0.507 -0.0253,0.613334 -0.10633,0.106333 -0.18196,-0.08267 -0.16807,-0.42 z m -26.50979,-11.402507 -0.0755,-10.789174 -3.44,-0.102864 -3.44,-0.102864 3.45004,-0.06796 c 2.52767,-0.04979 3.49133,0.03963 3.60447,0.334473 0.0849,0.221339 0.11438,5.153339 0.0654,10.96 l -0.089,10.557564 z m 79.04,0 -0.0755,-10.789174 -3.44,-0.102864 -3.44,-0.102864 3.45004,-0.06796 c 2.52766,-0.04979 3.49133,0.03963 3.60447,0.334473 0.0849,0.221339 0.11438,5.153339 0.0654,10.96 l -0.089,10.557564 z m -90.85631,7.909173 c 0.002,-1.056 0.0615,-1.449421 0.13275,-0.874269 0.0712,0.575152 0.0697,1.439152 -0.003,1.92 -0.073,0.480848 -0.13129,0.01027 -0.12949,-1.045731 z m 118.0061,-2.586666 c 0.0154,-0.372782 0.0912,-0.448608 0.19333,-0.193334 0.0924,0.231 0.0811,0.507 -0.0253,0.613334 -0.10634,0.106333 -0.18197,-0.08267 -0.16807,-0.42 z m -159.46526,-0.05141 c 1.452,-0.05929 3.828,-0.05929 5.28,0 1.452,0.05929 0.264,0.107807 -2.64,0.107807 -2.904,0 -4.092,-0.04851 -2.64,-0.107807 z M 265.05915,90.719997 c 0.002,-1.056 0.0615,-1.449421 0.13275,-0.874269 0.0712,0.575152 0.0697,1.439152 -0.003,1.92 -0.073,0.480848 -0.13129,0.01027 -0.12949,-1.045731 z m 78.24084,1.541404 c 0.231,-0.09244 0.507,-0.08107 0.61333,0.02526 0.10633,0.106333 -0.0827,0.181965 -0.42,0.16807 -0.37278,-0.01535 -0.44861,-0.09118 -0.19333,-0.193333 z m 265.57999,0.0067 c 0.22,-0.08877 0.58,-0.08877 0.8,0 0.22,0.08877 0.04,0.161403 -0.4,0.161403 -0.44,0 -0.62,-0.07263 -0.4,-0.161403 z m 83.49712,-0.02642 c 14.33028,-0.08158 15.42872,-0.127028 15.58162,-0.644707 0.12636,-0.427804 0.14921,-0.408545 0.0985,0.08306 -0.065,0.630222 -0.30302,0.640072 -15.58162,0.644707 l -15.51567,0.0047 z M 437.85151,90.719997 c 0.002,-0.88 0.0645,-1.20202 0.1381,-0.7156 0.0735,0.48642 0.0716,1.20642 -0.004,1.6 -0.0759,0.39358 -0.13613,-0.0044 -0.13373,-0.8844 z m 26.54917,0 c 0.004,-0.704 0.0691,-0.954321 0.14563,-0.556269 0.0765,0.398052 0.0736,0.974052 -0.006,1.28 -0.0801,0.305948 -0.14272,-0.01973 -0.13917,-0.723731 z m -77.81543,0.293334 c 0.0154,-0.372782 0.0912,-0.448608 0.19333,-0.193334 0.0924,0.231 0.0811,0.507 -0.0253,0.613334 -0.10633,0.106333 -0.18197,-0.08267 -0.16807,-0.42 z m 278.71999,-2.88 c 0.0154,-0.372782 0.0912,-0.448608 0.19333,-0.193333 0.0924,0.231 0.0811,0.507 -0.0253,0.613333 -0.10634,0.106333 -0.18197,-0.08267 -0.16807,-0.42 z m -325.52525,-2.59193 c 0.231,-0.09244 0.507,-0.08107 0.61333,0.02526 0.10633,0.106334 -0.0827,0.181965 -0.42,0.16807 -0.37278,-0.01535 -0.44861,-0.09118 -0.19333,-0.193333 z m 342.05998,-0.02076 c 2.684,-0.05352 7.076,-0.05352 9.76,0 2.684,0.05352 0.488,0.09731 -4.88,0.09731 -5.368,0 -7.564,-0.04379 -4.88,-0.09731 z M 347.92714,83.839998 c 0,-0.792 0.0624,-1.116 0.13868,-0.72 0.0763,0.396 0.0763,1.044 0,1.44 -0.0763,0.396 -0.13868,0.072 -0.13868,-0.72 z m 11.13811,-1.146667 c 0.0154,-0.372782 0.0912,-0.448608 0.19333,-0.193333 0.0924,0.231 0.0811,0.507 -0.0253,0.613333 -0.10633,0.106333 -0.18197,-0.08267 -0.16807,-0.42 z m 213.98992,-6.131655 c 1.46036,-0.05943 3.76436,-0.0591 5.12,7.37e-4 1.35565,0.05983 0.16081,0.108457 -2.65519,0.108052 -2.816,-4.05e-4 -3.92516,-0.04936 -2.46481,-0.108789 z m 78.14481,0.02211 c 4.28558,-0.2318 8.5684,-0.243885 8.4315,-0.02379 -0.0821,0.132 -2.40878,0.212772 -5.17039,0.179493 -2.76161,-0.03328 -4.22911,-0.103345 -3.26111,-0.155703 z M 559.49392,62.079998 c 0,-3.432 0.0471,-4.836 0.10462,-3.12 0.0575,1.716 0.0575,4.524 0,6.24 -0.0575,1.716 -0.10462,0.312 -0.10462,-3.12 z m 79.04,0 c 0,-3.432 0.0471,-4.836 0.10462,-3.12 0.0575,1.716 0.0575,4.524 0,6.24 -0.0575,1.716 -0.10462,0.312 -0.10462,-3.12 z M 236.41253,59.282746 c 1.1069,-0.06267 2.8349,-0.06215 3.84,0.0011 1.0051,0.0633 0.0995,0.114571 -2.01254,0.113938 -2.112,-6.33e-4 -2.93436,-0.05242 -1.82746,-0.115088 z m 55.49346,-0.319725 c 1.1803,-0.06139 3.1963,-0.0618 4.48,-9.07e-4 1.2837,0.0609 0.318,0.111127 -2.146,0.111626 -2.464,4.99e-4 -3.5143,-0.04932 -2.334,-0.110719 z m 76.8,0 c 1.1803,-0.06139 3.1963,-0.0618 4.48,-9.07e-4 1.2837,0.0609 0.318,0.111127 -2.146,0.111626 -2.464,4.99e-4 -3.5143,-0.04932 -2.334,-0.110719 z"
         id="path3" />
      <path
         style="fill:#231f20"
         d="m 643.19998,206.73465 c -3.16772,-0.4281 -7.59686,-1.98348 -8.13703,-2.85748 -0.17281,-0.27961 2.79164,-7.2924 3.29939,-7.80513 0.13505,-0.13638 1.03914,0.11536 2.00908,0.55942 2.38188,1.09046 5.10309,1.34996 7.33926,0.69989 2.48772,-0.7232 4.20599,-2.32008 5.55475,-5.16233 l 1.11471,-2.34901 -7.54195,-18.51001 c -4.14808,-10.1805 -7.61502,-18.69 -7.70432,-18.91 -0.11199,-0.2759 -1.00639,-0.4 -2.88282,-0.4 -2.65948,0 -2.71655,-0.0161 -2.54629,-0.72 0.0958,-0.396 0.49607,-2.268 0.88953,-4.16 l 0.71538,-3.44 h 10.18515 10.18516 v 4.16 4.16 h -2.56 c -1.408,0 -2.56,0.0469 -2.56,0.10432 0,0.0574 1.8221,5.13339 4.04911,11.28 2.22701,6.14662 4.29069,12.25568 4.58596,13.57568 l 0.53686,2.39999 0.415,-1.71773 c 0.22825,-0.94475 2.32234,-7.06475 4.65354,-13.6 l 4.23853,-11.88226 -3.3995,-0.16 -3.39951,-0.16 -0.0896,-4.08 -0.0896,-4.08 h 12.44162 12.44162 l -0.85586,4.08 -0.85586,4.08 -2.59782,0.0926 -2.59781,0.0926 -0.95189,2.46736 c -7.75847,20.11032 -16.33521,41.63138 -17.24324,43.26735 -2.25392,4.06082 -6.53671,7.40038 -10.83776,8.45089 -2.48529,0.60703 -5.62735,0.81791 -7.80387,0.52377 z M 261.54929,188.96657 c -5.52407,-1.0024 -9.79341,-3.11665 -13.25579,-6.56447 -2.75461,-2.74303 -4.31708,-5.52978 -5.47343,-9.7621 -0.67171,-2.45855 -0.70435,-3.26066 -0.82356,-20.24 l -0.12413,-17.68 h -3.65619 -3.6562 v -4.32 -4.32 h 13.28 13.28 v 4.32 4.32 h -3.85808 -3.85808 l 0.11887,16.88 c 0.0998,14.17289 0.19935,17.14428 0.62066,18.52793 1.78788,5.87167 5.61754,8.69072 12.22854,9.00154 8.12864,0.38218 12.93461,-2.99243 14.45134,-10.14727 0.34657,-1.63488 0.44687,-5.67683 0.45119,-18.1822 l 0.006,-16.08 h -3.68 -3.68 v -4.32 -4.32 h 13.12 13.12 l 0.004,3.6 c 0.002,1.98 0.0912,3.924 0.19732,4.32 0.19229,0.71752 0.17967,0.72 -3.66477,0.72 h -3.85773 l -0.1149,17.68 c -0.11071,17.03433 -0.14054,17.77206 -0.81699,20.201 -1.21924,4.37792 -2.74218,7.10401 -5.47426,9.79899 -2.73329,2.69617 -5.02868,4.16704 -8.25272,5.28824 -4.78465,1.66394 -11.61341,2.18883 -16.63102,1.27834 z m 200.85069,0.0145 c -8.5548,-1.80309 -14.79004,-7.27766 -17.51826,-15.38108 -0.79079,-2.34884 -0.8627,-2.98234 -0.87181,-7.68 -0.0111,-5.74969 0.46439,-7.96185 2.58134,-12.00813 2.77075,-5.29595 7.78422,-9.18324 13.88873,-10.76889 2.89067,-0.75085 9.05873,-0.74201 11.81441,0.0169 9.08496,2.50209 14.33095,10.3498 14.03801,21.00009 l -0.0924,3.36 -15.55812,0.083 -15.55812,0.083 0.25858,1.35698 c 1.13774,5.97063 5.09809,9.85133 11.01876,10.79716 3.99909,0.63886 9.03265,-0.59304 13.26827,-3.24724 1.13815,-0.71321 2.11396,-1.17439 2.16848,-1.02484 0.0545,0.14955 1.01939,1.92791 2.14418,3.9519 l 2.04507,3.68 -0.85355,0.72227 c -1.46553,1.24012 -7.13606,3.89547 -9.81355,4.5954 -3.28421,0.85854 -9.95383,1.09703 -12.96,0.46342 z m 12.37247,-29.68169 c -0.43034,-3.63357 -2.95048,-6.85231 -6.09657,-7.7866 -2.13501,-0.63403 -3.2474,-0.59668 -5.81099,0.19514 -1.73966,0.53732 -2.48456,0.99097 -3.80954,2.32 -1.75134,1.75669 -2.96838,3.90805 -3.27311,5.78588 l -0.186,1.14619 h 9.68645 9.68644 z m 68.58753,29.51363 c -3.3561,-0.71803 -5.66246,-1.62167 -7.85727,-3.0785 -3.28867,-2.18289 -4.30273,-4.33576 -4.30273,-9.13476 V 173.44 h 4.8 4.8 v 1.89544 c 0,2.40328 0.85626,3.52881 3.45328,4.53923 2.45234,0.95413 7.49279,1.04852 9.73762,0.18233 2.06989,-0.79868 3.1291,-2.11783 3.1291,-3.897 0,-2.69885 -1.65837,-3.85506 -9.68006,-6.74889 -7.43207,-2.68112 -10.61237,-4.58786 -12.69079,-7.60875 -2.88309,-4.19042 -2.48056,-10.32881 0.9214,-14.0511 3.11712,-3.41062 7.80133,-5.08287 14.40945,-5.1441 6.48279,-0.0601 11.65992,1.51591 14.58339,4.43938 1.7011,1.7011 2.05254,2.91774 2.05482,7.11346 l 0.002,3.28 h -4.8 -4.8 v -1.42495 c 0,-3.03532 -1.63848,-4.33908 -5.76,-4.58329 -3.04759,-0.18058 -4.9417,0.32593 -6.30067,1.68491 -1.25821,1.2582 -1.39522,2.6485 -0.41881,4.24994 0.98819,1.62079 3.1722,2.7852 8.60326,4.58685 8.60629,2.85498 12.18241,5.11973 14.03233,8.88668 0.78627,1.60108 0.88389,2.15327 0.88389,4.99986 0,2.77834 -0.10968,3.43383 -0.83236,4.9746 -1.58654,3.38254 -4.19252,5.57473 -8.44764,7.10629 -4.45205,1.60243 -10.5592,1.95349 -15.52,0.89213 z m 76.32,-0.53562 c -4.812,-1.03186 -8.90095,-3.81407 -10.78947,-7.34136 -1.81598,-3.39181 -1.93864,-4.39962 -2.09049,-17.17604 L 606.66026,152 h -3.33014 -3.33014 v -4.14952 -4.14952 l 3.6,-0.0905 3.6,-0.0905 0.0869,-6.16 0.0869,-6.16 h 5.26618 5.26618 l 0.0869,6.16 0.0869,6.16 5.95939,0.0869 5.95938,0.0869 -0.86049,4.07309 -0.86048,4.07309 -5.1789,0.0879 -5.1789,0.0879 v 9.5484 c 0,5.25161 0.14642,10.32405 0.32539,11.27207 0.78102,4.13716 3.55566,6.34222 8.32813,6.61849 l 2.56354,0.1484 -0.0885,4.51839 -0.0885,4.51839 -3.52,0.0589 c -2.14659,0.0359 -4.39399,-0.12854 -5.76,-0.42147 z m -315.67999,-3.94621 v -4.14881 l 3.28,-0.0912 3.28,-0.0912 0.0772,-13.11999 c 0.0594,-10.08956 -0.0165,-13.30479 -0.32864,-13.92 -0.38546,-0.75979 -0.56224,-0.80461 -3.51722,-0.89159 l -3.11136,-0.0916 V 147.82841 143.68 h 7.15268 c 6.90352,0 7.19055,0.0253 8.24,0.72637 1.70228,1.1372 2.24654,2.52001 2.13892,5.43438 -0.0504,1.36441 -0.0693,2.48041 -0.042,2.48 0.0273,-4.2e-4 0.4104,-0.61275 0.85138,-1.36075 3.29351,-5.58648 10.46041,-9.05412 17.41119,-8.42426 8.21217,0.74417 12.3652,5.14711 13.22363,14.01937 0.15778,1.63069 0.29077,7.60889 0.29554,13.28489 l 0.009,10.31999 h 4 c 3.14253,0 4,0.0925 4,0.43153 0,0.23734 -0.36,2.05916 -0.8,4.04847 -0.44,1.98932 -0.8,3.66714 -0.8,3.72848 0,0.0613 -3.95343,0.11152 -8.78539,0.11152 h -8.78538 L 341.67997,173.36 c -0.11646,-16.11928 -0.16326,-16.61912 -1.7304,-18.48156 -1.34993,-1.6043 -2.52367,-2.05144 -5.38958,-2.05315 -2.13157,-0.001 -2.89266,0.15014 -4.54772,0.90477 -2.35212,1.07246 -5.04187,3.72343 -6.30298,6.21211 -1.63531,3.22714 -1.90529,5.02739 -1.92822,12.85783 l -0.0211,7.19999 3.28,0.0912 3.28,0.0912 v 4.14881 4.1488 h -12.16 -12.16 z m 60.67742,3.2688 c 0.0998,-0.484 0.49435,-2.32 0.87682,-4.08 l 0.69541,-3.2 2.39517,-0.16 2.39518,-0.16 0.0834,-13.99999 0.0834,-14 h -3.52336 -3.52336 v -4.16 -4.16 h 8.95735 8.95736 l 0.0826,18.16 0.0827,18.15999 3.28,0.0912 3.28,0.0912 v 4.14881 4.1488 h -12.152 -12.152 z M 402.86599,170.24 396.05764,152 h -2.66883 -2.66882 v -4.16 -4.16 h 10.71999 10.72 v 4.16 4.16 h -2.4 c -1.32,0 -2.39996,0.108 -2.39992,0.24 4e-5,0.132 1.73967,5.208 3.86585,11.28 2.12618,6.072 4.11651,12.04711 4.42295,13.27802 l 0.55715,2.23803 0.40166,-2.04155 c 0.2209,-1.12286 2.13852,-6.95397 4.26137,-12.95803 2.12284,-6.00406 3.92854,-11.16847 4.01265,-11.47647 0.13592,-0.49771 -0.1182,-0.56 -2.28438,-0.56 h -2.43733 v -4.16 -4.16 h 11.63233 11.63233 l -0.74816,3.44 c -0.41148,1.892 -0.82478,3.764 -0.91842,4.16 -0.15978,0.67565 -0.335,0.72 -2.84471,0.72 h -2.67445 l -6.83815,18.24 -6.83815,18.23999 h -6.44413 -6.44413 z m 89.93399,14.09119 v -4.14881 l 3.28,-0.0912 3.28,-0.0912 0.0836,-13.25068 c 0.0723,-11.46706 0.0175,-13.35155 -0.40737,-14 C 498.57852,152.05081 498.33958,152 495.5126,152 h -3.03262 v -4.16 -4.16 h 7.12499 c 6.28937,0 7.25287,0.0686 8.21528,0.58472 1.81931,0.97571 2.25751,2.21829 2.2747,6.45028 l 0.015,3.685 0.57002,-1.45655 c 0.80654,-2.06092 2.97618,-5.14771 4.58808,-6.52754 0.75458,-0.64595 2.2897,-1.62628 3.41137,-2.17851 1.70216,-0.83803 2.50916,-1.02653 4.88,-1.13988 l 2.84059,-0.13581 v 5.43554 5.43554 l -3.03849,0.15893 c -2.57691,0.13479 -3.35215,0.31335 -5.10316,1.17537 -3.45982,1.70326 -5.70368,4.80178 -6.91929,9.55478 -0.51245,2.00368 -0.61906,3.54135 -0.61906,8.92931 v 6.50881 h 4 4 l 0.004,3.44 c 0.002,1.892 0.0912,3.764 0.19732,4.16 l 0.19295,0.72 H 505.9573 492.79998 Z m 81.92,-0.0112 v -4.16 h 3.2 3.2 V 166.08 152 h -3.36 -3.36 v -4.16 -4.16 h 8.95736 8.95735 l 0.0826,18.16 0.0826,18.15999 4.08,0.0896 4.08,0.0896 v 4.15044 4.15043 h -12.96 -12.96 z M 370.87999,131.04 v -4.96 h 5.6 5.6 v 4.96 4.96 h -5.6 -5.6 z m 210.23999,0 v -4.96 h 5.6 5.6 v 4.96 4.96 h -5.6 -5.6 z M 280.56042,113.75019 c -7.52799,-1.49777 -12.97067,-7.66501 -14.82029,-16.793221 -0.67529,-3.332721 -0.49057,-11.272195 0.33124,-14.236971 2.79451,-10.081489 10.6555,-15.95271 20.64862,-15.422064 4.64277,0.246536 7.97864,1.709841 10.65747,4.674988 0.64947,0.718892 1.21724,1.307202 1.2617,1.307355 0.0444,1.54e-4 0.0396,-3.239846 -0.0109,-7.2 l -0.0917,-7.200279 h -4.34301 c -4.34212,0 -4.34297,-1.45e-4 -4.16884,-0.72 0.0958,-0.396 0.49608,-2.268 0.88953,-4.16 l 0.71538,-3.439999 h 9.06515 9.06516 v 26.655999 c 0,20.305777 0.0915,26.747482 0.384,27.040002 0.25126,0.25126 1.57866,0.384 3.84,0.384 h 3.456 v 4.35086 4.35085 l -7.12,-0.12431 c -7.97346,-0.13922 -9.01167,-0.36812 -10.1518,-2.23815 -0.45289,-0.74282 -0.64617,-1.61852 -0.64701,-2.93138 l -10e-4,-1.87214 -1.28014,1.70371 c -3.84261,5.11403 -10.45187,7.30875 -17.67943,5.87075 z m 11.75957,-10.14656 c 1.92178,-0.99663 3.99691,-3.09155 4.95035,-4.997559 2.183,-4.364045 2.04727,-11.128268 -0.32005,-15.949228 -3.19538,-6.507302 -11.4663,-7.828504 -16.65252,-2.660086 -3.34219,3.330721 -4.68943,9.545221 -3.32457,15.335518 0.93164,3.952411 3.62916,7.433505 6.7256,8.679255 2.31518,0.93144 6.41235,0.73759 8.62119,-0.4079 z m 38.57881,10.15997 c -4.60849,-1.0472 -7.65083,-3.3223 -9.53166,-7.12791 -1.17711,-2.38171 -1.20707,-2.53052 -1.20371,-5.9791 0.003,-2.988643 0.11542,-3.780542 0.72612,-5.111102 2.84568,-6.199954 10.21251,-9.519628 22.31044,-10.053622 l 4.8,-0.211868 -0.0527,-1.959219 c -0.19744,-7.341084 -8.10906,-9.314674 -17.86731,-4.457078 l -2.88,1.433645 -0.48,-0.685414 c -0.264,-0.376977 -1.2308,-2.09654 -2.14844,-3.82125 l -1.66845,-3.135837 2.16684,-1.287293 c 7.73927,-4.597815 19.24976,-5.492981 26.08617,-2.028711 2.20495,1.117334 4.7366,3.606997 5.91388,5.815798 1.94202,3.643598 2.05487,4.52055 2.20897,17.165358 0.088,7.217665 0.26345,11.669383 0.46989,11.920003 0.21275,0.25826 1.22273,0.4 2.85032,0.4 1.79296,0 2.52082,0.11461 2.52082,0.39694 0,0.21832 -0.3854,2.17983 -0.85643,4.35891 l -0.85643,3.96197 -5.48607,-0.13587 c -4.70156,-0.11644 -5.63823,-0.22497 -6.55012,-0.75891 -1.83145,-1.07238 -2.37095,-2.10001 -2.37095,-4.51614 0,-1.66588 -0.0753,-2.00957 -0.34,-1.55195 -1.71942,2.97252 -5.10188,5.76755 -8.34,6.89159 -2.52929,0.87799 -6.72238,1.09031 -9.42119,0.47706 z m 10.73317,-8.96523 c 3.65645,-1.78894 6.52802,-6.744487 6.52802,-11.265604 v -1.372769 h -2.05685 c -2.7542,0 -6.53776,0.547965 -8.96938,1.299015 -4.05235,1.251644 -6.233,3.872562 -5.80713,6.979588 0.63503,4.63305 5.52147,6.7003 10.30534,4.35977 z m 104.87732,8.99077 c -9.65624,-1.84737 -16.35509,-7.54224 -19.0432,-16.189143 -0.64241,-2.06645 -0.74343,-3.044862 -0.72685,-7.04 0.0172,-4.134505 0.11179,-4.918893 0.86865,-7.199999 1.98062,-5.96933 5.68098,-10.258799 11.44085,-13.262241 5.18727,-2.704865 11.70136,-3.556134 17.6932,-2.31217 5.78952,1.201958 11.14671,4.433496 14.33772,8.648712 3.39433,4.483818 4.58814,8.200856 4.58814,14.285698 0,4.619693 -0.45861,6.887282 -2.06371,10.203993 -3.80714,7.86689 -11.76309,12.78763 -21.28411,13.16418 -2.22865,0.0881 -4.36036,-0.0216 -5.81069,-0.29903 z m 8.23261,-9.66444 c 2.59378,-0.769 3.9295,-1.5466 5.70289,-3.31999 6.74009,-6.740088 4.77076,-18.797107 -3.72777,-22.82291 -1.99963,-0.947238 -2.40223,-1.021802 -5.51704,-1.021802 -3.11481,0 -3.5174,0.07456 -5.51704,1.021802 -4.0932,1.938976 -6.81428,5.662396 -7.6173,10.423238 -0.67016,3.973176 0.51961,8.522543 3.03008,11.586249 3.10441,3.788523 8.89423,5.542253 13.64618,4.133413 z m 64.76515,9.67464 c -7.39441,-1.2143 -12.76739,-4.36827 -14.93531,-8.76712 -1.02967,-2.08926 -1.05391,-2.23678 -1.15428,-7.023156 l -0.10253,-4.889067 h 5.30253 5.30252 v 2.895891 c 0,3.291209 0.37067,4.302032 2.0462,5.580022 2.12014,1.61711 4.4476,2.21564 8.6738,2.23054 4.8011,0.0169 6.60852,-0.53003 8.81038,-2.66623 2.94113,-2.853438 2.98347,-6.577498 0.10971,-9.649788 -1.76952,-1.891754 -4.23504,-3.20092 -11.01719,-5.850009 -10.78075,-4.210925 -14.06497,-6.567409 -16.46244,-11.812052 -1.99793,-4.370625 -1.74928,-10.613984 0.60215,-15.119393 2.00521,-3.842027 6.04511,-6.785889 11.30124,-8.235168 2.10755,-0.581118 3.34305,-0.687298 7.93615,-0.682043 4.83516,0.0055 5.78703,0.09883 8.56119,0.839099 3.81627,1.01835 6.63635,2.467967 8.61474,4.428265 2.0719,2.05296 2.50407,3.657817 2.50407,9.298948 v 4.421919 h -5.28 -5.28 v -2.415891 c 0,-3.763267 -0.93853,-4.920936 -4.92146,-6.070565 -2.74738,-0.793002 -7.82281,-0.554181 -9.79854,0.461065 -1.88262,0.967405 -2.50046,1.535306 -3.23405,2.972643 -0.8205,1.607619 -0.79297,4.144344 0.0642,5.914977 1.2883,2.661293 3.74993,4.138575 12.212,7.328732 2.95931,1.115647 6.50222,2.611999 7.87314,3.325227 4.99665,2.599544 8.10247,5.881942 9.33194,9.862495 0.84367,2.731483 0.86565,7.715406 0.047,10.667549 -1.74975,6.31017 -6.93745,10.73237 -14.77425,12.59416 -2.91898,0.69346 -9.18532,0.87584 -12.33293,0.35895 z m 77.05698,-0.0439 c -4.13262,-0.89784 -7.92997,-3.69518 -9.48858,-6.98981 -1.00351,-2.12124 -1.56173,-5.47092 -1.27692,-7.662365 1.09777,-8.44661 8.83616,-13.018359 22.96093,-13.565036 l 5.07948,-0.196594 -0.15719,-2.196926 c -0.20959,-2.929292 -1.36613,-4.860108 -3.59827,-6.007228 -1.40857,-0.723875 -1.95809,-0.814582 -4.79715,-0.791849 -3.63199,0.02908 -6.75474,0.901023 -10.29835,2.875526 -1.0846,0.60434 -2.04383,1.0988 -2.13163,1.0988 -0.0878,0 -1.0523,-1.685006 -2.14332,-3.744457 l -1.98368,-3.744456 0.75531,-0.624333 c 1.38259,-1.142826 6.51647,-3.380581 9.41453,-4.103608 3.76883,-0.940267 11.06968,-1.035533 14.15467,-0.184698 4.76606,1.314465 8.10097,3.867137 9.93096,7.601552 1.76533,3.602436 1.96342,5.346097 1.9696,17.337142 0.005,9.3658 0.0714,10.843 0.50841,11.28 0.37258,0.37258 1.16018,0.50286 3.04,0.50286 h 2.53715 v 4.35339 4.35339 l -6.32,-0.1232 c -5.3815,-0.1049 -6.50381,-0.21297 -7.55778,-0.72778 -1.77233,-0.86568 -2.43957,-2.13358 -2.44103,-4.63845 l -10e-4,-2.06265 -0.90291,1.42265 c -3.41721,5.38428 -10.39424,8.02826 -17.25304,6.53813 z m 10.75982,-8.94539 c 1.50639,-0.77172 3.63332,-2.80444 4.64762,-4.44177 1.00466,-1.62176 1.78851,-4.42115 1.78851,-6.38737 v -1.918856 l -3.6,0.205477 c -6.88683,0.393078 -11.0106,2.056049 -12.58857,5.076535 -0.5717,1.094314 -0.58115,3.485984 -0.0191,4.831164 0.53372,1.27737 2.48078,3.02968 3.65354,3.28809 0.48077,0.10594 1.01813,0.24774 1.19413,0.31511 0.74446,0.28498 3.55712,-0.26819 4.92387,-0.96838 z m 77.96858,9.09637 c -9.4593,-1.48927 -16.78588,-7.91732 -19.02835,-16.694713 -2.25513,-8.826953 -0.0751,-17.813841 5.72936,-23.61828 2.66997,-2.669969 5.3624,-4.259583 9.28653,-5.482788 2.0441,-0.637171 3.06437,-0.74669 6.88,-0.738521 4.04329,0.0087 4.72418,0.09491 6.98491,0.884814 7.04123,2.460233 11.37893,7.931731 12.68942,16.006182 0.35574,2.191896 0.42261,6.062519 0.12398,7.176843 l -0.19295,0.72 h -15.30379 c -9.84336,0 -15.37426,0.114021 -15.50129,0.319562 -0.30727,0.49716 0.71676,4.081398 1.66252,5.81907 1.14646,2.106421 3.21491,3.946241 5.79973,5.158681 4.75772,2.23167 11.88635,1.26712 17.21527,-2.32933 0.78886,-0.53239 1.53507,-0.96564 1.65825,-0.96278 0.21694,0.005 4.22395,7.41487 4.22395,7.81101 0,0.37582 -4.332,2.99472 -6.3747,3.85381 -4.61694,1.94174 -11.21729,2.80626 -15.85284,2.07644 z m 11.10188,-29.746462 c -0.12649,-2.126357 -1.85478,-5.375074 -3.52779,-6.631289 -3.55767,-2.671355 -8.99572,-2.046322 -12.41143,1.426533 -1.15902,1.178403 -2.76892,4.167454 -3.19363,5.929501 l -0.21325,0.884746 9.71588,-0.08475 9.71588,-0.08474 z M 572.63998,113.08436 c -6.07443,-1.08723 -10.4765,-4.51085 -12.4076,-9.64978 -0.64993,-1.72958 -0.69921,-2.54888 -0.8609,-14.314583 l -0.1715,-12.479999 -3.44,-0.09083 -3.44,-0.09083 V 72.309164 68.15999 h 3.68 3.68 v -6.08 -6.08 h 5.44 5.44 v 6.08 6.08 h 5.92 c 3.256,0 5.91428,0.108 5.90728,0.24 -0.007,0.132 -0.41529,1.968 -0.90733,4.08 l -0.89461,3.84 -5.01267,0.08813 -5.01267,0.08813 v 10.594748 c 0,7.416148 0.11735,10.989907 0.39114,11.911874 0.2342,0.788627 0.97293,1.901478 1.84108,2.773438 1.69081,1.69826 3.59614,2.38126 6.64694,2.38272 l 1.99915,9.7e-4 8.5e-4,4.52267 c 8.2e-4,4.42001 -0.0155,4.52706 -0.71916,4.71564 -1.22588,0.32852 -5.39569,0.1665 -8.08,-0.31395 z m 79.04,0 c -6.07444,-1.08723 -10.4765,-4.51085 -12.4076,-9.64978 -0.64994,-1.72958 -0.69921,-2.54888 -0.8609,-14.314583 l -0.1715,-12.479999 -3.44,-0.09083 -3.44,-0.09083 V 72.309164 68.15999 h 3.68 3.68 v -6.08 -6.08 h 5.44 5.44 v 6.08 6.08 h 5.92 c 3.256,0 5.91427,0.108 5.90728,0.24 -0.007,0.132 -0.41529,1.968 -0.90733,4.08 l -0.89462,3.84 -5.01267,0.08813 -5.01266,0.08813 v 10.594748 c 0,7.114945 0.12197,11.001873 0.37137,11.834299 0.93399,3.117373 4.1326,5.150783 8.18631,5.204173 l 2.31768,0.0305 0.002,4.52267 c 0.002,4.42059 -0.0139,4.52704 -0.71769,4.71564 -1.22588,0.32852 -5.39568,0.1665 -8.07999,-0.31395 z M 234.55999,108.96 v -4.32 h 3.68 3.68 v -22.720002 -22.72 h -3.68 -3.68 v -4.32 -4.319999 h 13.28 13.28 v 4.309844 4.309845 l -3.76,0.09016 -3.76,0.09015 v 22.56 V 104.48 l 3.76,0.0901 3.76,0.0902 v 4.30984 4.30985 h -13.28 -13.28 z m 132.74202,4.15536 c -0.13366,-0.13366 0.62429,-4.0527 1.4999,-7.75536 0.16251,-0.68721 0.31576,-0.72 3.36417,-0.72 h 3.19391 v -22.880002 -22.88 h -4.312 -4.312 l 0.20359,-1.04 c 0.11197,-0.572 0.50437,-2.408 0.872,-4.08 l 0.66841,-3.039999 9.04,-0.08498 9.04,-0.08498 v 12.697076 12.697077 l 1.25708,-1.755501 c 3.04028,-4.245697 8.61654,-6.972101 14.28414,-6.983956 8.32299,-0.01741 13.4241,3.855942 15.02425,11.408136 0.35639,1.682029 0.46469,4.937398 0.46897,14.095939 l 0.006,11.90881 3.28,0.0912 3.28,0.0912 v 4.16 4.16 h -8.8 -8.8 l -0.16,-15.360006 c -0.14464,-13.885886 -0.2152,-15.482423 -0.73527,-16.635632 -1.27034,-2.816915 -3.29714,-3.858865 -7.03911,-3.61872 -5.8379,0.374653 -10.16181,4.600219 -11.5859,11.322372 -0.32605,1.539074 -0.47029,4.280609 -0.47416,9.01198 l -0.006,6.800006 h 3.2 3.2 v 4.32 4.32 h -12.74667 c -7.01067,0 -12.82075,-0.0741 -12.91131,-0.16464 z"
         id="path2" />
    </g>
  </g>
</svg>
