<?xml version="1.0" encoding="UTF-8" standalone="no"?>
<!-- Created with Inkscape (http://www.inkscape.org/) -->

<svg
   width="186.14751mm"
   height="57.718628mm"
   viewBox="0 0 186.14751 57.718628"
   version="1.1"
   id="svg1"
   xml:space="preserve"
   xmlns="http://www.w3.org/2000/svg"
   xmlns:svg="http://www.w3.org/2000/svg"><defs
     id="defs1" /><g
     id="layer1"
     transform="translate(-11.223524,-119.83981)"><rect
       style="fill:#ffffff;stroke-width:0.264583"
       id="rect1"
       width="186.14751"
       height="57.718628"
       x="11.223524"
       y="119.83981" /><g
       id="g6"><path
         style="fill:#103b5a"
         d="m 48.924786,173.64883 c -0.604018,-0.2426 -1.047339,-0.94281 -0.771536,-1.21861 0.08133,-0.0813 0.420185,0.0429 0.753016,0.27599 0.754804,0.52869 2.432939,0.55199 2.858107,0.0397 0.614226,-0.7401 0.197563,-1.31677 -1.313435,-1.81784 -1.69767,-0.56296 -2.38177,-1.10247 -2.376132,-1.8739 0.008,-1.09877 0.958061,-1.74493 2.565517,-1.74493 1.177339,0 2.392307,0.70021 1.961859,1.13066 -0.191167,0.19116 -0.391342,0.17966 -0.653036,-0.0375 -0.638682,-0.53006 -2.31496,-0.45696 -2.73721,0.11936 -0.329489,0.44971 -0.30691,0.55985 0.198925,0.97032 0.31383,0.25466 0.747776,0.46302 0.964324,0.46302 0.683743,0 2.20053,0.8417 2.489375,1.38141 0.378548,0.70732 -0.136463,1.90059 -0.987679,2.28843 -0.77342,0.3524 -2.107332,0.3632 -2.952095,0.0239 z m 9.729303,-2.67952 v -2.86632 h -1.058334 c -0.775439,0 -1.058333,-0.10865 -1.058333,-0.40646 0,-0.34235 0.39661,-0.39451 2.514887,-0.33073 2.529866,0.0762 3.495193,0.53038 1.458532,0.68626 l -1.063002,0.0814 v 2.8511 c 0,2.35793 -0.06865,2.85111 -0.396875,2.85111 -0.328355,0 -0.396875,-0.49487 -0.396875,-2.86632 z m 6.003115,2.75608 c -0.06244,-0.10914 0.486961,-1.603 1.220898,-3.31968 1.741933,-4.0744 1.946108,-4.07739 3.668066,-0.0538 0.68505,1.60072 1.253018,3.05924 1.26215,3.24114 0.03357,0.66861 -0.813292,0.306 -1.081376,-0.46302 -0.270222,-0.77516 -0.318115,-0.79375 -2.044896,-0.79375 -1.721692,0 -1.776074,0.0209 -2.067801,0.79375 -0.285659,0.7568 -0.712681,1.02242 -0.957041,0.59531 z m 4.315635,-2.29156 c 0,-0.5016 -1.186886,-3.04225 -1.345197,-2.87953 -0.112452,0.11558 -0.449361,0.83523 -0.748687,1.59921 l -0.544228,1.38906 h 1.319056 c 0.725481,0 1.319056,-0.0489 1.319056,-0.10874 z m 6.879167,-0.42042 v -2.91042 h -1.058334 c -0.775439,0 -1.058333,-0.10865 -1.058333,-0.40646 0,-0.34235 0.39661,-0.39451 2.514887,-0.33073 2.529866,0.0762 3.495193,0.53038 1.458532,0.68626 l -1.063002,0.0814 v 2.8952 c 0,2.39713 -0.06828,2.8952 -0.396875,2.8952 -0.328725,0 -0.396875,-0.49976 -0.396875,-2.91041 z m 7.672916,-0.4246 v -3.27957 h 2.248959 c 1.822685,0 2.248958,0.0752 2.248958,0.39687 0,0.31498 -0.382176,0.39688 -1.852083,0.39688 h -1.852084 v 1.05833 1.05834 h 1.719792 c 0.970139,0 1.719792,0.11533 1.719792,0.26458 0,0.14925 -0.749653,0.26458 -1.719792,0.26458 h -1.719792 v 1.19063 1.19062 h 1.874132 c 1.381964,0 1.845058,0.0868 1.76342,0.33073 -0.07502,0.22411 -0.807136,0.34312 -2.271007,0.36916 l -2.160295,0.0384 z m 17.462508,2.87158 c -2.021464,-1.00983 -2.348074,-3.59142 -0.66705,-5.27243 0.75926,-0.75927 1.0573,-0.87872 2.19241,-0.87872 1.45829,0 2.99713,0.875 2.46851,1.40363 -0.19321,0.19321 -0.41939,0.15412 -0.74648,-0.12903 -0.72253,-0.62546 -1.65746,-0.75355 -2.60633,-0.35709 -1.05328,0.44009 -1.43481,1.09985 -1.43481,2.48116 0,0.85014 0.15633,1.18375 0.81405,1.73718 0.94299,0.79348 2.2042,0.89762 3.11812,0.25749 0.93315,-0.6536 1.3158,-0.0493 0.41664,0.65803 -0.87921,0.69159 -2.29108,0.73121 -3.55506,0.0998 z m 10.23358,0.0708 c -1.20604,-0.62904 -1.74838,-1.47097 -1.75811,-2.72931 -0.005,-0.62569 0.1718,-1.48688 0.39255,-1.91375 1.02881,-1.9895 4.46351,-2.10708 5.80029,-0.19856 0.55239,0.78865 0.54145,3.08099 -0.0185,3.88046 -0.85873,1.22602 -3.01051,1.69434 -4.41621,0.96116 z m 3.28052,-1.17446 c 1.782,-1.782 0.26156,-4.80225 -2.18234,-4.33507 -1.92803,0.36856 -2.68363,3.1909 -1.1967,4.46991 1.06167,0.91321 2.38375,0.86045 3.37904,-0.13484 z m 6.75652,1.11528 c -0.0798,-0.2608 -0.0985,-0.7123 -0.0416,-1.00335 0.0569,-0.29104 0.11253,-1.57096 0.12366,-2.84427 0.0164,-1.87248 0.0961,-2.3151 0.41712,-2.3151 0.32872,0 0.39687,0.49977 0.39687,2.91042 v 2.91041 h 1.60955 c 1.16958,0 1.57966,0.0904 1.50019,0.33073 -0.0704,0.21282 -0.77807,0.35829 -1.98505,0.40804 -1.6128,0.0665 -1.89602,0.0109 -2.02073,-0.39688 z m 9.02042,0.28596 c -0.10278,-0.10278 -0.18688,-1.59578 -0.18688,-3.31778 0,-2.95451 0.0298,-3.1309 0.52917,-3.1309 0.4971,0 0.52917,0.17639 0.52917,2.91042 v 2.91041 h 1.60955 c 1.16957,0 1.57965,0.0904 1.50019,0.33073 -0.11932,0.36084 -3.6537,0.62462 -3.9812,0.29712 z m 8.80896,-3.13069 v -3.31799 h 2.24896 c 1.82268,0 2.24895,0.0752 2.24895,0.39687 0,0.31498 -0.38217,0.39688 -1.85208,0.39688 h -1.85208 v 1.05833 1.05834 h 1.71979 c 0.97014,0 1.71979,0.11533 1.71979,0.26458 0,0.14925 -0.74965,0.26458 -1.71979,0.26458 h -1.71979 v 1.19063 1.19062 h 1.87413 c 1.38131,0 1.84534,0.087 1.76464,0.33073 -0.0728,0.21979 -0.83458,0.35651 -2.27101,0.40758 l -2.16151,0.0769 z m 10.95863,3.04025 c -0.30291,-0.12254 -0.86846,-0.60038 -1.25677,-1.06186 -1.24031,-1.47402 -0.76427,-3.99733 0.93168,-4.93844 0.94812,-0.52612 2.95846,-0.44526 3.69079,0.14845 0.89098,0.72233 0.43985,0.95885 -0.84687,0.44401 -1.03144,-0.4127 -1.15388,-0.41074 -2.0615,0.033 -2.50849,1.22649 -1.80665,4.83741 0.94024,4.83741 1.25409,0 1.9313,-0.42076 1.9313,-1.19994 0,-0.59653 -0.10155,-0.65215 -1.19063,-0.65215 -0.88194,0 -1.19062,-0.10289 -1.19062,-0.39687 0,-0.30868 0.35278,-0.39688 1.5875,-0.39688 h 1.5875 v 1.29277 c 0,1.21021 -0.0575,1.32005 -0.89988,1.7198 -0.96623,0.4585 -2.3324,0.53086 -3.22274,0.17067 z m 9.1497,-3.04025 v -3.31799 h 2.24896 c 1.82269,0 2.24896,0.0752 2.24896,0.39687 0,0.31531 -0.38395,0.39688 -1.86806,0.39688 h -1.86805 l 0.0821,0.99219 0.0821,0.99218 1.78594,0.0782 c 0.98227,0.043 1.78594,0.18642 1.78594,0.31864 0,0.13223 -0.80367,0.27562 -1.78594,0.31865 l -1.78594,0.0782 v 1.05833 1.05833 l 1.80382,0.0786 c 1.2602,0.0549 1.77208,0.17455 1.6985,0.39688 -0.0677,0.2045 -0.87783,0.34569 -2.26684,0.39508 l -2.16152,0.0769 z m -55.5625,-17.34527 c 0,-12.31501 -0.0138,-12.44885 -1.24407,-12.05972 -0.40068,0.12673 -0.46193,0.39459 -0.38827,1.69819 l 0.0875,1.54773 -4.056214,0.84131 c -2.23091,0.46273 -4.18941,0.83947 -4.35222,0.83721 -0.18937,-0.003 -0.25163,-0.38835 -0.17283,-1.07062 0.14503,-1.25547 -0.23919,-1.8439 -1.20397,-1.8439 -0.53042,0 -0.61142,0.0706 -0.36447,0.3175 0.23731,0.23731 0.30171,2.65974 0.25499,9.59114 l -0.0625,9.27365 -0.0734,-8.97896 c -0.0638,-7.80294 -0.12898,-9.04041 -0.49802,-9.44819 -0.53469,-0.59083 -0.36415,-1.25679 0.79539,-3.10603 l 0.89343,-1.42484 0.98241,1.75672 c 0.54032,0.96619 1.09232,1.68879 1.22665,1.60576 0.13434,-0.083 0.6497,-0.78478 1.14526,-1.55946 0.49556,-0.77468 1.05972,-1.50633 1.2537,-1.6259 0.20903,-0.12884 0.15547,0.0842 -0.13148,0.52294 -0.61474,0.94 -0.45219,1.09076 0.74875,0.69442 0.52882,-0.17453 1.02008,-0.25874 1.09169,-0.18712 0.0716,0.0716 -0.48595,0.28812 -1.23903,0.48112 -0.99896,0.25603 -1.54596,0.58261 -2.0227,1.20765 -0.3594,0.4712 -0.57669,0.98094 -0.48287,1.13274 0.0938,0.15181 0.0147,0.2775 -0.17575,0.2793 -0.19049,0.002 -0.61533,0.41852 -0.94409,0.92604 -0.38987,0.60186 -0.48188,0.92283 -0.26458,0.92296 0.18324,1.1e-4 1.91074,-0.31449 3.83889,-0.6991 l 3.505734,-0.69929 v -0.8884 c 0,-0.48862 -0.11445,-0.8884 -0.25434,-0.8884 -0.13989,0 -1.29039,0.24157 -2.556684,0.53683 -1.26629,0.29526 -2.42011,0.49758 -2.56405,0.4496 -0.14394,-0.048 0.94703,-0.35711 2.42439,-0.68697 1.477354,-0.32985 2.686094,-0.68695 2.686094,-0.79356 0,-0.1066 -0.13783,-0.33165 -0.30628,-0.50011 -0.232,-0.23199 -0.21721,-0.41362 0.061,-0.74878 0.33426,-0.40276 0.28454,-0.42846 -0.55361,-0.28619 l -0.920854,0.15631 0.998924,-0.32754 c 0.64642,-0.21197 1.18829,-0.63897 1.53561,-1.21008 0.63478,-1.04382 0.56205,-1.19541 -0.39839,-0.83025 -0.39346,0.14959 -0.85646,0.26276 -1.02888,0.25148 -0.17243,-0.0113 0.2818,-0.22917 1.00941,-0.48421 1.11641,-0.39131 1.33655,-0.57979 1.41024,-1.20742 0.0832,-0.70838 0.0454,-0.73655 -0.79375,-0.59267 l -0.88107,0.15105 0.85989,-0.37909 c 0.57785,-0.25474 0.8599,-0.56182 0.8599,-0.93618 0,-0.46602 -0.11895,-0.53371 -0.72761,-0.41405 l -0.7276,0.14304 0.7276,-0.29773 c 0.8467,-0.34645 1.00335,-1.2539 0.21646,-1.2539 -0.59023,0 -1.8596,1.5763 -1.29281,1.60541 0.19181,0.01 0.10481,0.13641 -0.19334,0.28126 -0.29814,0.14485 -0.69607,0.50993 -0.88428,0.8113 -0.2816,0.45092 -0.27931,0.5878 0.0129,0.77302 0.27599,0.17492 0.25495,0.22598 -0.0944,0.22912 -0.39597,0.004 -1.799404,1.51159 -1.799404,1.9335 0,0.0878 0.36326,0.0331 0.80725,-0.12172 0.44399,-0.15477 0.861484,-0.22719 0.927754,-0.16092 0.0663,0.0663 -0.368124,0.26689 -0.965314,0.44581 -0.59719,0.17892 -1.14633,0.26477 -1.22033,0.19078 -0.074,-0.074 0.22249,-0.64779 0.65885,-1.27511 0.43636,-0.62732 1.465864,-2.17836 2.287794,-3.44676 0.82192,-1.2684 1.6086,-2.37676 1.74816,-2.46301 0.14299,-0.0884 0.25375,-1.82457 0.25375,-3.97767 0,-2.37084 0.10041,-3.82084 0.26459,-3.82084 0.1636,0 0.26458,1.39314 0.26458,3.65026 v 3.65026 l 3.32364,5.01484 c 1.82801,2.75817 3.41743,5.11003 3.53205,5.22637 0.11463,0.11634 0.56556,-0.33752 1.00209,-1.00859 l 0.79367,-1.22012 1.12162,1.88796 c 1.03581,1.74354 1.08947,1.92349 0.70136,2.35234 -0.36689,0.40541 -0.42026,1.6255 -0.42026,9.60779 v 9.14341 l -0.79375,0.1165 -0.79375,0.1165 v -3.67348 c 0,-4.25976 -0.2856,-5.6921 -1.33552,-6.69799 -0.86504,-0.82876 -3.00942,-1.19823 -3.85872,-0.66484 -0.41218,0.25886 -0.32936,0.28392 0.49852,0.15084 1.37105,-0.22041 2.79905,0.48704 3.27306,1.6215 0.25952,0.62113 0.36432,2.1302 0.36432,5.24607 0,3.71172 -0.0601,4.37413 -0.39687,4.37413 -0.33624,0 -0.39688,-0.64676 -0.39688,-4.23334 0,-3.49807 -0.0658,-4.23333 -0.37904,-4.23333 -0.61169,0 -0.72726,0.8627 -0.64603,4.82259 0.0563,2.74461 -0.008,3.76805 -0.24286,3.84623 -0.24002,0.08 -0.32047,-0.87038 -0.32318,-3.81813 -0.004,-4.1291 -0.13679,-5.20049 -0.62539,-5.03833 -0.19746,0.0655 -0.34139,1.63627 -0.42933,4.68556 -0.0949,3.28902 -0.22413,4.61746 -0.45683,4.69472 -0.24647,0.0818 -0.34195,-1.02683 -0.39688,-4.60859 -0.0611,-3.98377 -0.13398,-4.71634 -0.46921,-4.71634 -0.33593,0 -0.40789,0.7536 -0.46866,4.90778 l -0.0718,4.90778 -1.05269,0.28098 -1.05269,0.28098 z m 7.14375,-4.89043 c 0,-0.80036 -0.11906,-1.45521 -0.26458,-1.45521 -0.14552,0 -0.26459,0.65485 -0.26459,1.45521 0,0.80037 0.11907,1.45521 0.26459,1.45521 0.14552,0 0.26458,-0.65484 0.26458,-1.45521 z m -2.91042,-0.39687 c 0,-1.23473 -0.0882,-1.5875 -0.39687,-1.5875 -0.30868,0 -0.39688,0.35277 -0.39688,1.5875 0,1.23472 0.0882,1.5875 0.39688,1.5875 0.30868,0 0.39687,-0.35278 0.39687,-1.5875 z m 3.8971,-2.27652 c -0.0879,-0.0879 -0.31613,-0.0973 -0.50712,-0.0209 -0.21107,0.0845 -0.14837,0.14715 0.15985,0.15985 0.27892,0.0115 0.43518,-0.0511 0.34727,-0.13897 z m -1.18512,-0.27996 c -0.1819,-0.0734 -0.47955,-0.0734 -0.66146,0 -0.1819,0.0734 -0.0331,0.13345 0.33073,0.13345 0.36381,0 0.51263,-0.06 0.33073,-0.13345 z m -1.32291,-0.26459 c -0.1819,-0.0734 -0.47956,-0.0734 -0.66146,0 -0.1819,0.0734 -0.0331,0.13346 0.33073,0.13346 0.3638,0 0.51263,-0.06 0.33073,-0.13346 z m -1.32292,-0.26458 c -0.1819,-0.0734 -0.47956,-0.0734 -0.66146,0 -0.1819,0.0734 -0.0331,0.13345 0.33073,0.13345 0.3638,0 0.51263,-0.0601 0.33073,-0.13345 z m -1.19614,-0.24921 c -0.0879,-0.0879 -0.31612,-0.0973 -0.50712,-0.0209 -0.21106,0.0845 -0.14837,0.14716 0.15986,0.15986 0.27891,0.0115 0.43518,-0.0511 0.34726,-0.13897 z m 5.61582,-1.30992 c -0.77532,-0.9342 -1.03449,-0.22218 -0.31864,0.87541 0.45928,0.70419 0.46372,0.70507 0.54948,0.10842 0.0476,-0.33083 -0.0563,-0.77355 -0.23084,-0.98383 z M 92.737506,142.7382 c 0.21665,-0.13737 0.317,-0.60083 0.26458,-1.22192 l -0.0845,-1.0006 -0.59188,1.22597 c -0.58147,1.20442 -0.44334,1.53874 0.41175,0.99655 z m 19.573934,-1.35808 c 0.0863,-1.29677 0.0915,-1.29959 -1.14176,0.61721 l -0.48222,0.7495 0.77238,-0.088 c 0.71183,-0.0811 0.77859,-0.18138 0.8516,-1.27867 z m -9.53808,-0.69593 c 0.50637,-0.1357 0.59532,-0.33877 0.59532,-1.35912 v -1.19958 l -0.78894,1.1643 c -1.07596,1.58787 -1.05631,1.72937 0.19362,1.3944 z m 0.50402,-8.17902 c 0.24613,-0.64142 -0.0973,-0.75721 -0.42574,-0.14354 -0.20478,0.38264 -0.20881,0.55183 -0.0131,0.55183 0.1552,0 0.35269,-0.18373 0.43887,-0.40829 z m -4.009744,31.11767 c -0.29105,-0.11732 -1.39237,-0.36697 -2.4474,-0.55477 l -1.91823,-0.34144 v -4.46869 c 0,-4.77256 0.17022,-5.56316 1.38028,-6.41071 0.76679,-0.53709 2.30667,-0.52785 3.08671,0.0185 1.160754,0.81301 1.353844,1.82575 1.353844,7.10067 0,5.31905 0.0211,5.25156 -1.455204,4.65643 z m -0.11227,-7.05049 c 0.956384,-1.01803 0.906794,-2.83896 -0.10093,-3.70576 -0.97719,-0.84055 -1.64471,-0.80573 -2.58528,0.13485 -0.59322,0.59322 -0.7734,1.01638 -0.7734,1.8164 0,2.2122 2.05199,3.25285 3.45961,1.75451 z m -1.59076,-2.24087 c 0.0158,-0.85771 0.0322,-0.87417 0.27265,-0.27265 0.16944,0.4239 0.16377,0.73227 -0.0168,0.91281 -0.18714,0.18714 -0.26739,-0.0136 -0.25588,-0.64016 z m -18.241065,7.38788 C 77.678019,161.446 76.037883,160.7438 74.977925,159.8588 l -0.741789,-0.61935 0.949404,-1.32292 c 0.522173,-0.7276 1.078448,-1.28845 1.236168,-1.24632 0.157719,0.0421 0.659605,0.35311 1.115301,0.69107 1.157076,0.85812 2.377123,1.21671 4.139631,1.21671 1.759477,0 2.906616,-0.68391 2.906616,-1.7329 0,-0.88111 -0.751083,-1.29429 -3.836459,-2.11044 -3.257544,-0.8617 -4.34152,-1.45004 -5.248355,-2.84858 -0.88365,-1.36279 -0.919802,-2.82498 -0.109457,-4.42713 1.60991,-3.18298 6.417095,-4.06013 10.718327,-1.95573 0.783857,0.3835 1.482648,0.84701 1.55287,1.03 0.105202,0.27415 -1.343695,2.78436 -1.607138,2.78436 -0.04412,0 -0.623504,-0.30364 -1.287516,-0.67477 -2.374003,-1.32685 -5.449998,-1.30629 -6.063656,0.0405 -0.479763,1.05297 0.368505,1.63646 3.669105,2.52383 4.439739,1.19363 5.915623,2.53749 5.915623,5.38644 0,2.50895 -1.545005,4.2887 -4.354245,5.0158 -1.727875,0.44722 -2.471209,0.46495 -4.608814,0.1099 z m 45.018579,0.0338 c -2.89915,-0.60953 -5.15319,-2.28631 -6.34483,-4.71991 -0.63594,-1.29873 -0.73359,-1.81453 -0.73439,-3.87915 -7.3e-4,-1.88106 0.11889,-2.64112 0.56947,-3.61836 0.85439,-1.85303 2.49518,-3.47618 4.38854,-4.34135 1.39684,-0.63829 2.00146,-0.75659 3.90193,-0.76344 1.94067,-0.007 2.45711,0.0941 3.76737,0.73752 1.48771,0.73055 3.5742,2.82129 3.28406,3.29075 -0.0756,0.12239 -0.73592,0.5028 -1.46729,0.84536 l -1.32975,0.62282 -1.05386,-0.9521 c -2.10824,-1.90467 -4.68655,-1.83437 -6.78293,0.18492 -2.0534,1.9779 -2.25501,5.14655 -0.47733,7.50205 1.85047,2.45194 5.90214,2.59136 7.65803,0.26352 l 0.47978,-0.63606 1.53284,0.67748 c 0.84306,0.3726 1.53283,0.79234 1.53283,0.93274 0,0.60217 -3.08387,3.21769 -4.17737,3.54295 -1.57356,0.46805 -3.422,0.58886 -4.7471,0.31026 z m -94.152823,-0.24265 c -0.06061,-0.0606 -0.110209,-3.71505 -0.110209,-8.12093 0,-7.97809 -0.0024,-8.01237 -0.588038,-8.42257 -0.539003,-0.37753 -0.04258,-0.41188 5.953125,-0.41188 h 6.541163 v 1.58078 1.58079 l -4.167187,0.0729 -4.167188,0.0729 v 1.71979 1.71979 l 4.180189,0.0729 4.180189,0.0729 -0.07915,1.51457 -0.07915,1.51457 -4.167187,0.0729 -4.167188,0.0729 v 1.84536 1.84537 H 37.752 41.985333 v 1.5875 c 0,0.87312 -0.0893,1.59116 -0.198437,1.59563 -2.009918,0.0824 -11.517717,0.0938 -11.597604,0.0139 z m 18.424926,-0.0193 c -0.114785,-0.0743 -1.242668,-3.76646 -2.506407,-8.20484 -1.26374,-4.43839 -2.347357,-8.21862 -2.408039,-8.40053 -0.08196,-0.24568 0.41866,-0.33072 1.946894,-0.33072 h 2.057225 l 1.425536,5.95456 c 0.784045,3.275 1.502761,5.86461 1.597146,5.75468 0.09439,-0.10993 0.744439,-2.40253 1.444561,-5.09466 0.700123,-2.69214 1.379235,-5.28175 1.509137,-5.75469 0.228713,-0.83269 0.280686,-0.85989 1.642812,-0.85989 h 1.406626 l 1.118529,4.29947 c 1.802227,6.92753 2.032301,7.713 2.183617,7.45486 0.07898,-0.13473 0.766899,-2.83457 1.528715,-5.99965 l 1.385119,-5.75468 h 1.955239 c 1.222814,0 1.955239,0.10696 1.955239,0.28555 0,0.57148 -4.62363,16.51989 -4.832796,16.66989 -0.230587,0.16536 -3.595228,0.11809 -3.732518,-0.0524 -0.04515,-0.0561 -0.653653,-2.36415 -1.352233,-5.12905 -0.698581,-2.7649 -1.357351,-5.26521 -1.463935,-5.55625 -0.227342,-0.62079 -0.143486,-0.89009 -1.853698,5.95313 -0.636433,2.54661 -1.183623,4.67034 -1.215976,4.7194 -0.09815,0.14881 -3.56686,0.19078 -3.790793,0.0459 z m 20.689345,0.045 -0.595313,-0.0845 v -8.44826 -8.44827 h 1.852084 1.852083 v 8.44114 8.44113 l -1.256771,0.0917 c -0.691224,0.0504 -1.524661,0.0536 -1.852083,0.007 z m 65.661092,-0.0257 c -0.0608,-0.0606 -0.11057,-3.90039 -0.11057,-8.53281 v -8.42257 h 1.85209 1.85208 v 6.87917 6.87917 h 3.5845 3.5845 l -0.0788,1.61986 -0.0788,1.61987 -5.24725,0.0338 c -2.88598,0.0186 -5.297,-0.0158 -5.35781,-0.0765 z m 12.06079,-0.0766 c 5.2e-4,-0.33374 0.84293,-2.5646 4.40599,-11.66778 1.66774,-4.26089 1.71972,-4.46213 1.24659,-4.82606 -0.43669,-0.33588 -0.1582,-0.37241 2.41068,-0.3162 l 2.90442,0.0636 3.23156,8.31871 c 1.77736,4.5753 3.17202,8.41506 3.09925,8.53282 -0.16487,0.26675 -3.30346,0.2766 -3.69723,0.0116 -0.15887,-0.10691 -0.50247,-0.75994 -0.76355,-1.45116 l -0.47471,-1.25677 h -3.67477 -3.67477 l -0.25383,0.7276 c -0.68529,1.96434 -0.79261,2.04445 -2.85103,2.12826 -1.42564,0.0581 -1.90899,-0.009 -1.9086,-0.26458 z m 11.10903,-6.2293 c -0.002,-0.15674 -1.49208,-4.34901 -2.28002,-6.41614 -0.17433,-0.45733 -0.1811,-0.44232 -1.70169,3.77031 l -1.02667,2.84427 h 2.50566 c 1.37812,0 2.50434,-0.0893 2.50272,-0.19844 z m 8.00321,6.34888 c -0.25055,-0.0835 -0.32734,-2.00579 -0.32734,-8.19384 0,-7.38945 -0.0398,-8.11495 -0.46303,-8.4362 -0.39053,-0.29646 0.28254,-0.35257 4.29948,-0.35842 5.101,-0.007 6.37991,0.19445 7.74151,1.22204 2.57919,1.9465 2.6348,6.62802 0.10087,8.4915 -0.44522,0.32743 -0.92635,0.59532 -1.06917,0.59532 -0.70422,0 -0.44282,0.77223 1.16429,3.43958 0.96377,1.59958 1.68356,3.01958 1.59953,3.15554 -0.13596,0.21999 -3.79816,0.19795 -3.9531,-0.0238 -0.0342,-0.049 -0.76883,-1.37399 -1.63245,-2.94447 l -1.57023,-2.85543 -1.32291,0.0773 -1.32292,0.0773 -0.0751,2.84427 c -0.0413,1.56435 -0.16036,2.85214 -0.26458,2.86176 -1.20473,0.11121 -2.64321,0.13474 -2.90485,0.0475 z m 8.77981,-9.83458 c 0.49175,-0.46221 0.68008,-0.90577 0.67401,-1.5875 -0.016,-1.79964 -1.03862,-2.40127 -4.08154,-2.40127 -2.23637,0 -2.26004,0.0249 -2.26004,2.38125 0,2.46202 -0.0192,2.44517 2.66273,2.34001 2.02408,-0.0794 2.41008,-0.17345 3.00484,-0.73249 z m 8.15691,9.83908 -1.38906,-0.0972 v -8.45284 -8.45284 h 1.71475 c 2.08615,0 2.07732,-0.0191 1.94718,4.21466 -0.0495,1.61136 -0.0105,2.9296 0.0868,2.92942 0.0973,-1.8e-4 1.45297,-1.60767 3.01265,-3.5722 l 2.83578,-3.57188 h 2.25387 c 2.12051,0 2.23052,0.0274 1.85921,0.46302 -0.21707,0.25466 -1.39579,1.65365 -2.6194,3.10886 -1.2236,1.4552 -2.55218,3.00302 -2.9524,3.43958 -0.40023,0.43656 -0.72823,0.87781 -0.72891,0.98056 -6.7e-4,0.10274 1.54704,2.11643 3.43936,4.47486 1.89232,2.35844 3.38416,4.34449 3.3152,4.41345 -0.10368,0.10368 -2.99605,0.15897 -3.99626,0.0764 -0.15575,-0.0129 -1.40444,-1.52726 -2.77486,-3.36533 l -2.49169,-3.34195 -0.65254,0.81047 c -0.60375,0.74988 -0.64677,0.99253 -0.57543,3.24589 0.0574,1.81227 -0.0135,2.49281 -0.27677,2.65972 -0.19462,0.12336 -0.41339,0.2041 -0.48615,0.1794 -0.0728,-0.0247 -0.75737,-0.0886 -1.52135,-0.14206 z M 16.849921,153.29947 c 0,-7.51986 -0.03783,-8.21097 -0.463021,-8.45862 -0.34041,-0.19827 0.150032,-0.27182 1.852083,-0.27773 l 2.315105,-0.008 v 6.87917 6.87916 h 3.571875 3.571875 v 1.5875 1.5875 h -5.423959 -5.423958 z m 77.427535,-3.10715 c -0.0931,-0.0931 -0.1692,-0.74466 -0.1692,-1.44801 0,-0.96034 0.0988,-1.27882 0.39688,-1.27882 0.29922,0 0.39687,0.32164 0.39687,1.3073 0,1.23557 -0.24704,1.79705 -0.62455,1.41953 z m 3.27038,-1.64645 c 0,-1.27735 0.0846,-1.60955 0.41008,-1.60955 0.33151,0 0.39488,0.28751 0.33073,1.50045 -0.11391,2.15409 -0.74081,2.24641 -0.74081,0.1091 z m 3.439594,-0.41892 c 0,-0.97014 0.11533,-1.71979 0.26458,-1.71979 0.14925,0 0.26458,0.74965 0.26458,1.71979 0,0.97014 -0.11533,1.71979 -0.26458,1.71979 -0.14925,0 -0.26458,-0.74965 -0.26458,-1.71979 z m 3.63802,-19.37523 c -0.72638,-0.10662 -0.72761,-0.11049 -0.72761,-2.29129 v -2.18449 l 1.65365,-0.055 c 0.9095,-0.0303 2.36802,-0.0811 3.24115,-0.11304 l 1.5875,-0.058 0.0766,2.16775 0.0766,2.16774 -1.31413,-0.0102 c -0.72278,-0.006 -1.70975,0.0696 -2.19327,0.16711 -1.52228,0.307 -1.65623,0.31868 -2.40049,0.20944 z m 3.90916,-1.14059 c 0.10941,-0.17702 -0.0635,-0.21657 -0.48469,-0.11085 -0.36411,0.0914 -0.73323,0.0374 -0.83153,-0.12169 -0.0978,-0.15825 0.007,-0.28602 0.23571,-0.28602 0.22687,0 0.41249,-0.11906 0.41249,-0.26458 0,-0.14552 -0.18562,-0.26458 -0.41249,-0.26458 -0.22687,0 -0.33538,-0.12476 -0.24114,-0.27725 0.0942,-0.15248 0.36916,-0.24373 0.61093,-0.20277 0.24177,0.041 0.49911,-0.0426 0.57187,-0.18578 0.0728,-0.14313 -0.19601,-0.29801 -0.59727,-0.34415 -0.55509,-0.0638 -0.79296,0.0627 -0.99468,0.52916 -0.22997,0.5318 -0.25429,0.48154 -0.18346,-0.37911 0.0559,-0.6793 -0.0267,-0.99219 -0.26209,-0.99219 -0.23102,0 -0.34375,0.39047 -0.34375,1.19063 0,0.88194 0.10289,1.19062 0.39688,1.19062 0.21828,0 0.39687,0.1786 0.39687,0.39688 0,0.46093 1.45337,0.56338 1.72635,0.12168 z"
         id="path6" /></g></g></svg>
