<?xml version="1.0" encoding="UTF-8" standalone="no"?>
<!-- Created with Inkscape (http://www.inkscape.org/) -->

<svg
   width="186.14751mm"
   height="57.718628mm"
   viewBox="0 0 186.14751 57.718628"
   version="1.1"
   id="svg1"
   xml:space="preserve"
   xmlns="http://www.w3.org/2000/svg"
   xmlns:svg="http://www.w3.org/2000/svg"><defs
     id="defs1" /><g
     id="layer1"
     transform="translate(-11.223524,-119.83981)"><rect
       style="fill:#ffffff;stroke-width:0.264583"
       id="rect1"
       width="186.14751"
       height="57.718628"
       x="11.223524"
       y="119.83981" /><g
       id="g12"
       transform="matrix(0.76167152,0,0,0.76167152,35.522505,62.078961)"><path
         style="fill:#9b0d34"
         d="m -25.880859,126.84459 c 0.704983,-1.20055 3.75369,-6.40953 6.774904,-11.57552 3.021215,-5.16599 5.527211,-9.43165 5.56888,-9.47925 0.04167,-0.0476 0.569166,0.64004 1.172215,1.52807 0.603049,0.88802 1.196612,1.55269 1.319028,1.47703 0.122417,-0.0757 1.3167249,-1.99335 2.6540186,-4.26153 1.3372936,-2.26819 2.4673109,-4.08454 2.5111495,-4.03634 0.4318589,0.47487 16.2749809,26.01916 16.2202789,26.15239 -0.04032,0.0982 -1.3234632,-0.0466 -2.851432,-0.32175 -3.4723519,-0.62531 -6.2788711,-0.5065 -10.0541667,0.42561 -3.1735655,0.78355 -5.3895997,0.85841 -8.0697913,0.27261 -3.153984,-0.68936 -4.671115,-0.92369 -7.276042,-1.12383 -2.379322,-0.18281 -2.478221,-0.21401 -1.852083,-0.58442 0.555776,-0.32878 2.827938,-0.40367 14.2213538,-0.46871 7.4579427,-0.0426 13.5598959,-0.12419 13.5598959,-0.18137 0,-0.0572 -3.1431315,-5.11421 -6.9847367,-11.23784 l -6.9847366,-11.13388 -2.5751052,4.38132 -2.5751052,4.38132 -1.176592,-1.75388 -1.176592,-1.75389 -5.622674,9.61386 c -3.092471,5.28762 -5.594994,9.65189 -5.561163,9.69837 0.03383,0.0465 0.788801,-0.0586 1.677713,-0.23344 2.373275,-0.46692 7.80168,-0.17425 10.606075,0.57181 3.1540052,0.83906 7.2234511,0.83858 10.31875,-0.001 3.2882486,-0.89217 5.8699863,-0.97649 9.6254166,-0.31436 1.7287187,0.3048 3.2210944,0.55417 3.3163914,0.55417 0.0953,0 0.384262,0.35719 0.642146,0.79375 l 0.46888,0.79375 H -7.5733141 -27.162645 Z m 60.8361,-1.96668 c 0.190996,-0.0764 0.419199,-0.067 0.507118,0.0209 0.08792,0.0879 -0.06835,0.15045 -0.347266,0.13896 -0.308225,-0.0127 -0.370919,-0.0754 -0.159852,-0.15985 z m 1.852083,0 c 0.190996,-0.0764 0.419199,-0.067 0.507118,0.0209 0.08792,0.0879 -0.06835,0.15045 -0.347266,0.13896 -0.308224,-0.0127 -0.370919,-0.0754 -0.159852,-0.15985 z m 83.343746,0 c 0.191,-0.0764 0.4192,-0.067 0.50712,0.0209 0.0879,0.0879 -0.0684,0.15045 -0.34726,0.13896 -0.30823,-0.0127 -0.37092,-0.0754 -0.15986,-0.15985 z m 1.85209,0 c 0.19099,-0.0764 0.4192,-0.067 0.50712,0.0209 0.0879,0.0879 -0.0683,0.15045 -0.34727,0.13896 -0.30822,-0.0127 -0.37092,-0.0754 -0.15985,-0.15985 z m 30.69166,0 c 0.191,-0.0764 0.4192,-0.067 0.50712,0.0209 0.0879,0.0879 -0.0684,0.15045 -0.34726,0.13896 -0.30823,-0.0127 -0.37092,-0.0754 -0.15986,-0.15985 z m 21.43125,0 c 0.191,-0.0764 0.4192,-0.067 0.50712,0.0209 0.0879,0.0879 -0.0684,0.15045 -0.34726,0.13896 -0.30823,-0.0127 -0.37092,-0.0754 -0.15986,-0.15985 z m 1.85209,0 c 0.19099,-0.0764 0.4192,-0.067 0.50712,0.0209 0.0879,0.0879 -0.0683,0.15045 -0.34727,0.13896 -0.30822,-0.0127 -0.37092,-0.0754 -0.15985,-0.15985 z m 21.69583,0 c 0.191,-0.0764 0.4192,-0.067 0.50712,0.0209 0.0879,0.0879 -0.0683,0.15045 -0.34727,0.13896 -0.30822,-0.0127 -0.37092,-0.0754 -0.15985,-0.15985 z m 1.85208,0 c 0.191,-0.0764 0.4192,-0.067 0.50712,0.0209 0.0879,0.0879 -0.0683,0.15045 -0.34726,0.13896 -0.30823,-0.0127 -0.37092,-0.0754 -0.15986,-0.15985 z M 17.211621,124.60267 c 0.472942,-0.0587 1.246849,-0.0587 1.719791,0 0.472943,0.0587 0.08599,0.10671 -0.859896,0.10671 -0.945885,0 -1.332838,-0.048 -0.859895,-0.10671 z m 8.441017,-0.007 c -0.06766,-0.10914 0.490856,-0.16406 1.241156,-0.12203 2.255315,0.1263 2.530251,0.24621 0.652192,0.28444 -0.973678,0.0198 -1.825684,-0.0533 -1.893348,-0.16241 z m 18.017316,0.007 c 0.472943,-0.0587 1.246849,-0.0587 1.719792,0 0.472943,0.0587 0.08599,0.10671 -0.859896,0.10671 -0.945885,0 -1.332839,-0.048 -0.859896,-0.10671 z m 16.063569,0.002 1.447988,-0.10084 0.08831,-2.89796 0.0883,-2.89796 -0.01362,2.97705 -0.01362,2.97706 -1.522679,0.0218 -1.522679,0.0217 z m 6.426015,-0.002 c 0.472942,-0.0587 1.246849,-0.0587 1.719791,0 0.472943,0.0587 0.08599,0.10671 -0.859896,0.10671 -0.945885,0 -1.332838,-0.048 -0.859895,-0.10671 z m 9.446184,-0.14309 c -0.07059,-0.18396 -0.09463,-3.60701 -0.05341,-7.60677 l 0.07494,-7.27228 0.06171,7.46185 0.06171,7.46186 1.653645,0.0939 1.653646,0.0939 -1.66195,0.051 c -1.135042,0.0348 -1.702643,-0.0551 -1.790303,-0.28351 z m 13.577304,0.14274 c 0.475549,-0.0589 1.189924,-0.0577 1.5875,0.003 0.397576,0.0604 0.0085,0.10855 -0.864634,0.10706 -0.873125,-10e-4 -1.198415,-0.0509 -0.722866,-0.10976 z m 10.909324,0.0417 c 0.9018,-0.20153 2.91042,-0.23622 2.91042,-0.0503 0,0.11019 -0.74414,0.18654 -1.65365,0.16966 -0.9095,-0.0169 -1.475051,-0.0706 -1.25677,-0.11938 z m 4.08837,-0.18442 c -0.0706,-0.18396 -0.0946,-3.60701 -0.0534,-7.60677 l 0.075,-7.27228 0.0617,7.46127 0.0617,7.46128 1.52136,0.0955 1.52135,0.0955 -1.52966,0.05 c -1.02788,0.0336 -1.57176,-0.0597 -1.65801,-0.28446 z m 8.02106,0.14274 c 0.47555,-0.0589 1.18992,-0.0577 1.5875,0.003 0.39757,0.0604 0.008,0.10855 -0.86464,0.10706 -0.87312,-0.001 -1.19841,-0.0509 -0.72286,-0.10976 z m 49.92994,0.002 1.45243,-0.10098 0.0764,-7.3291 0.0764,-7.32911 -0.006,7.40833 -0.006,7.40834 -1.52268,0.0218 -1.52268,0.0217 z m 4.7625,0 1.45243,-0.10098 0.0764,-7.3291 0.0764,-7.32911 -0.006,7.40833 -0.006,7.40834 -1.52268,0.0218 -1.52268,0.0217 z m 22.16485,-0.73627 c 0.003,-0.58209 0.0571,-0.78906 0.12041,-0.45994 0.0633,0.32912 0.0609,0.80537 -0.005,1.05833 -0.0662,0.25297 -0.118,-0.0163 -0.11507,-0.59839 z m 2.90392,-4.43177 -0.0602,-5.49011 h -1.30452 c -1.09182,0 -1.32404,0.0869 -1.42426,0.53322 -0.0996,0.44356 -0.11383,0.43244 -0.0846,-0.0661 0.0312,-0.53131 0.19327,-0.60846 1.42722,-0.67944 0.97423,-0.056 1.43258,0.0256 1.52715,0.27204 0.0743,0.19367 0.10008,2.73002 0.0573,5.63633 l -0.0779,5.2842 z m -208.618036,4.67624 c 0.327422,-0.24272 0.595312,-0.58627 0.595312,-0.76344 0,-0.17718 0.310661,-0.46368 0.690357,-0.63668 0.494283,-0.22521 0.652386,-0.45975 0.556665,-0.82579 -0.09471,-0.36217 0.134954,-0.71615 0.787642,-1.21398 0.609091,-0.46458 0.879894,-0.86121 0.799055,-1.17034 -0.06762,-0.25857 0.10617,-0.66321 0.38875,-0.90516 0.32194,-0.27566 0.452671,-0.62143 0.35331,-0.93449 -0.08675,-0.27332 -0.02206,-0.58078 0.143753,-0.68326 0.165811,-0.10247 0.46365,-0.55898 0.661865,-1.01445 0.198215,-0.45547 0.365051,-0.63435 0.370747,-0.39751 0.0057,0.23684 0.181873,0.57297 0.391504,0.74695 0.209632,0.17398 0.321847,0.47086 0.249367,0.65974 -0.07248,0.18888 0.0239,0.51262 0.214165,0.71943 0.19027,0.20681 0.4761792,0.60912 0.6353541,0.89401 0.1591748,0.2849 0.6604242,0.77081 1.1138876,1.0798 0.4534633,0.309 0.7399481,0.65551 0.6366328,0.77003 -0.1033152,0.11452 -0.028644,0.11616 0.165937,0.004 0.2401639,-0.13887 0.2672296,-0.29113 0.084276,-0.47408 -0.1829534,-0.18295 -0.1078106,-0.5712 0.233977,-1.2089 0.3687455,-0.688 0.4272091,-1.0313 0.2184641,-1.28282 -0.2124966,-0.25604 -0.1095904,-0.55191 0.4044276,-1.16279 0.7271702,-0.86419 0.8668078,-1.43166 0.420207,-1.70768 -0.1649233,-0.10193 -0.062411,-0.42934 0.2645833,-0.84504 0.293603,-0.37326 0.5338236,-0.90115 0.5338236,-1.17309 0,-0.27195 0.2237083,-0.91184 0.4971295,-1.42198 l 0.4971296,-0.92754 0.4289121,0.6546 c 0.2359017,0.36003 0.4289121,0.94395 0.4289121,1.2976 0,0.35365 0.284298,0.91663 0.6317733,1.25106 0.5090474,0.48994 0.5750148,0.69894 0.3395895,1.07592 -0.2318335,0.37122 -0.1666445,0.63766 0.3156101,1.28995 0.3342866,0.45214 0.5395014,1.00005 0.4560329,1.21756 -0.2001772,0.52166 0.463154,1.77333 1.2805074,2.41626 0.46529822,0.36601 0.57118792,0.59517 0.36861215,0.79775 -0.3466274,0.34662 0.52546887,1.86788 1.36561417,2.38213 0.30495328,0.18666 0.48630888,0.44965 0.40301248,0.58443 -0.083296,0.13478 0.2990366,0.48281 0.8496291,0.7734 l 1.0010773,0.52836 -7.4083334,-0.006 c -5.5194803,-0.005 -7.2565504,-0.0794 -6.8130204,-0.29332 0.327422,-0.15791 0.595312,-0.37885 0.595312,-0.49098 0,-0.11213 -0.34442,-0.032 -0.765378,0.17795 -0.42925,0.21414 -1.910749,0.44297 -3.373438,0.52105 -2.480388,0.13241 -2.578917,0.11763 -2.012746,-0.30208 z m 7.61546,-2.17606 c -0.075014,-0.075 0.011405,-0.32594 0.1920436,-0.55761 0.2915972,-0.37398 0.275785,-0.3799 -0.1409811,-0.0528 -0.2581781,0.20264 -0.4080392,0.42981 -0.3330247,0.50483 0.075015,0.075 -0.011405,0.32593 -0.1920436,0.5576 -0.2915971,0.37398 -0.275785,0.3799 0.1409811,0.0528 0.2581781,-0.20264 0.4080393,-0.42981 0.3330247,-0.50482 z m 194.807326,2.4123 c 0.191,-0.0764 0.4192,-0.067 0.50712,0.0209 0.0879,0.0879 -0.0683,0.15046 -0.34727,0.13897 -0.30822,-0.0127 -0.37092,-0.0754 -0.15985,-0.15986 z m -153.830737,-0.94373 -0.504028,-0.59532 0.595312,0.50403 c 0.327422,0.27722 0.595313,0.54511 0.595313,0.59531 0,0.21174 -0.212935,0.0554 -0.686597,-0.50402 z m 49.600765,0.13229 c -0.329108,-0.41965 -0.319749,-0.429 0.0999,-0.0999 0.440729,0.34565 0.580887,0.56292 0.363126,0.56292 -0.05494,0 -0.263302,-0.20836 -0.463021,-0.46302 z m 62.740002,0.38023 c 0,-0.0455 0.38695,-0.43249 0.85989,-0.8599 l 0.8599,-0.7771 -0.77711,0.85989 c -0.72437,0.80155 -0.94268,0.98151 -0.94268,0.77711 z m 13.36146,-0.44638 c 0.26338,-0.29104 0.53842,-0.52916 0.61118,-0.52916 0.0728,0 -0.0832,0.23812 -0.3466,0.52916 -0.26339,0.29104 -0.53842,0.52917 -0.61118,0.52917 -0.0728,0 0.0832,-0.23813 0.3466,-0.52917 z m 13.46861,-0.0661 -0.50403,-0.59532 0.59531,0.50403 c 0.32742,0.27722 0.59531,0.54511 0.59531,0.59531 0,0.21174 -0.21293,0.0554 -0.68659,-0.50402 z m 23.54791,0 -0.50402,-0.59532 0.59531,0.50403 c 0.32742,0.27722 0.59531,0.54511 0.59531,0.59531 0,0.21174 -0.21293,0.0554 -0.6866,-0.50402 z m -92.07776,-3.77032 c 4.2e-4,-2.03729 0.0419,-2.83575 0.0923,-1.77436 0.0504,1.06139 0.05,2.72827 -7.5e-4,3.70417 -0.0508,0.9759 -0.092,0.10749 -0.0915,-1.92981 z m -4.07314,2.94282 c 0,-0.0549 0.20836,-0.2633 0.463021,-0.46302 0.419644,-0.32911 0.429002,-0.31975 0.0999,0.0999 -0.345644,0.44073 -0.562916,0.58089 -0.562916,0.36313 z M 37.3861,122.31292 c 0,-0.0549 0.208359,-0.2633 0.463021,-0.46302 0.419644,-0.3291 0.429002,-0.31975 0.0999,0.0999 -0.345644,0.44073 -0.562916,0.58089 -0.562916,0.36312 z m 114.53084,-0.36312 c -0.32911,-0.41965 -0.31975,-0.429 0.0999,-0.0999 0.44073,0.34565 0.58089,0.56292 0.36313,0.56292 -0.055,0 -0.26331,-0.20836 -0.46302,-0.46302 z m 21.43125,0 c -0.32911,-0.41965 -0.31975,-0.429 0.0999,-0.0999 0.44073,0.34565 0.58089,0.56292 0.36313,0.56292 -0.0549,0 -0.26331,-0.20836 -0.46302,-0.46302 z m 23.54791,0 c -0.32911,-0.41965 -0.31975,-0.429 0.0999,-0.0999 0.44073,0.34565 0.58088,0.56292 0.36312,0.56292 -0.0549,0 -0.2633,-0.20836 -0.46302,-0.46302 z m -59.39035,-0.92604 -0.50402,-0.59532 0.59531,0.50403 c 0.55944,0.47366 0.71576,0.6866 0.50403,0.6866 -0.0502,0 -0.3181,-0.26789 -0.59532,-0.59531 z m -95.814254,-1.78594 c 0,-0.65484 0.0516,-0.92274 0.114662,-0.59531 0.06306,0.32742 0.06306,0.8632 0,1.19062 -0.06306,0.32742 -0.114662,0.0595 -0.114662,-0.59531 z m 106.362504,0 c 0,-0.65484 0.0516,-0.92274 0.11466,-0.59531 0.0631,0.32742 0.0631,0.8632 0,1.19062 -0.0631,0.32742 -0.11466,0.0595 -0.11466,-0.59531 z m -114.575266,0 c 0,-0.50932 0.05445,-0.71768 0.121,-0.46302 0.06655,0.25466 0.06655,0.67138 0,0.92604 -0.06655,0.25466 -0.121,0.0463 -0.121,-0.46302 z m 54.76875,0 c 0,-0.50932 0.05445,-0.71768 0.121,-0.46302 0.06655,0.25466 0.06655,0.67138 0,0.92604 -0.06655,0.25466 -0.121,0.0463 -0.121,-0.46302 z m 67.997916,0 c 0,-0.50932 0.0545,-0.71768 0.121,-0.46302 0.0666,0.25466 0.0666,0.67138 0,0.92604 -0.0666,0.25466 -0.121,0.0463 -0.121,-0.46302 z m 32.80834,-0.26458 c 0,-0.50933 0.0544,-0.71769 0.12099,-0.46303 0.0665,0.25467 0.0665,0.67139 0,0.92605 -0.0666,0.25466 -0.12099,0.0463 -0.12099,-0.46302 z m -44.57754,-0.1914 c 0.47295,-0.0587 1.24685,-0.0587 1.7198,0 0.47294,0.0587 0.086,0.10671 -0.8599,0.10671 -0.94588,0 -1.33284,-0.048 -0.8599,-0.10671 z m -11.53374,-0.60235 c 0,-0.36381 0.06,-0.51263 0.13345,-0.33073 0.0734,0.1819 0.0734,0.47955 0,0.66145 -0.0734,0.18191 -0.13345,0.0331 -0.13345,-0.33072 z m -36.603886,0.0838 c 0.190996,-0.0764 0.419199,-0.067 0.507118,0.0209 0.08792,0.0879 -0.06835,0.15045 -0.347265,0.13896 -0.308225,-0.0127 -0.37092,-0.0754 -0.159853,-0.15985 z m 14.887166,-0.50277 c 0.0127,-0.30822 0.0754,-0.37092 0.15985,-0.15985 0.0764,0.191 0.067,0.4192 -0.0209,0.50712 -0.0879,0.0879 -0.15045,-0.0684 -0.13896,-0.34727 z m 61.53486,0.22049 c -0.0679,-0.10914 0.60972,-0.16528 1.50574,-0.12476 2.91783,0.13196 3.263,0.23766 0.91715,0.28085 -1.26472,0.0233 -2.35502,-0.0469 -2.42289,-0.15609 z m 23.54792,0 c -0.0679,-0.10914 0.60971,-0.16528 1.50574,-0.12476 2.91783,0.13196 3.26299,0.23766 0.91714,0.28085 -1.26472,0.0233 -2.35501,-0.0469 -2.42288,-0.15609 z M 68.363238,116.70223 c 0.0127,-0.30823 0.07539,-0.37092 0.159853,-0.15985 0.07643,0.19099 0.06703,0.4192 -0.02089,0.50711 -0.08792,0.0879 -0.150453,-0.0684 -0.138965,-0.34726 z m -30.746304,-0.30868 c -0.329107,-0.41965 -0.319749,-0.429 0.09989,-0.0999 0.440729,0.34565 0.580887,0.56292 0.363126,0.56292 -0.05494,0 -0.263301,-0.20836 -0.463021,-0.46302 z m 24.110833,0.36312 c 0,-0.0549 0.208359,-0.2633 0.463021,-0.46302 0.419643,-0.3291 0.429002,-0.31975 0.09989,0.0999 -0.345643,0.44073 -0.562915,0.58089 -0.562915,0.36312 z m 48.914163,-0.36312 c -0.3291,-0.41965 -0.31974,-0.429 0.0999,-0.0999 0.25466,0.19972 0.46302,0.40808 0.46302,0.46302 0,0.21777 -0.21727,0.0776 -0.56292,-0.36312 z m 41.04417,0.36312 c 0,-0.0549 0.20836,-0.2633 0.46302,-0.46302 0.41965,-0.3291 0.429,-0.31975 0.0999,0.0999 -0.34565,0.44073 -0.56292,0.58089 -0.56292,0.36312 z m -18.76453,-0.58361 c 0.0127,-0.30822 0.0754,-0.37092 0.15985,-0.15985 0.0764,0.191 0.067,0.4192 -0.0209,0.50712 -0.0879,0.0879 -0.15046,-0.0683 -0.13897,-0.34727 z m -69.672449,-0.28547 c 0.181901,-0.0734 0.479557,-0.0734 0.661458,0 0.181901,0.0734 0.03307,0.13345 -0.330729,0.13345 -0.363802,0 -0.51263,-0.0601 -0.330729,-0.13345 z m 45.910249,-0.008 c 0.25743,-0.0671 0.61461,-0.0627 0.79375,0.01 0.17913,0.0725 -0.0315,0.12736 -0.46806,0.12197 -0.43656,-0.005 -0.58313,-0.0647 -0.32569,-0.13177 z m -77.197228,-0.87498 c 0.263389,-0.29105 0.53842,-0.52917 0.61118,-0.52917 0.07276,0 -0.08321,0.23812 -0.346597,0.52917 -0.263389,0.29104 -0.538421,0.52916 -0.611181,0.52916 -0.07276,0 0.08321,-0.23812 0.346598,-0.52916 z m 125.651948,-0.0662 -0.50403,-0.59531 0.59531,0.50403 c 0.32742,0.27721 0.59531,0.5451 0.59531,0.59531 0,0.21173 -0.21293,0.0554 -0.68659,-0.50403 z m 21.16666,0 -0.50402,-0.59531 0.59531,0.50403 c 0.32742,0.27721 0.59531,0.5451 0.59531,0.59531 0,0.21173 -0.21293,0.0554 -0.6866,-0.50403 z m 23.54792,0 -0.50403,-0.59531 0.59532,0.50403 c 0.32742,0.27721 0.59531,0.5451 0.59531,0.59531 0,0.21173 -0.21294,0.0554 -0.6866,-0.50403 z m -141.031098,-2.4474 c 5.97e-4,-1.60072 0.04417,-2.22146 0.09684,-1.3794 0.05267,0.84206 0.05218,2.15175 -0.0011,2.91042 -0.05326,0.75867 -0.09635,0.0697 -0.09575,-1.53102 z m 20.406237,2.24896 c 0.263389,-0.29104 0.53842,-0.52916 0.61118,-0.52916 0.07276,0 -0.08321,0.23812 -0.346597,0.52916 -0.263389,0.29104 -0.538421,0.52917 -0.611181,0.52917 -0.07276,0 0.08321,-0.23813 0.346598,-0.52917 z m 11.509375,0.42927 c 0,-0.0549 0.208359,-0.2633 0.46302,-0.46302 0.419644,-0.3291 0.429003,-0.31975 0.0999,0.0999 -0.345643,0.44073 -0.562915,0.58089 -0.562915,0.36312 z m 8.432916,-0.6277 c -0.32911,-0.41965 -0.31975,-0.42901 0.0999,-0.0999 0.25466,0.19972 0.46302,0.40808 0.46302,0.46302 0,0.21776 -0.21727,0.0776 -0.56292,-0.36312 z M 43.674693,113.7544 c 0.475548,-0.0589 1.189923,-0.0577 1.5875,0.003 0.397576,0.0604 0.0085,0.10855 -0.864635,0.10707 -0.873125,-10e-4 -1.198414,-0.0509 -0.722865,-0.10977 z m 7.406679,0.005 c 0.329119,-0.0633 0.805369,-0.0609 1.058334,0.005 0.252964,0.0662 -0.01631,0.11801 -0.598398,0.11507 -0.582083,-0.003 -0.789054,-0.0571 -0.459936,-0.12041 z m 4.759416,4.1e-4 c 0.327421,-0.0631 0.863203,-0.0631 1.190625,0 0.327421,0.0631 0.05953,0.11466 -0.595313,0.11466 -0.654844,0 -0.922734,-0.0516 -0.595312,-0.11466 z m -19.033464,-0.2586 c 0.190996,-0.0764 0.419199,-0.067 0.507118,0.0209 0.08792,0.0879 -0.06835,0.15045 -0.347266,0.13896 -0.308224,-0.0127 -0.370919,-0.0754 -0.159852,-0.15985 z m 59.795834,0 c 0.190996,-0.0764 0.419199,-0.067 0.507118,0.0209 0.08792,0.0879 -0.06835,0.15045 -0.347266,0.13896 -0.308224,-0.0127 -0.370919,-0.0754 -0.159852,-0.15985 z m 2.116666,0 c 0.190996,-0.0764 0.4192,-0.067 0.507118,0.0209 0.08792,0.0879 -0.06835,0.15045 -0.347265,0.13896 -0.308225,-0.0127 -0.370919,-0.0754 -0.159853,-0.15985 z m 12.435416,0 c 0.191,-0.0764 0.4192,-0.067 0.50712,0.0209 0.0879,0.0879 -0.0684,0.15045 -0.34727,0.13896 -0.30822,-0.0127 -0.37092,-0.0754 -0.15985,-0.15985 z m 8.99583,0 c 0.191,-0.0764 0.4192,-0.067 0.50712,0.0209 0.0879,0.0879 -0.0684,0.15045 -0.34726,0.13896 -0.30823,-0.0127 -0.37092,-0.0754 -0.15986,-0.15985 z m 1.85209,0 c 0.19099,-0.0764 0.4192,-0.067 0.50712,0.0209 0.0879,0.0879 -0.0683,0.15045 -0.34727,0.13896 -0.30822,-0.0127 -0.37092,-0.0754 -0.15985,-0.15985 z m 30.69166,0 c 0.191,-0.0764 0.4192,-0.067 0.50712,0.0209 0.0879,0.0879 -0.0684,0.15045 -0.34726,0.13896 -0.30823,-0.0127 -0.37092,-0.0754 -0.15986,-0.15985 z m 32.27917,0 c 0.191,-0.0764 0.4192,-0.067 0.50712,0.0209 0.0879,0.0879 -0.0684,0.15045 -0.34727,0.13896 -0.30822,-0.0127 -0.37092,-0.0754 -0.15985,-0.15985 z m -39.9225,-2.39895 -0.64143,-0.7276 0.7276,0.64143 c 0.40019,0.35279 0.72761,0.68021 0.72761,0.7276 0,0.20751 -0.21426,0.0386 -0.81378,-0.64143 z m -5.33779,-1.84037 c 0.32743,-0.0631 0.86321,-0.0631 1.19063,0 0.32742,0.0631 0.0595,0.11466 -0.59531,0.11466 -0.65485,0 -0.92274,-0.0516 -0.59532,-0.11466 z"
         id="path13" /><path
         style="fill:#0a0c0c"
         d="m 184.36214,128.4281 c -1.51876,-0.62519 -2.03143,-1.0362 -2.40365,-1.92704 -0.20596,-0.49293 -0.37447,-0.9596 -0.37447,-1.03703 0,-0.0774 0.63337,-0.14079 1.40749,-0.14079 1.17157,0 1.5039,0.11087 1.98263,0.66145 0.43745,0.50312 0.83305,0.66146 1.65261,0.66146 0.59261,0 1.29525,-0.11655 1.56142,-0.259 0.55914,-0.29924 1.06876,-1.59094 1.06876,-2.70891 v -0.77229 l -0.85989,0.61333 c -1.1914,0.84978 -4.03384,0.88103 -5.13997,0.0565 -1.38423,-1.03181 -1.80534,-2.10992 -1.80534,-4.62188 0,-2.0307 0.0761,-2.38326 0.72647,-3.36606 0.75983,-1.14818 1.63183,-1.72609 2.9939,-1.98418 1.13615,-0.21529 2.69818,0.19036 3.44895,0.89567 l 0.63588,0.59739 v -0.57529 c 0,-0.51475 0.14067,-0.57529 1.33675,-0.57529 h 1.33674 l -0.08,6.06675 c -0.09,6.83134 -0.1496,7.0514 -2.18089,8.06003 -1.23471,0.61308 -4.19899,0.81145 -5.30742,0.35517 z m 3.64933,-6.81317 c 2.03875,-1.60368 1.21265,-5.81669 -1.14055,-5.81669 -1.61793,0 -2.64107,1.18376 -2.64107,3.05572 0,2.58162 2.0795,4.09986 3.78162,2.76097 z m -153.657668,3.05874 c -2.270034,-0.61445 -3.843918,-2.84015 -3.843918,-5.43585 0,-4.42478 4.415829,-7.0426 8.463716,-5.01751 1.153632,0.57714 1.717668,1.1916 2.238868,2.43901 0.812387,1.94431 0.382768,5.2577 -0.859896,6.63187 -1.220465,1.34961 -3.866967,1.95953 -5.99877,1.38248 z m 3.046953,-2.26869 c 0.786934,-0.42116 1.308262,-1.68324 1.308262,-3.16716 0,-2.25719 -0.910554,-3.43958 -2.648792,-3.43958 -1.802111,0 -3.015617,2.39565 -2.390136,4.71851 0.478637,1.77752 2.256319,2.67727 3.730666,1.88823 z m 46.191454,2.26611 c -2.675299,-0.95372 -3.998443,-4.25507 -3.059943,-7.63481 0.868061,-3.12607 4.894948,-4.58147 7.069892,-2.55521 l 0.583942,0.54403 v -2.65614 -2.65614 h 1.5875 1.5875 v 7.40833 7.40834 h -1.455208 c -1.317707,0 -1.455208,-0.0544 -1.455208,-0.57529 v -0.57529 l -0.595313,0.54993 c -0.530647,0.49019 -2.272536,1.1437 -2.976562,1.11672 -0.145521,-0.006 -0.724491,-0.17409 -1.2866,-0.37447 z m 3.740343,-2.52393 c 1.291035,-1.20278 1.366188,-4.11159 0.143763,-5.56436 -0.885294,-1.05211 -2.346495,-1.09571 -3.34247,-0.0997 -1.338244,1.33824 -1.193552,4.5093 0.257846,5.65097 0.88103,0.69302 2.204736,0.69892 2.940861,0.0131 z m 7.471939,2.64618 c -1.345017,-0.32453 -2.385057,-1.6009 -2.385057,-2.927 0,-2.23556 1.140249,-3.16065 4.365625,-3.54187 1.807981,-0.21369 2.778125,-0.72183 2.778125,-1.4551 0,-0.80487 -0.740424,-1.33572 -1.863062,-1.33572 -0.839327,0 -1.140851,0.14789 -1.618358,0.79375 -0.523946,0.70868 -0.737482,0.79375 -1.992296,0.79375 -1.614107,0 -1.728934,-0.22983 -0.806647,-1.61452 0.902614,-1.35515 2.301229,-1.92392 4.693053,-1.90852 2.185036,0.0141 3.430656,0.46599 4.073836,1.47803 0.27311,0.42974 0.40166,1.79253 0.47369,5.02157 l 0.0988,4.43178 h -1.39724 c -1.07391,0 -1.397243,-0.0931 -1.397243,-0.40226 0,-0.34206 -0.148455,-0.32701 -0.992188,0.10059 -1.245322,0.63112 -2.834956,0.85413 -4.031088,0.56552 z m 4.109261,-2.50079 c 0.48099,-0.48099 0.649432,-0.93439 0.649432,-1.7481 0,-0.82239 -0.09129,-1.06363 -0.363049,-0.95935 -0.199676,0.0766 -0.929955,0.22433 -1.622841,0.32823 -1.317644,0.1976 -2.247444,0.8673 -2.247444,1.61876 0,1.43354 2.401301,1.94306 3.583902,0.76046 z m 20.913678,2.47594 c -2.55974,-0.61453 -4.12466,-2.7129 -4.12466,-5.53067 0,-1.86555 0.98753,-3.98289 2.20999,-4.73842 2.83629,-1.75292 6.99368,-0.87688 8.24913,1.73825 0.97369,2.02822 0.77798,5.0058 -0.44353,6.74777 -0.9799,1.39742 -3.86272,2.26999 -5.89093,1.78307 z m 2.98541,-2.64566 c 0.75706,-0.70531 1.09201,-1.59022 1.09201,-2.88501 0,-2.09453 -1.04005,-3.43958 -2.65964,-3.43958 -1.83664,0 -2.92905,1.95684 -2.50234,4.48248 0.35962,2.12859 2.64983,3.16517 4.06997,1.84211 z m 15.33203,2.58245 c -3.10074,-0.87428 -4.99275,-3.62263 -5.0389,-7.31954 -0.0262,-2.10258 0.35558,-3.54237 1.32038,-4.97892 1.43629,-2.13859 3.14484,-2.95887 6.14725,-2.9513 2.92356,0.007 5.20386,1.56015 5.95465,4.05484 l 0.37004,1.22954 h -1.56805 c -1.47974,0 -1.59151,-0.0454 -1.98456,-0.80545 -0.22909,-0.443 -0.79769,-1.03786 -1.26357,-1.32193 -1.83385,-1.11816 -4.0341,-0.32382 -5.16565,1.86493 -0.51595,0.998 -0.597,1.48535 -0.50568,3.04058 0.18407,3.13506 1.4554,4.62723 3.94408,4.62922 1.47593,0.001 2.65634,-0.8408 3.16992,-2.26107 0.32471,-0.89797 0.35529,-0.91294 1.86447,-0.91294 1.67761,0 1.70376,0.0346 1.22729,1.62495 -0.40018,1.33568 -1.8534,3.01415 -3.20794,3.70519 -1.34266,0.68497 -3.63816,0.86024 -5.26373,0.4019 z m 14.33498,0.11361 c -2.83224,-0.5958 -4.23333,-2.44294 -4.23333,-5.58107 0,-2.52003 0.84078,-4.11447 2.64583,-5.01751 4.04789,-2.02509 8.46372,0.59273 8.46372,5.01751 0,3.75733 -3.19981,6.35445 -6.87622,5.58107 z m 2.73607,-2.68484 c 1.4492,-1.13994 1.53866,-4.21845 0.16258,-5.59454 -0.78676,-0.78676 -1.96498,-0.97637 -2.9133,-0.46885 -1.70966,0.91498 -1.74567,5.3342 -0.0515,6.32096 0.75952,0.44238 2.06491,0.3224 2.80222,-0.25757 z m 18.30872,2.53662 c -4.64023,-1.24541 -5.21203,-8.27057 -0.85498,-10.50427 1.27565,-0.65398 3.63727,-0.7713 4.68217,-0.2326 1.85165,0.95463 3.17385,3.18425 3.17385,5.35204 v 0.74573 h -3.96875 c -2.18281,0 -3.96875,0.0633 -3.96875,0.14079 0,0.52664 0.84218,1.98317 1.28313,2.21916 0.93762,0.5018 2.31847,0.33802 3.16654,-0.37558 0.58949,-0.49602 1.09087,-0.66145 2.00467,-0.66145 0.67022,0 1.21858,0.0654 1.21858,0.14543 0,0.08 -0.17432,0.48252 -0.38737,0.89452 -0.60359,1.16722 -1.85331,2.06105 -3.32209,2.37605 -1.57702,0.33821 -1.36946,0.34505 -3.027,-0.0998 z m 3.82604,-7.03238 c 0,-1.53583 -2.41648,-2.38057 -3.76824,-1.31727 -0.65667,0.51653 -1.07544,1.4245 -0.78909,1.71085 0.0812,0.0812 1.1398,0.14762 2.35247,0.14762 2.04481,0 2.20486,-0.0393 2.20486,-0.5412 z m 19.72187,7.03238 c -4.64022,-1.24541 -5.21203,-8.27057 -0.85498,-10.50427 1.27566,-0.65398 3.63727,-0.7713 4.68217,-0.2326 1.85165,0.95463 3.17386,3.18425 3.17386,5.35204 v 0.74573 h -3.96875 c -2.18281,0 -3.96875,0.0633 -3.96875,0.14079 0,0.52664 0.84217,1.98317 1.28312,2.21916 0.93763,0.5018 2.31848,0.33802 3.16655,-0.37558 0.58948,-0.49602 1.09087,-0.66145 2.00467,-0.66145 0.67022,0 1.21858,0.0654 1.21858,0.14543 0,0.08 -0.17432,0.48252 -0.38737,0.89452 -0.6036,1.16722 -1.85331,2.06105 -3.3221,2.37605 -1.57702,0.33821 -1.36945,0.34505 -3.027,-0.0998 z m 3.82605,-7.03238 c 0,-1.53583 -2.41649,-2.38057 -3.76825,-1.31727 -0.65666,0.51653 -1.07544,1.4245 -0.78908,1.71085 0.0812,0.0812 1.1398,0.14762 2.35247,0.14762 2.0448,0 2.20486,-0.0393 2.20486,-0.5412 z m -146.84375,6.96892 c -0.218281,-0.0798 -0.664766,-0.3888 -0.992187,-0.68669 -0.564453,-0.51353 -0.595313,-0.73809 -0.595313,-4.33195 v -3.79033 h -0.926042 c -0.881944,0 -0.926041,-0.0441 -0.926041,-0.92605 0,-0.88194 0.0441,-0.92604 0.926041,-0.92604 h 0.926042 v -1.71979 -1.71979 h 1.455208 1.455209 v 1.71979 1.71979 H 56.4361 c 1.033135,0 1.058333,0.022 1.058333,0.92604 0,0.904 -0.0252,0.92605 -1.058333,0.92605 h -1.058333 v 2.98979 c 0,3.24768 0.143134,3.62479 1.375833,3.62479 0.701636,0 0.740833,0.063 0.740833,1.19062 v 1.19063 l -1.521354,-0.0209 c -0.836745,-0.0115 -1.699948,-0.0862 -1.918229,-0.16597 z m -37.570834,-7.48606 v -7.40833 l 1.653646,2.7e-4 1.653646,2.8e-4 3.042708,4.90548 3.042709,4.90548 0.07198,-4.90575 0.07198,-4.90576 h 1.581662 1.581662 v 7.42042 7.42042 l -1.769734,-0.0782 -1.769734,-0.0782 -2.926621,-4.73413 -2.92662,-4.73414 -0.07211,4.80028 -0.07212,4.80029 h -1.581531 -1.581532 z m 26.458334,2.11667 v -5.29167 h 1.455208 c 1.451521,0 1.455209,0.002 1.455209,0.82173 v 0.82173 l 0.742871,-0.79524 c 0.759769,-0.81334 2.437182,-1.46037 3.113324,-1.20091 0.255359,0.098 0.377138,0.56276 0.377138,1.43933 v 1.29461 h -0.939181 c -1.227484,0 -2.319216,0.58251 -2.713475,1.44782 -0.186288,0.40885 -0.316094,1.93815 -0.316094,3.72401 v 3.03026 h -1.5875 -1.5875 z m 15.345833,-2.11667 v -7.40833 h 1.455209 1.455208 v 2.82763 2.82762 l 0.752436,-0.72088 c 0.995572,-0.95382 2.340817,-1.31069 3.748487,-0.9944 2.369009,0.53228 2.90741,1.91191 2.90741,7.45014 v 3.42656 H 67.026507 65.44608 l -0.07322,-3.87451 c -0.07254,-3.8387 -0.07965,-3.8793 -0.769115,-4.39361 -0.519317,-0.38739 -0.907627,-0.4726 -1.53032,-0.33584 -1.413146,0.31038 -1.68847,1.07384 -1.823546,5.0566 l -0.120309,3.54736 h -1.420694 -1.420694 z m 17.462501,0 v -7.40833 h 1.5875 1.5875 v 7.40833 7.40834 h -1.5875 -1.5875 z m 28.574996,0 v -7.40833 h 1.45521 1.45521 v 2.7661 2.7661 l 0.63104,-0.63105 c 0.81216,-0.81215 2.40677,-1.23791 3.60852,-0.96347 2.52202,0.57595 2.90419,1.48598 2.90419,6.91559 v 3.9634 h -1.45521 -1.45521 l -0.004,-3.50573 c -0.004,-3.84125 -0.22622,-4.66421 -1.36601,-5.06505 -0.91879,-0.32313 -2.16981,0.1942 -2.56451,1.06048 -0.17301,0.3797 -0.29891,2.09958 -0.29891,4.08316 v 3.42714 h -1.45521 -1.45521 z m 56.35625,0 v -7.40833 h 1.45521 1.45521 v 7.40833 7.40834 h -1.45521 -1.45521 z m 4.7625,0 v -7.40833 h 1.45521 1.45521 v 7.40833 7.40834 h -1.45521 -1.45521 z"
         id="path12" /></g></g></svg>
