<?xml version="1.0" encoding="UTF-8" standalone="no"?>
<!-- Created with Inkscape (http://www.inkscape.org/) -->

<svg
   width="512"
   height="512"
   viewBox="0 0 512 512"
   version="1.1"
   id="svg1"
   inkscape:export-filename="cyber_fusion.svg"
   inkscape:export-xdpi="96"
   inkscape:export-ydpi="96"
   xml:space="preserve"
   sodipodi:docname="cold_fusion-ink.svg"
   inkscape:version="1.3.2 (091e20e, 2023-11-25, custom)"
   xmlns:inkscape="http://www.inkscape.org/namespaces/inkscape"
   xmlns:sodipodi="http://sodipodi.sourceforge.net/DTD/sodipodi-0.dtd"
   xmlns="http://www.w3.org/2000/svg"
   xmlns:svg="http://www.w3.org/2000/svg"><sodipodi:namedview
     id="namedview1"
     pagecolor="#505050"
     bordercolor="#eeeeee"
     borderopacity="1"
     inkscape:showpageshadow="0"
     inkscape:pageopacity="0"
     inkscape:pagecheckerboard="0"
     inkscape:deskcolor="#505050"
     inkscape:document-units="px"
     showguides="true"
     inkscape:zoom="0.76855469"
     inkscape:cx="80.02033"
     inkscape:cy="376.68107"
     inkscape:window-width="1920"
     inkscape:window-height="1001"
     inkscape:window-x="-9"
     inkscape:window-y="-9"
     inkscape:window-maximized="1"
     inkscape:current-layer="layer1" /><defs
     id="defs1" /><g
     inkscape:label="Layer 1"
     inkscape:groupmode="layer"
     id="layer1"><rect
       style="fill:#ffffff;stroke:none;stroke-width:3.01617;stroke-linecap:butt;stroke-linejoin:miter;stroke-dasharray:none;paint-order:normal"
       id="rect40"
       width="511.53024"
       height="512.45026"
       x="0.92812991"
       y="-1.8320124" /><g
       id="g50"
       transform="matrix(2.3500673,0,0,2.3500673,21.511554,10.331546)"><g
         stroke="#000000"
         id="g11"><path
           d="m 67.921,151.83 -5.3442,4.3099 -7.8705,30.526 -4.1798,9.5007 5.4835,-5.2728 0.8976,5.2728 4.0911,-5.0935 2.0505,6.0483 3.7665,-4.2975 2.8542,3.3427 3.4549,-4.5087 3.6448,5.7021 2.3162,-5.5229 3.3463,4.3294 3.0228,-3.7843 3.5979,4.5005 3.1073,-5.5836 3.0342,7.2546 3.3714,-4.5803 2.7702,4.5803 3.2383,-6.836 3.1428,5.881 4.0065,-5.0504 2.6141,5.2892 3.2978,-6.5139 3.0833,4.843 2.9267,-3.3592 3.4544,3.3592 c 1.0496,-0.11171 1.2031,-7.4321 3.1906,0 l 2.7227,-3.1863 3.6584,3.1863 1.7504,-4.9008 4.6307,4.9008 1.9185,-3.1863 4.0188,1.0832 3.6344,2.1031 -3.9336,-7.1204 -10.372,-32.449 -5.0041,-4.2428 -65.393,-0.5244 z"
           fill="#00007f"
           id="path1"
           style="fill:#000000" /><g
           fill="#debc85"
           id="g4"><path
             d="m 126.17,114.79 c 6.6802,5.8485 12.518,12.49 14.381,22.874 -2.1094,9.3114 -6.1884,14.582 -13.409,17.804 -6.961,2.3733 -9.5178,0.72658 -14.235,0.18811 l 13.263,-40.867 z"
             id="path2"
             style="fill:#808080" /><path
             d="m 76.593,114.79 c -6.6802,5.8485 -12.518,12.49 -14.381,22.874 2.1094,9.3114 6.1884,14.582 13.409,17.804 6.961,2.3733 9.5178,0.72658 14.235,0.18811 l -13.263,-40.867 z"
             id="path3"
             style="fill:#808080" /><path
             d="m 84.172,98.138 c 0.21757,5.9221 -15.258,20.442 -11.709,47.476 7.8664,14.082 11.968,14.703 28.84,15.74 20.589,-1.6704 22.781,-5.3616 27.857,-15.74 5.6157,-28.828 -9.8967,-41.059 -12.462,-47.476 l -6.6073,-34.533 -19.603,-0.8471 -6.3158,35.38 z"
             id="path4"
             style="fill:#808080" /></g><path
           d="m 11.441,15.881 3.5065,-6.7329 c 3.3938,-1.0004 1.722,0.87087 4.8884,0.16986 1.5832,-0.35046 2.3826,-2.9387 4.593,-3.9004 2.2104,-0.96172 5.1939,0.50046 6.6802,0.27746 1.4863,-0.22291 3.9074,-2.4899 5.3516,-2.6574 1.4442,-0.16746 2.8684,0.96704 4.2747,0.84942 1.4063,-0.11762 2.7947,-1.4874 4.1673,-1.5606 1.3726,-0.0733 3.2078,2.1068 4.5509,2.0726 1.3431,-0.034393 2.1941,-2.2833 3.512,-2.2845 1.3178,-10e-4 5.0161,1.6079 6.3128,1.635 1.9872,-1.225 1.5533,-1.9321 3.3779,-1.9451 1.2672,0.065579 4.4428,2.6895 5.7016,0.85252 0.71284,-1.0403 2.5144,0.31686 3.7689,0.39909 1.2545,0.082124 4.2621,3.1957 5.5166,3.278 1.2545,0.082224 1.3938,-1.4316 2.6524,-1.3548 l 4.6754,6.7329 c 1.3095,8.1914 3.5532,12.692 2.5859,23.919 l -4.2858,3.142 c -22.244,-2.0474 -44.487,-3.5404 -66.731,2.7639 l -7.0131,-4.0397 c -1.4525,-6.5324 0.039559,-13.421 1.9136,-21.616 z"
           fill="#00007f"
           id="path5"
           style="fill:#000000" /><path
           d="M 3.6904,44.566 C 1.4089,48.2561 1.366,51.9353 2.6502,55.608 l 6.1672,-0.0618 c 2.8377,4.3807 -0.7404,57.869 41.6,57.015 37.202,0.65338 40.382,-30.181 41.668,-39.946 1.9774,-6.5071 5.4991,-6.8932 8.7378,-6.8845 v -15.858 c -5.816,-1.2405 -9.828,-1.7211 -13.508,-4.0823 -11.706,-11.17 -43.472,-16.039 -72.811,-2.743 l -10.815,1.5193 z"
           fill="#af7817"
           id="path6"
           style="fill:#000000" /><path
           d="m 191.29,16.332 -3.5065,-6.7329 c -3.3938,-1.0004 -1.722,0.87087 -4.8884,0.16986 -1.5832,-0.35046 -2.3826,-2.9387 -4.593,-3.9004 -2.2104,-0.96172 -5.1939,0.50046 -6.6802,0.27746 -1.4863,-0.22291 -3.9074,-2.4899 -5.3516,-2.6573 -1.4442,-0.16756 -2.8684,0.96694 -4.2748,0.84942 -1.4063,-0.11772 -2.7947,-1.4874 -4.1673,-1.5606 -1.3726,-0.0733 -3.2078,2.1068 -4.5509,2.0726 -1.3431,-0.034394 -2.1941,-2.2833 -3.512,-2.2844 -1.3178,-0.0011 -5.0161,1.6078 -6.3128,1.6349 -1.9872,-1.225 -1.5533,-1.9321 -3.3779,-1.9451 -1.2672,0.065579 -4.4428,2.6895 -5.7015,0.85252 -0.71286,-1.0403 -2.5144,0.31686 -3.7689,0.39909 -1.2546,0.082124 -4.2622,3.1957 -5.5166,3.278 -1.2545,0.082325 -1.3938,-1.4316 -2.6524,-1.3548 l -4.6754,6.7329 c -1.3095,8.1914 -3.5532,12.692 -2.5859,23.919 l 4.2858,3.142 c 22.244,-2.0474 44.487,-3.5404 66.731,2.7639 l 7.0131,-4.0396 c 1.4525,-6.5325 -0.0396,-13.421 -1.9136,-21.616 z"
           fill="#00007f"
           id="path7"
           style="fill:#000000" /><path
           d="m 198.27,44.566 c 2.2815,3.6901 2.3244,7.3693 1.0402,11.042 l -6.1672,-0.0618 c -2.8377,4.3807 0.7404,57.869 -41.6,57.015 -37.202,0.65338 -40.382,-30.181 -41.668,-39.946 -1.9774,-6.5071 -5.4991,-6.8932 -8.7378,-6.8845 v -15.858 c 5.816,-1.2405 9.828,-1.7211 13.508,-4.0823 11.706,-11.17 43.472,-16.039 72.811,-2.743 l 10.815,1.5193 z"
           fill="#af7817"
           id="path8"
           style="fill:#000000" /><g
           fill="#ffffff"
           stroke-linecap="round"
           id="g10"><path
             d="m 84.071,73.334 c -2.9753,18.01 -12.749,31.77 -31.201,31.77 -18.452,0 -28.284,-13.907 -32.292,-31.703 C 18.1956,62.824 10.313,42.995 52.61,42.747 88.46,42.53612 86.178,60.578 84.071,73.334 Z"
             id="path9" /><path
             d="m 119.91,73.334 c 2.9753,18.01 12.749,31.77 31.201,31.77 18.452,0 28.284,-13.907 32.292,-31.703 2.3824,-10.577 10.265,-30.406 -32.032,-30.654 -35.85,-0.21088 -33.568,17.831 -31.461,30.587 z"
             id="path10" /></g></g><g
         fill="#eeeeec"
         id="g13"><path
           d="m 13.118,66.575 c 0.07474,7.0695 1.9073,18.216 5.274,24.35 2.9423,6.9081 11.762,15.976 15.486,15.822 C 28.7003,102.4988 23.545,97.667 19.627,90.027 16.3837,83.5186 15.2641,74.99 13.1186,66.574 Z"
           id="path11" /><path
           d="m 151.44,107.15 c 12.669,0.65635 18.402,-2.265 23.518,-7.0379 5.9715,-4.552 8.9583,-16.292 8.7692,-20.253 -2.6395,6.3471 -4.1617,12.623 -10.602,18.301 -5.51,4.7453 -8.6701,7.7566 -21.686,8.9899 z"
           id="path12" /><path
           d="m 89.192,49.318 c 3.3923,1.8101 5.507,4.0585 12.378,4.126 8.3209,-0.69666 8.9723,-3.3505 12.219,-5.5543 -3.9322,1.6632 -7.1467,3.5703 -12.219,3.3326 -3.077,0.44664 -8.1759,-0.85049 -12.378,-1.9043 z"
           id="path13" /></g><g
         fill="#d09e50"
         id="g16"><path
           d="m 107.52,68.858 7.0211,40.183 c 2.4383,5.4372 7.5993,9.9767 8.5854,17.209 0.56918,4.8871 2.3257,13.488 -4.1035,22.179 -5.5379,5.9675 -23.052,12.341 -38.84,6.614 2.0853,3.7177 18.96,8.9167 37.417,2.6513 6.5949,-3.715 12.804,-7.2422 11.798,-29.386 -1.5367,-10.668 -5.3947,-20.644 -12.51,-27.001 -3.0984,-6.2226 -5.9391,-19.892 -9.3676,-32.451 z"
           id="path14"
           style="fill:#000000" /><path
           d="m 124.54,155.29 c 4.8513,0.67233 14.023,-8.6817 14.956,-16.636 -1.9964,1.2116 -5.0299,7.6896 -10.632,9.6804 -1.2061,1.7557 -2.4618,4.3805 -4.3232,6.9553 z"
           id="path15"
           style="fill:#000000" /><path
           d="m 77.865,155.22 c -3.792,-0.68716 -6.6767,-3.4474 -9.3137,-5.4985 1.1147,0.53293 3.4118,1.2712 5.6107,0.33664 l 3.703,5.1618 z"
           id="path16"
           style="fill:#000000" /></g><g
         fill="#eeeeec"
         id="g18"><path
           d="m 83.956,114.53 c -2.66,8.3957 -5.7431,16.862 -3.4913,24.439 6.5134,3.2889 9.0711,1.3036 13.33,1.5869 -11.856,-3.7137 -9.4885,-10.859 -9.839,-26.026 z"
           id="path17" /><path
           d="m 67.451,128.49 c -1.7062,3.1777 -2.9763,9.3441 -2.2954,12.545 0.79047,0.93239 1.1601,1.7525 3.2311,1.6991 -1.6512,-2.1406 -2.1907,-4.5637 -0.93564,-14.244 z"
           id="path18" /></g></g></g></svg>
