<?xml version="1.0" encoding="UTF-8" standalone="no"?>
<!-- Created with Inkscape (http://www.inkscape.org/) -->

<svg
   width="511.53024"
   height="512.45026"
   viewBox="0 0 511.53024 512.45026"
   version="1.1"
   id="svg1"
   inkscape:export-filename="shellshock.svg"
   inkscape:export-xdpi="96"
   inkscape:export-ydpi="96"
   xml:space="preserve"
   sodipodi:docname="cyber_cooking-ink.svg"
   inkscape:version="1.3.2 (091e20e, 2023-11-25, custom)"
   xmlns:inkscape="http://www.inkscape.org/namespaces/inkscape"
   xmlns:sodipodi="http://sodipodi.sourceforge.net/DTD/sodipodi-0.dtd"
   xmlns="http://www.w3.org/2000/svg"
   xmlns:svg="http://www.w3.org/2000/svg"><sodipodi:namedview
     id="namedview1"
     pagecolor="#505050"
     bordercolor="#eeeeee"
     borderopacity="1"
     inkscape:showpageshadow="0"
     inkscape:pageopacity="0"
     inkscape:pagecheckerboard="0"
     inkscape:deskcolor="#505050"
     inkscape:document-units="px"
     showguides="true"
     inkscape:zoom="0.76855469"
     inkscape:cx="121.65692"
     inkscape:cy="431.3291"
     inkscape:window-width="1920"
     inkscape:window-height="1001"
     inkscape:window-x="-9"
     inkscape:window-y="-9"
     inkscape:window-maximized="1"
     inkscape:current-layer="layer1" /><defs
     id="defs1" /><g
     inkscape:label="Layer 1"
     inkscape:groupmode="layer"
     id="layer1"
     transform="translate(-0.92812991,1.8320124)"><rect
       style="fill:#ffffff;stroke:none;stroke-width:3.01617;stroke-linecap:butt;stroke-linejoin:miter;stroke-dasharray:none;paint-order:normal"
       id="rect40"
       width="511.53024"
       height="512.45026"
       x="0.92812991"
       y="-1.8320124" /><g
       id="g50"
       transform="matrix(1.4544113,0,0,1.4544113,-4.3225933,-2.7489869)"><g
         id="Ebene_2"
         data-name="Ebene 2"><path
           d="m 208,289.38 c -7.42,35 -18.29,57.12 -30.4,57.12 -22.37,0 -40.5,-75.38 -40.5,-168.37 0,-92.99 18.1,-168.37 40.47,-168.37 22.37,0 40.5,75.38 40.5,168.37 a 624.52,624.52 0 0 1 -5.13,82.07"
           style="fill:none;stroke:#0056ee;stroke-width:4px;stroke-miterlimit:10;stroke-opacity:1"
           id="path1" /><path
           d="m 70.39,152.69 c -29.47,-25.59 -45,-47.7 -38.63,-58.74 11.18,-19.37 85.53,2.62 166.06,49.11 80.53,46.49 136.75,99.89 125.56,119.26 -11.19,19.37 -85.53,-2.62 -166.06,-49.11 A 633.54,633.54 0 0 1 92.75,170.74"
           style="fill:none;stroke:#0056ee;stroke-width:4px;stroke-miterlimit:10;stroke-opacity:1"
           id="path2" /><path
           d="m 255.49,97.25 c 35.71,-12 61.65,-14.12 67.89,-3.3 11.18,19.37 -45,72.76 -125.56,119.26 -80.56,46.5 -154.88,68.48 -166.06,49.11 -11.18,-19.37 45,-72.76 125.56,-119.26 a 628.74,628.74 0 0 1 71.53,-35.72"
           style="fill:none;stroke:#0056ee;stroke-width:4px;stroke-miterlimit:10;stroke-opacity:1"
           id="path3" /></g><g
         id="Ebene_3"
         data-name="Ebene 3"><circle
           cx="177.57001"
           cy="178.13"
           r="33.650002"
           style="display:none;fill:none;stroke:#1d1d1b;stroke-width:3px;stroke-miterlimit:10"
           id="circle3" /></g><g
         id="Ebene_4"
         data-name="Ebene 4"><circle
           cx="195.14"
           cy="185.42999"
           r="11.43"
           style="fill:#000080;stroke:#1d1d1b;stroke-miterlimit:10"
           id="circle4" /><circle
           cx="171.99001"
           cy="163.42"
           r="11.43"
           style="fill:#000080;stroke:#1d1d1b;stroke-miterlimit:10"
           id="circle5" /><circle
           cx="189.16"
           cy="167.85001"
           r="11.43"
           style="fill:#000080;stroke:#1d1d1b;stroke-miterlimit:10"
           id="circle6" /><circle
           cx="160.56"
           cy="176.86"
           r="11.43"
           style="fill:#000080;stroke:#1d1d1b;stroke-miterlimit:10"
           id="circle7" /><circle
           cx="165.74001"
           cy="193.42"
           r="11.43"
           style="fill:#000080;stroke:#1d1d1b;stroke-miterlimit:10"
           id="circle8" /><circle
           cx="183.99001"
           cy="193.98"
           r="11.43"
           style="fill:#000080;stroke:#1d1d1b;stroke-miterlimit:10"
           id="circle9" /><circle
           cx="177.08"
           cy="179.28"
           r="11.43"
           style="fill:#000080;stroke:#1d1d1b;stroke-miterlimit:10"
           id="circle10" /></g><g
         id="Ebene_5"
         data-name="Ebene 5"><circle
           cx="81.019997"
           cy="161.78999"
           r="8.6899996"
           style="fill:#0091ff;fill-opacity:1;stroke:none;stroke-miterlimit:10"
           id="circle11" /><circle
           cx="210.84"
           cy="275.07001"
           r="8.6899996"
           style="fill:#0091ff;fill-opacity:1;stroke:none;stroke-miterlimit:10"
           id="circle12" /><circle
           cx="242.24001"
           cy="102.66"
           r="8.6899996"
           style="fill:#0091ff;fill-opacity:1;stroke:none;stroke-miterlimit:10"
           id="circle13" /></g><g
         id="Ebene_6"
         data-name="Ebene 6"
         style="display:none"><line
           x1="192.02"
           y1="168.73"
           x2="257.17999"
           y2="146.75"
           style="fill:none;stroke:#1d1d1b;stroke-miterlimit:10"
           id="line13" /><path
           d="m 267.73,149.63 a 4.63,4.63 0 0 0 0.06,0.83 1.3,1.3 0 0 0 0.18,0.49 0.8,0.8 0 0 0 0.32,0.28 3,3 0 0 0 0.63,0.2 v 0.43 h -3.86 v -0.43 a 1.8,1.8 0 0 0 0.73,-0.31 0.85,0.85 0 0 0 0.24,-0.49 6.07,6.07 0 0 0 0.06,-1 v -7.6 a 6.28,6.28 0 0 0 0,-0.88 1.09,1.09 0 0 0 -0.15,-0.43 0.74,0.74 0 0 0 -0.27,-0.25 3,3 0 0 0 -0.57,-0.21 v -0.43 h 4.36 a 4.94,4.94 0 0 1 3.06,0.79 2.85,2.85 0 0 1 1,2.4 4.09,4.09 0 0 1 -0.32,1.64 3.07,3.07 0 0 1 -0.9,1.2 3.57,3.57 0 0 1 -1.37,0.67 6.68,6.68 0 0 1 -1.66,0.2 q -1,0 -1.51,0 z m 0,-3.65 h 1 a 4.45,4.45 0 0 0 1.64,-0.26 1.94,1.94 0 0 0 1,-0.86 3.21,3.21 0 0 0 0.34,-1.6 3.42,3.42 0 0 0 -0.2,-1.26 2,2 0 0 0 -1.41,-1.25 4.27,4.27 0 0 0 -1.07,-0.13 q -0.87,0 -1.31,0 z"
           style="fill:#1d1d1b"
           id="path13" /><path
           d="m 277.45,144.91 h 0.12 a 6.69,6.69 0 0 1 0.9,-0.93 3.23,3.23 0 0 1 0.89,-0.52 3,3 0 0 1 1.08,-0.18 7.33,7.33 0 0 1 0.92,0.05 v 2 h -1 a 2.06,2.06 0 0 0 -0.45,-0.69 0.93,0.93 0 0 0 -0.65,-0.22 1.23,1.23 0 0 0 -0.63,0.18 2.36,2.36 0 0 0 -0.6,0.54 2.29,2.29 0 0 0 -0.4,0.66 2.2,2.2 0 0 0 -0.11,0.73 v 3.08 a 4.2,4.2 0 0 0 0.1,1.1 0.77,0.77 0 0 0 0.32,0.44 1.92,1.92 0 0 0 0.67,0.22 v 0.43 h -3.54 v -0.43 a 3,3 0 0 0 0.48,-0.18 0.78,0.78 0 0 0 0.25,-0.22 1,1 0 0 0 0.16,-0.43 5.57,5.57 0 0 0 0.05,-0.91 v -3.83 q 0,-0.56 0,-0.91 a 1.37,1.37 0 0 0 -0.12,-0.55 0.67,0.67 0 0 0 -0.32,-0.31 2.56,2.56 0 0 0 -0.61,-0.17 v -0.46 l 2.06,-0.09 h 0.54 z"
           style="fill:#1d1d1b"
           id="path14" /><path
           d="m 286.08,152 a 3.55,3.55 0 0 1 -2.79,-1.08 4.65,4.65 0 0 1 -1,-3.19 5.42,5.42 0 0 1 0.5,-2.45 3.4,3.4 0 0 1 1.38,-1.49 4.06,4.06 0 0 1 2,-0.49 3.6,3.6 0 0 1 2.85,1.09 4.6,4.6 0 0 1 1,3.14 5.63,5.63 0 0 1 -0.48,2.46 3.3,3.3 0 0 1 -1.37,1.5 4.24,4.24 0 0 1 -2.09,0.51 z M 284,147.55 a 5.5,5.5 0 0 0 0.58,2.78 1.81,1.81 0 0 0 1.65,1 1.72,1.72 0 0 0 1,-0.29 2.16,2.16 0 0 0 0.67,-0.77 3.79,3.79 0 0 0 0.37,-1.12 7.53,7.53 0 0 0 0.11,-1.33 6.82,6.82 0 0 0 -0.29,-2.14 2.65,2.65 0 0 0 -0.78,-1.25 1.73,1.73 0 0 0 -1.12,-0.4 1.81,1.81 0 0 0 -1.63,0.92 5.06,5.06 0 0 0 -0.56,2.6 z"
           style="fill:#1d1d1b"
           id="path15" /><path
           d="m 291.28,143.89 a 1.85,1.85 0 0 0 0.71,-0.25 1.27,1.27 0 0 0 0.43,-0.45 2.52,2.52 0 0 0 0.24,-0.69 q 0.09,-0.42 0.18,-1.22 h 1.25 v 2.17 h 2.84 v 0.89 h -2.84 v 3.91 a 10.33,10.33 0 0 0 0.07,1.36 1.87,1.87 0 0 0 0.26,0.79 1.18,1.18 0 0 0 0.44,0.41 1.42,1.42 0 0 0 0.63,0.12 1.53,1.53 0 0 0 0.66,-0.15 2.47,2.47 0 0 0 0.61,-0.42 l 0.4,0.47 a 4.72,4.72 0 0 1 -1.18,0.88 2.6,2.6 0 0 1 -1.16,0.27 2.06,2.06 0 0 1 -1.69,-0.67 3.28,3.28 0 0 1 -0.55,-2.1 v -4.88 h -1.3 z"
           style="fill:#1d1d1b"
           id="path16" /><path
           d="m 301.56,152 a 3.55,3.55 0 0 1 -2.79,-1.08 4.65,4.65 0 0 1 -1,-3.19 5.42,5.42 0 0 1 0.5,-2.45 3.4,3.4 0 0 1 1.38,-1.49 4.06,4.06 0 0 1 2,-0.49 3.6,3.6 0 0 1 2.85,1.09 4.6,4.6 0 0 1 1,3.14 5.63,5.63 0 0 1 -0.5,2.47 3.3,3.3 0 0 1 -1.37,1.5 4.24,4.24 0 0 1 -2.07,0.5 z m -2.09,-4.45 a 5.5,5.5 0 0 0 0.58,2.78 1.81,1.81 0 0 0 1.65,1 1.72,1.72 0 0 0 1,-0.29 2.16,2.16 0 0 0 0.67,-0.77 3.79,3.79 0 0 0 0.37,-1.12 7.53,7.53 0 0 0 0.11,-1.33 6.82,6.82 0 0 0 -0.29,-2.14 2.65,2.65 0 0 0 -0.78,-1.25 1.73,1.73 0 0 0 -1.12,-0.4 1.81,1.81 0 0 0 -1.63,0.92 5.06,5.06 0 0 0 -0.56,2.6 z"
           style="fill:#1d1d1b"
           id="path17" /><path
           d="m 315.85,151.85 h -3.46 v -0.43 a 3.1,3.1 0 0 0 0.49,-0.18 0.71,0.71 0 0 0 0.25,-0.22 1.1,1.1 0 0 0 0.16,-0.44 5,5 0 0 0 0.06,-0.89 v -2.3 q 0,-0.62 0,-1.12 a 4.74,4.74 0 0 0 -0.12,-0.82 1.7,1.7 0 0 0 -0.2,-0.5 1.25,1.25 0 0 0 -0.28,-0.31 1.29,1.29 0 0 0 -0.37,-0.2 1.69,1.69 0 0 0 -0.55,-0.07 1.59,1.59 0 0 0 -0.65,0.14 2.66,2.66 0 0 0 -0.68,0.47 2.39,2.39 0 0 0 -0.54,0.66 1.61,1.61 0 0 0 -0.17,0.75 v 3.28 a 5.24,5.24 0 0 0 0.07,1.05 0.78,0.78 0 0 0 0.27,0.45 1.83,1.83 0 0 0 0.65,0.27 v 0.43 h -3.45 v -0.43 a 3,3 0 0 0 0.49,-0.18 0.75,0.75 0 0 0 0.18,-0.26 1.16,1.16 0 0 0 0.16,-0.43 5.26,5.26 0 0 0 0.06,-0.91 v -3.83 q 0,-0.56 0,-0.91 a 1.37,1.37 0 0 0 -0.12,-0.55 0.67,0.67 0 0 0 -0.32,-0.31 2.56,2.56 0 0 0 -0.61,-0.17 v -0.47 l 2.06,-0.08 h 0.54 l -0.1,1.43 h 0.12 a 8.41,8.41 0 0 1 1.05,-0.94 3.59,3.59 0 0 1 0.81,-0.44 2.43,2.43 0 0 1 0.87,-0.15 3,3 0 0 1 0.85,0.11 1.91,1.91 0 0 1 0.66,0.34 1.86,1.86 0 0 1 0.47,0.57 2.79,2.79 0 0 1 0.28,0.81 6.4,6.4 0 0 1 0.09,1.2 v 3.31 a 7.7,7.7 0 0 0 0,0.88 1.13,1.13 0 0 0 0.12,0.42 0.72,0.72 0 0 0 0.25,0.25 2.53,2.53 0 0 0 0.58,0.22 z"
           style="fill:#1d1d1b"
           id="path18" /><line
           x1="200.31"
           y1="187.13"
           x2="257.17999"
           y2="223.17"
           style="fill:none;stroke:#1d1d1b;stroke-miterlimit:10"
           id="line18" /><path
           d="m 272.12,226.54 q 0.32,0.53 0.53,0.92 0.21,0.39 0.44,0.89 h 0.11 q 0,-0.54 -0.08,-2.13 -0.08,-1.59 0,-2.88 v -1.85 a 8,8 0 0 0 0,-0.89 1.07,1.07 0 0 0 -0.13,-0.43 0.7,0.7 0 0 0 -0.25,-0.24 2.87,2.87 0 0 0 -0.57,-0.21 v -0.43 h 3.16 v 0.43 a 2.79,2.79 0 0 0 -0.56,0.19 0.75,0.75 0 0 0 -0.26,0.23 1.06,1.06 0 0 0 -0.15,0.42 5.63,5.63 0 0 0 -0.05,0.92 v 9.85 h -1.1 l -4.9,-8.21 q -0.46,-0.76 -0.65,-1.12 -0.19,-0.36 -0.36,-0.69 h -0.15 q 0.06,0.68 0.09,2.45 0.03,1.77 0,3.53 v 1.79 a 6.46,6.46 0 0 0 0,0.86 1.21,1.21 0 0 0 0.13,0.43 0.74,0.74 0 0 0 0.27,0.26 2.45,2.45 0 0 0 0.58,0.21 v 0.43 H 265 v -0.43 a 1.8,1.8 0 0 0 0.73,-0.31 0.85,0.85 0 0 0 0.24,-0.49 6.07,6.07 0 0 0 0.06,-1 v -7.6 a 6.28,6.28 0 0 0 0,-0.88 1.09,1.09 0 0 0 -0.15,-0.43 0.74,0.74 0 0 0 -0.27,-0.25 3,3 0 0 0 -0.57,-0.21 v -0.43 h 2.75 z"
           style="fill:#1d1d1b"
           id="path19" /><path
           d="m 284.13,229.8 a 7.37,7.37 0 0 1 -1,0.92 3.92,3.92 0 0 1 -1,0.52 3.87,3.87 0 0 1 -1.24,0.19 3.39,3.39 0 0 1 -2.73,-1.09 4.83,4.83 0 0 1 -0.92,-3.2 5.37,5.37 0 0 1 0.47,-2.31 3.55,3.55 0 0 1 1.34,-1.55 4.06,4.06 0 0 1 3.52,-0.26 2.55,2.55 0 0 1 1,0.77 3.62,3.62 0 0 1 0.58,1.23 8.17,8.17 0 0 1 0.23,1.94 h -5.54 v 0.16 a 5.67,5.67 0 0 0 0.23,1.74 2.2,2.2 0 0 0 0.77,1.11 2.24,2.24 0 0 0 1.38,0.4 3,3 0 0 0 1.3,-0.27 3.83,3.83 0 0 0 1.15,-0.87 z m -1.48,-3.57 a 6.69,6.69 0 0 0 -0.24,-1.55 1.94,1.94 0 0 0 -0.55,-0.92 1.42,1.42 0 0 0 -1,-0.32 1.71,1.71 0 0 0 -1.45,0.72 3.89,3.89 0 0 0 -0.64,2.07 z"
           style="fill:#1d1d1b"
           id="path20" /><path
           d="m 285.67,222.89 h 2.5 v 4.47 a 11.54,11.54 0 0 0 0.08,1.56 2.34,2.34 0 0 0 0.24,0.81 1.34,1.34 0 0 0 0.45,0.46 1.48,1.48 0 0 0 0.8,0.18 1.61,1.61 0 0 0 0.64,-0.13 2.73,2.73 0 0 0 0.69,-0.46 2.23,2.23 0 0 0 0.54,-0.65 1.68,1.68 0 0 0 0.16,-0.76 v -3.3 q 0,-0.5 0,-0.76 a 1.56,1.56 0 0 0 -0.09,-0.41 0.86,0.86 0 0 0 -0.15,-0.25 0.78,0.78 0 0 0 -0.24,-0.18 2.6,2.6 0 0 0 -0.5,-0.17 v -0.43 h 2.5 v 6 q 0,0.68 0,1 a 1.34,1.34 0 0 0 0.11,0.47 0.69,0.69 0 0 0 0.27,0.29 2.32,2.32 0 0 0 0.66,0.21 v 0.46 l -2,0.09 h -0.54 l 0.05,-1.44 h -0.13 a 5.8,5.8 0 0 1 -1.39,1.16 2.71,2.71 0 0 1 -1.33,0.37 2.5,2.5 0 0 1 -1.32,-0.32 1.91,1.91 0 0 1 -0.77,-0.95 4.87,4.87 0 0 1 -0.25,-1.77 v -3.32 a 6.05,6.05 0 0 0 -0.06,-1 0.85,0.85 0 0 0 -0.22,-0.44 1.66,1.66 0 0 0 -0.71,-0.3 z"
           style="fill:#1d1d1b"
           id="path21" /><path
           d="m 295.3,223.33 a 1.85,1.85 0 0 0 0.71,-0.25 1.25,1.25 0 0 0 0.43,-0.45 2.46,2.46 0 0 0 0.24,-0.69 q 0.09,-0.42 0.18,-1.22 h 1.25 v 2.17 h 2.84 v 0.89 h -2.84 v 3.91 a 10.32,10.32 0 0 0 0.07,1.36 1.87,1.87 0 0 0 0.26,0.79 1.18,1.18 0 0 0 0.44,0.41 1.42,1.42 0 0 0 0.63,0.12 1.53,1.53 0 0 0 0.66,-0.15 2.47,2.47 0 0 0 0.61,-0.42 l 0.4,0.47 a 4.75,4.75 0 0 1 -1.18,0.88 2.61,2.61 0 0 1 -1.16,0.27 2.06,2.06 0 0 1 -1.69,-0.67 3.28,3.28 0 0 1 -0.55,-2.1 v -4.88 h -1.3 z"
           style="fill:#1d1d1b"
           id="path22" /><path
           d="m 304.29,224.35 h 0.12 a 6.7,6.7 0 0 1 0.9,-0.93 3.23,3.23 0 0 1 0.89,-0.52 3,3 0 0 1 1.08,-0.18 7.33,7.33 0 0 1 0.92,0.05 v 2 h -1 a 2.06,2.06 0 0 0 -0.45,-0.69 0.93,0.93 0 0 0 -0.65,-0.21 1.23,1.23 0 0 0 -0.63,0.18 2.36,2.36 0 0 0 -0.6,0.54 2.29,2.29 0 0 0 -0.4,0.66 2.2,2.2 0 0 0 -0.11,0.73 v 3.08 a 4.19,4.19 0 0 0 0.1,1.1 0.78,0.78 0 0 0 0.32,0.44 1.92,1.92 0 0 0 0.67,0.22 v 0.43 h -3.54 v -0.43 a 3,3 0 0 0 0.48,-0.18 0.78,0.78 0 0 0 0.25,-0.22 1,1 0 0 0 0.16,-0.43 5.57,5.57 0 0 0 0.05,-0.91 v -3.83 q 0,-0.56 0,-0.91 a 1.37,1.37 0 0 0 -0.12,-0.55 0.67,0.67 0 0 0 -0.32,-0.31 2.56,2.56 0 0 0 -0.61,-0.17 v -0.46 l 2.06,-0.09 h 0.54 z"
           style="fill:#1d1d1b"
           id="path23" /><path
           d="m 312.92,231.43 a 3.55,3.55 0 0 1 -2.79,-1.08 4.65,4.65 0 0 1 -1,-3.19 5.42,5.42 0 0 1 0.5,-2.45 3.4,3.4 0 0 1 1.38,-1.49 4.06,4.06 0 0 1 2,-0.49 3.6,3.6 0 0 1 2.85,1.09 4.6,4.6 0 0 1 1,3.14 5.63,5.63 0 0 1 -0.48,2.46 3.3,3.3 0 0 1 -1.37,1.5 4.24,4.24 0 0 1 -2.09,0.51 z M 310.83,227 a 5.5,5.5 0 0 0 0.58,2.78 1.81,1.81 0 0 0 1.65,1 1.72,1.72 0 0 0 1,-0.29 2.16,2.16 0 0 0 0.67,-0.77 3.79,3.79 0 0 0 0.37,-1.12 7.53,7.53 0 0 0 0.11,-1.33 6.82,6.82 0 0 0 -0.29,-2.14 2.65,2.65 0 0 0 -0.78,-1.25 1.73,1.73 0 0 0 -1.12,-0.4 1.81,1.81 0 0 0 -1.63,0.92 5.06,5.06 0 0 0 -0.56,2.6 z"
           style="fill:#1d1d1b"
           id="path24" /><path
           d="m 327.21,231.29 h -3.46 v -0.43 a 3.1,3.1 0 0 0 0.49,-0.18 0.71,0.71 0 0 0 0.25,-0.22 1.1,1.1 0 0 0 0.16,-0.44 5,5 0 0 0 0.06,-0.89 v -2.3 q 0,-0.62 0,-1.12 a 4.75,4.75 0 0 0 -0.12,-0.82 1.7,1.7 0 0 0 -0.2,-0.5 1.25,1.25 0 0 0 -0.28,-0.31 1.29,1.29 0 0 0 -0.37,-0.2 1.7,1.7 0 0 0 -0.55,-0.07 1.59,1.59 0 0 0 -0.65,0.14 2.66,2.66 0 0 0 -0.68,0.47 2.39,2.39 0 0 0 -0.54,0.66 1.61,1.61 0 0 0 -0.17,0.75 v 3.28 a 5.24,5.24 0 0 0 0.07,1 0.78,0.78 0 0 0 0.27,0.45 1.83,1.83 0 0 0 0.65,0.27 v 0.43 h -3.45 v -0.43 a 3,3 0 0 0 0.49,-0.18 0.75,0.75 0 0 0 0.25,-0.22 1.16,1.16 0 0 0 0.16,-0.43 5.26,5.26 0 0 0 0.06,-0.91 v -3.83 q 0,-0.56 0,-0.91 a 1.37,1.37 0 0 0 -0.12,-0.55 0.67,0.67 0 0 0 -0.32,-0.31 2.56,2.56 0 0 0 -0.61,-0.17 v -0.47 l 2.06,-0.08 h 0.54 l -0.1,1.43 h 0.12 a 8.41,8.41 0 0 1 1.05,-0.94 3.59,3.59 0 0 1 0.81,-0.44 2.43,2.43 0 0 1 0.87,-0.15 3,3 0 0 1 0.85,0.11 1.91,1.91 0 0 1 0.66,0.34 1.86,1.86 0 0 1 0.47,0.57 2.79,2.79 0 0 1 0.28,0.81 6.4,6.4 0 0 1 0.09,1.2 v 3.31 a 7.7,7.7 0 0 0 0,0.88 1.13,1.13 0 0 0 0.12,0.42 0.72,0.72 0 0 0 0.25,0.25 2.52,2.52 0 0 0 0.58,0.22 z"
           style="fill:#1d1d1b"
           id="path25" /><line
           x1="211.12"
           y1="275.35999"
           x2="257.17999"
           y2="275.35999"
           style="fill:none;stroke:#1d1d1b;stroke-miterlimit:10"
           id="line25" /><path
           d="m 31,206.38 q 0.32,0.53 0.53,0.92 0.21,0.39 0.44,0.89 h 0.11 q 0,-0.54 -0.08,-2.13 -0.08,-1.59 0,-2.88 v -1.85 a 8,8 0 0 0 0,-0.89 1.09,1.09 0 0 0 -0.13,-0.43 0.7,0.7 0 0 0 -0.25,-0.24 2.84,2.84 0 0 0 -0.57,-0.21 v -0.43 h 3.16 v 0.43 a 2.83,2.83 0 0 0 -0.56,0.19 0.77,0.77 0 0 0 -0.26,0.23 1.07,1.07 0 0 0 -0.15,0.42 5.63,5.63 0 0 0 -0.05,0.92 v 9.85 H 32 L 27.14,203 q -0.46,-0.76 -0.65,-1.12 -0.19,-0.36 -0.36,-0.69 H 26 q 0.06,0.68 0.09,2.45 0.03,1.77 0,3.53 v 1.79 a 6.66,6.66 0 0 0 0,0.86 1.21,1.21 0 0 0 0.13,0.43 0.74,0.74 0 0 0 0.27,0.26 2.47,2.47 0 0 0 0.58,0.21 v 0.43 h -3.16 v -0.43 a 1.8,1.8 0 0 0 0.73,-0.31 0.85,0.85 0 0 0 0.24,-0.49 5.94,5.94 0 0 0 0.06,-1 v -7.6 a 6.28,6.28 0 0 0 0,-0.88 1.1,1.1 0 0 0 -0.15,-0.43 0.75,0.75 0 0 0 -0.27,-0.25 3,3 0 0 0 -0.57,-0.21 v -0.43 h 2.75 z"
           style="fill:#1d1d1b"
           id="path26" /><path
           d="m 35.78,202.73 h 2.5 v 4.47 a 11.54,11.54 0 0 0 0.08,1.56 2.34,2.34 0 0 0 0.24,0.81 1.34,1.34 0 0 0 0.4,0.43 1.48,1.48 0 0 0 0.8,0.18 1.61,1.61 0 0 0 0.64,-0.13 2.73,2.73 0 0 0 0.69,-0.46 2.21,2.21 0 0 0 0.54,-0.65 1.67,1.67 0 0 0 0.16,-0.76 v -3.3 q 0,-0.5 0,-0.76 a 1.56,1.56 0 0 0 -0.09,-0.41 0.88,0.88 0 0 0 -0.15,-0.25 0.78,0.78 0 0 0 -0.24,-0.18 2.57,2.57 0 0 0 -0.5,-0.17 v -0.43 h 2.5 v 6 q 0,0.68 0,1 a 1.34,1.34 0 0 0 0.11,0.47 0.69,0.69 0 0 0 0.27,0.29 2.32,2.32 0 0 0 0.66,0.21 v 0.46 l -2,0.09 h -0.54 l 0.05,-1.44 h -0.13 a 5.82,5.82 0 0 1 -1.39,1.16 2.72,2.72 0 0 1 -1.33,0.37 2.5,2.5 0 0 1 -1.32,-0.32 A 1.91,1.91 0 0 1 37,210 4.87,4.87 0 0 1 36.75,208.23 v -3.32 a 5.93,5.93 0 0 0 -0.06,-1 0.85,0.85 0 0 0 -0.22,-0.44 1.67,1.67 0 0 0 -0.71,-0.3 z"
           style="fill:#1d1d1b"
           id="path27" /><path
           d="m 52.47,202.93 v 1.84 h -1.11 a 3,3 0 0 0 -0.37,-0.9 1.24,1.24 0 0 0 -0.51,-0.46 1.74,1.74 0 0 0 -0.72,-0.13 1.65,1.65 0 0 0 -1.09,0.4 2.64,2.64 0 0 0 -0.75,1.2 6.15,6.15 0 0 0 -0.28,2 8.17,8.17 0 0 0 0.11,1.37 3.16,3.16 0 0 0 0.36,1.06 1.85,1.85 0 0 0 0.68,0.69 2,2 0 0 0 1,0.25 2.7,2.7 0 0 0 1.21,-0.25 3.59,3.59 0 0 0 1.09,-0.83 l 0.5,0.58 a 6.73,6.73 0 0 1 -0.79,0.76 3.7,3.7 0 0 1 -0.73,0.45 3.77,3.77 0 0 1 -0.77,0.26 3.89,3.89 0 0 1 -0.83,0.08 3.06,3.06 0 0 1 -2.54,-1.1 5,5 0 0 1 -0.93,-3.2 5.19,5.19 0 0 1 0.49,-2.31 3.65,3.65 0 0 1 1.38,-1.55 3.83,3.83 0 0 1 2,-0.54 9.87,9.87 0 0 1 1.33,0.08 8.07,8.07 0 0 1 1.27,0.25 z"
           style="fill:#1d1d1b"
           id="path28" /><path
           d="m 56.21,208.94 a 5.24,5.24 0 0 0 0.07,1 0.77,0.77 0 0 0 0.27,0.45 1.82,1.82 0 0 0 0.65,0.27 v 0.43 h -3.5 v -0.43 a 2,2 0 0 0 0.61,-0.24 0.71,0.71 0 0 0 0.25,-0.29 1.62,1.62 0 0 0 0.11,-0.47 q 0,-0.29 0,-0.77 v -7.36 q 0,-0.84 0,-1.18 a 2.9,2.9 0 0 0 -0.07,-0.57 1,1 0 0 0 -0.16,-0.36 0.71,0.71 0 0 0 -0.27,-0.21 2.86,2.86 0 0 0 -0.62,-0.16 v -0.46 l 2.12,-0.09 h 0.53 z"
           style="fill:#1d1d1b"
           id="path29" /><path
           d="m 65.77,209.64 a 7.42,7.42 0 0 1 -1,0.92 3.94,3.94 0 0 1 -1,0.52 3.87,3.87 0 0 1 -1.24,0.19 3.39,3.39 0 0 1 -2.73,-1.09 4.83,4.83 0 0 1 -0.92,-3.2 5.38,5.38 0 0 1 0.47,-2.31 3.56,3.56 0 0 1 1.34,-1.55 4.06,4.06 0 0 1 3.52,-0.26 2.54,2.54 0 0 1 1,0.77 3.58,3.58 0 0 1 0.58,1.23 8.12,8.12 0 0 1 0.23,1.94 h -5.61 v 0.2 a 5.64,5.64 0 0 0 0.23,1.74 2.2,2.2 0 0 0 0.76,1.11 2.24,2.24 0 0 0 1.38,0.4 3,3 0 0 0 1.3,-0.27 3.84,3.84 0 0 0 1.15,-0.87 z m -1.48,-3.57 a 6.69,6.69 0 0 0 -0.24,-1.55 1.94,1.94 0 0 0 -0.55,-0.92 1.42,1.42 0 0 0 -1,-0.32 1.71,1.71 0 0 0 -1.45,0.72 3.9,3.9 0 0 0 -0.64,2.07 z"
           style="fill:#1d1d1b"
           id="path30" /><path
           d="m 67.32,202.73 h 2.5 v 4.47 a 11.54,11.54 0 0 0 0.08,1.56 2.34,2.34 0 0 0 0.24,0.81 1.34,1.34 0 0 0 0.45,0.46 1.48,1.48 0 0 0 0.8,0.18 1.61,1.61 0 0 0 0.64,-0.13 2.73,2.73 0 0 0 0.69,-0.46 2.21,2.21 0 0 0 0.54,-0.65 1.67,1.67 0 0 0 0.16,-0.76 v -3.3 q 0,-0.5 0,-0.76 a 1.56,1.56 0 0 0 -0.09,-0.41 0.88,0.88 0 0 0 -0.15,-0.25 0.78,0.78 0 0 0 -0.24,-0.18 2.57,2.57 0 0 0 -0.5,-0.17 v -0.43 h 2.5 v 6 q 0,0.68 0,1 a 1.34,1.34 0 0 0 0.11,0.47 0.69,0.69 0 0 0 0.27,0.29 2.32,2.32 0 0 0 0.66,0.21 v 0.46 l -2,0.09 h -0.54 l 0.05,-1.44 h -0.13 a 5.82,5.82 0 0 1 -1.36,1.12 2.72,2.72 0 0 1 -1.33,0.37 2.5,2.5 0 0 1 -1.32,-0.32 1.91,1.91 0 0 1 -0.77,-0.95 4.87,4.87 0 0 1 -0.25,-1.77 v -3.32 a 5.93,5.93 0 0 0 -0.06,-1 0.85,0.85 0 0 0 -0.22,-0.44 1.67,1.67 0 0 0 -0.71,-0.3 z"
           style="fill:#1d1d1b"
           id="path31" /><path
           d="m 83.36,204.66 h -0.84 a 2.65,2.65 0 0 0 -0.46,-0.83 1.46,1.46 0 0 0 -0.6,-0.43 2.38,2.38 0 0 0 -0.82,-0.12 1.76,1.76 0 0 0 -1.12,0.33 1.09,1.09 0 0 0 -0.42,0.9 1.23,1.23 0 0 0 0.17,0.67 1.68,1.68 0 0 0 0.52,0.49 9,9 0 0 0 1.24,0.61 9,9 0 0 1 1.38,0.71 2.61,2.61 0 0 1 0.76,0.76 1.86,1.86 0 0 1 0.28,1 2.6,2.6 0 0 1 -0.24,1.17 2,2 0 0 1 -0.67,0.77 2.87,2.87 0 0 1 -1,0.43 6,6 0 0 1 -1.3,0.13 9.15,9.15 0 0 1 -1.43,-0.11 13.34,13.34 0 0 1 -1.35,-0.29 V 209 h 0.86 a 2.24,2.24 0 0 0 0.7,1.17 2,2 0 0 0 1.28,0.37 2.91,2.91 0 0 0 0.62,-0.07 1.61,1.61 0 0 0 0.54,-0.22 1.11,1.11 0 0 0 0.38,-0.42 1.39,1.39 0 0 0 0.14,-0.66 1.36,1.36 0 0 0 -0.18,-0.73 1.69,1.69 0 0 0 -0.54,-0.51 10.22,10.22 0 0 0 -1.3,-0.63 8.06,8.06 0 0 1 -1.28,-0.65 2.54,2.54 0 0 1 -0.76,-0.75 1.84,1.84 0 0 1 -0.28,-1 2.06,2.06 0 0 1 0.39,-1.25 2.43,2.43 0 0 1 1.13,-0.81 4.85,4.85 0 0 1 1.73,-0.28 10.66,10.66 0 0 1 1.12,0.06 q 0.54,0.06 1.36,0.22 z"
           style="fill:#1d1d1b"
           id="path32" /><line
           x1="146.13"
           y1="192.42"
           x2="88.57"
           y2="206.55"
           style="fill:none;stroke:#1d1d1b;stroke-miterlimit:10"
           id="line32" /><path
           d="m 273.71,269.93 v 2.65 h -0.86 a 7.31,7.31 0 0 0 -0.27,-0.76 3.31,3.31 0 0 0 -0.29,-0.54 1.42,1.42 0 0 0 -0.33,-0.35 1.07,1.07 0 0 0 -0.43,-0.18 3.19,3.19 0 0 0 -0.59,0 h -2.78 v 4.61 H 270 a 1.36,1.36 0 0 0 0.61,-0.11 0.86,0.86 0 0 0 0.37,-0.37 3.5,3.5 0 0 0 0.28,-0.83 h 0.83 v 3.38 h -0.83 a 3.19,3.19 0 0 0 -0.27,-0.79 1,1 0 0 0 -0.36,-0.38 1.32,1.32 0 0 0 -0.62,-0.11 h -1.88 v 5.07 h 2.73 a 2.69,2.69 0 0 0 0.7,-0.07 1.09,1.09 0 0 0 0.46,-0.26 1.68,1.68 0 0 0 0.34,-0.47 4.08,4.08 0 0 0 0.25,-0.6 q 0.1,-0.31 0.28,-0.91 h 0.87 l -0.17,3.08 h -8.14 v -0.43 a 1.81,1.81 0 0 0 0.73,-0.31 0.86,0.86 0 0 0 0.24,-0.49 6.07,6.07 0 0 0 0.06,-1 v -7.6 a 6.29,6.29 0 0 0 0,-0.88 1.1,1.1 0 0 0 -0.15,-0.43 0.74,0.74 0 0 0 -0.27,-0.25 2.9,2.9 0 0 0 -0.57,-0.21 v -0.43 z"
           style="fill:#1d1d1b"
           id="path33" /><path
           d="m 278,279.73 a 5.25,5.25 0 0 0 0.07,1.05 0.77,0.77 0 0 0 0.27,0.45 1.81,1.81 0 0 0 0.65,0.27 v 0.43 h -3.49 v -0.43 a 2,2 0 0 0 0.61,-0.24 0.7,0.7 0 0 0 0.25,-0.29 1.6,1.6 0 0 0 0.11,-0.46 7.69,7.69 0 0 0 0,-0.77 v -7.36 q 0,-0.84 0,-1.18 a 2.84,2.84 0 0 0 -0.07,-0.57 1,1 0 0 0 -0.16,-0.36 0.71,0.71 0 0 0 -0.27,-0.21 2.89,2.89 0 0 0 -0.62,-0.16 v -0.46 l 2.12,-0.09 H 278 Z"
           style="fill:#1d1d1b"
           id="path34" /><path
           d="m 287.54,280.44 a 7.42,7.42 0 0 1 -1,0.92 3.82,3.82 0 0 1 -2.27,0.71 3.39,3.39 0 0 1 -2.77,-1.07 4.83,4.83 0 0 1 -0.92,-3.2 5.37,5.37 0 0 1 0.47,-2.31 3.55,3.55 0 0 1 1.34,-1.55 4.06,4.06 0 0 1 3.52,-0.26 2.56,2.56 0 0 1 1,0.77 3.64,3.64 0 0 1 0.58,1.23 8.18,8.18 0 0 1 0.23,1.94 h -5.54 v 0.16 a 5.64,5.64 0 0 0 0.23,1.75 2.2,2.2 0 0 0 0.77,1.11 2.24,2.24 0 0 0 1.38,0.4 3,3 0 0 0 1.3,-0.27 3.83,3.83 0 0 0 1.15,-0.87 z m -1.48,-3.57 a 6.68,6.68 0 0 0 -0.24,-1.55 2,2 0 0 0 -0.55,-0.92 1.43,1.43 0 0 0 -1,-0.32 1.71,1.71 0 0 0 -1.45,0.72 3.9,3.9 0 0 0 -0.64,2.07 z"
           style="fill:#1d1d1b"
           id="path35" /><path
           d="m 295.85,273.73 v 1.84 h -1.12 a 3,3 0 0 0 -0.37,-0.9 1.23,1.23 0 0 0 -0.51,-0.46 1.74,1.74 0 0 0 -0.72,-0.13 1.65,1.65 0 0 0 -1.09,0.4 2.63,2.63 0 0 0 -0.75,1.2 6.12,6.12 0 0 0 -0.28,2 8.16,8.16 0 0 0 0.11,1.37 3.15,3.15 0 0 0 0.36,1.06 1.85,1.85 0 0 0 0.68,0.69 2,2 0 0 0 1,0.25 2.71,2.71 0 0 0 1.13,-0.24 3.6,3.6 0 0 0 1.08,-0.83 l 0.5,0.58 a 6.75,6.75 0 0 1 -0.79,0.76 3.66,3.66 0 0 1 -0.73,0.45 3.7,3.7 0 0 1 -0.77,0.26 3.88,3.88 0 0 1 -0.83,0.08 3.05,3.05 0 0 1 -2.54,-1.1 5,5 0 0 1 -0.88,-3.19 5.18,5.18 0 0 1 0.49,-2.31 3.65,3.65 0 0 1 1.38,-1.55 3.83,3.83 0 0 1 2,-0.54 10,10 0 0 1 1.33,0.08 8.19,8.19 0 0 1 1.32,0.23 z"
           style="fill:#1d1d1b"
           id="path36" /><path
           d="m 296.71,274 a 1.85,1.85 0 0 0 0.71,-0.25 1.25,1.25 0 0 0 0.43,-0.45 2.47,2.47 0 0 0 0.24,-0.69 q 0.09,-0.42 0.18,-1.22 h 1.25 v 2.17 h 2.84 v 0.89 h -2.84 v 3.91 a 10.31,10.31 0 0 0 0.07,1.36 1.86,1.86 0 0 0 0.26,0.79 1.17,1.17 0 0 0 0.44,0.41 1.42,1.42 0 0 0 0.63,0.12 1.51,1.51 0 0 0 0.66,-0.15 2.44,2.44 0 0 0 0.61,-0.42 l 0.4,0.47 a 4.75,4.75 0 0 1 -1.18,0.88 2.61,2.61 0 0 1 -1.16,0.27 2.06,2.06 0 0 1 -1.69,-0.67 3.29,3.29 0 0 1 -0.55,-2.11 v -4.88 h -1.3 z"
           style="fill:#1d1d1b"
           id="path37" /><path
           d="m 305.7,275 h 0.12 a 6.69,6.69 0 0 1 0.9,-0.93 3.24,3.24 0 0 1 0.89,-0.52 3,3 0 0 1 1.09,-0.18 7.33,7.33 0 0 1 0.92,0.05 v 2 h -1 a 2.07,2.07 0 0 0 -0.45,-0.69 0.94,0.94 0 0 0 -0.65,-0.21 1.22,1.22 0 0 0 -0.63,0.18 2.33,2.33 0 0 0 -0.6,0.54 2.24,2.24 0 0 0 -0.4,0.66 2.15,2.15 0 0 0 -0.11,0.73 v 3.08 a 4.21,4.21 0 0 0 0.1,1.1 0.78,0.78 0 0 0 0.32,0.44 1.94,1.94 0 0 0 0.67,0.22 v 0.43 h -3.54 v -0.43 a 2.9,2.9 0 0 0 0.48,-0.18 0.77,0.77 0 0 0 0.25,-0.22 1,1 0 0 0 0.16,-0.43 5.57,5.57 0 0 0 0.05,-0.91 v -3.83 q 0,-0.56 0,-0.91 a 1.37,1.37 0 0 0 -0.12,-0.55 0.68,0.68 0 0 0 -0.32,-0.31 2.58,2.58 0 0 0 -0.61,-0.17 v -0.46 l 2.06,-0.09 h 0.54 z"
           style="fill:#1d1d1b"
           id="path38" /><path
           d="m 314.33,282.07 a 3.55,3.55 0 0 1 -2.79,-1.08 4.65,4.65 0 0 1 -1,-3.19 5.4,5.4 0 0 1 0.5,-2.45 3.4,3.4 0 0 1 1.38,-1.49 4.07,4.07 0 0 1 2,-0.49 3.6,3.6 0 0 1 2.85,1.09 4.6,4.6 0 0 1 1,3.14 5.63,5.63 0 0 1 -0.48,2.46 3.31,3.31 0 0 1 -1.37,1.5 4.23,4.23 0 0 1 -2.09,0.51 z m -2.09,-4.45 a 5.49,5.49 0 0 0 0.58,2.78 1.81,1.81 0 0 0 1.65,1 1.71,1.71 0 0 0 1,-0.29 2.15,2.15 0 0 0 0.67,-0.77 3.79,3.79 0 0 0 0.37,-1.12 7.54,7.54 0 0 0 0.11,-1.33 6.84,6.84 0 0 0 -0.29,-2.14 2.65,2.65 0 0 0 -0.78,-1.25 1.73,1.73 0 0 0 -1.12,-0.4 1.81,1.81 0 0 0 -1.63,0.92 5.06,5.06 0 0 0 -0.56,2.61 z"
           style="fill:#1d1d1b"
           id="path39" /><path
           d="m 328.62,281.93 h -3.46 v -0.43 a 3.1,3.1 0 0 0 0.49,-0.18 0.73,0.73 0 0 0 0.25,-0.22 1.16,1.16 0 0 0 0.16,-0.43 5.21,5.21 0 0 0 0.06,-0.89 v -2.3 q 0,-0.62 0,-1.12 a 4.63,4.63 0 0 0 -0.12,-0.82 1.75,1.75 0 0 0 -0.2,-0.5 1.28,1.28 0 0 0 -0.66,-0.51 1.72,1.72 0 0 0 -0.55,-0.07 1.59,1.59 0 0 0 -0.65,0.14 2.65,2.65 0 0 0 -0.68,0.47 2.39,2.39 0 0 0 -0.54,0.66 1.61,1.61 0 0 0 -0.17,0.75 v 3.28 a 5.25,5.25 0 0 0 0.07,1.05 0.76,0.76 0 0 0 0.27,0.45 1.79,1.79 0 0 0 0.65,0.27 v 0.43 h -3.45 v -0.43 a 2.86,2.86 0 0 0 0.49,-0.18 0.72,0.72 0 0 0 0.25,-0.22 1.13,1.13 0 0 0 0.16,-0.43 5.14,5.14 0 0 0 0.06,-0.91 v -3.83 q 0,-0.56 0,-0.91 a 1.37,1.37 0 0 0 -0.12,-0.55 0.68,0.68 0 0 0 -0.32,-0.31 2.58,2.58 0 0 0 -0.61,-0.17 v -0.47 l 2.06,-0.08 h 0.54 l -0.1,1.43 h 0.12 a 8.49,8.49 0 0 1 1,-0.94 3.65,3.65 0 0 1 0.81,-0.43 2.44,2.44 0 0 1 0.87,-0.15 3.05,3.05 0 0 1 0.85,0.11 1.92,1.92 0 0 1 0.66,0.34 1.86,1.86 0 0 1 0.47,0.57 2.84,2.84 0 0 1 0.28,0.81 6.58,6.58 0 0 1 0.09,1.2 v 3.31 a 7.7,7.7 0 0 0 0,0.88 1.13,1.13 0 0 0 0.12,0.42 0.71,0.71 0 0 0 0.25,0.25 2.48,2.48 0 0 0 0.58,0.22 z"
           style="fill:#1d1d1b"
           id="path40" /></g></g></g></svg>
