<?xml version="1.0" encoding="UTF-8" standalone="no"?>
<!-- Created with Inkscape (http://www.inkscape.org/) -->

<svg
   width="396.85248"
   height="343.50192"
   viewBox="0 0 396.85248 343.50192"
   version="1.1"
   id="svg1"
   inkscape:export-filename="vault.svg"
   inkscape:export-xdpi="96"
   inkscape:export-ydpi="96"
   xml:space="preserve"
   sodipodi:docname="vault-ink.svg"
   inkscape:version="1.3.2 (091e20e, 2023-11-25, custom)"
   xmlns:inkscape="http://www.inkscape.org/namespaces/inkscape"
   xmlns:sodipodi="http://sodipodi.sourceforge.net/DTD/sodipodi-0.dtd"
   xmlns="http://www.w3.org/2000/svg"
   xmlns:svg="http://www.w3.org/2000/svg"><sodipodi:namedview
     id="namedview1"
     pagecolor="#505050"
     bordercolor="#eeeeee"
     borderopacity="1"
     inkscape:showpageshadow="0"
     inkscape:pageopacity="0"
     inkscape:pagecheckerboard="0"
     inkscape:deskcolor="#505050"
     inkscape:document-units="px"
     showguides="true"
     inkscape:zoom="1.0869005"
     inkscape:cx="114.54591"
     inkscape:cy="285.67473"
     inkscape:window-width="1920"
     inkscape:window-height="1001"
     inkscape:window-x="-9"
     inkscape:window-y="-9"
     inkscape:window-maximized="1"
     inkscape:current-layer="layer1" /><defs
     id="defs1" /><g
     inkscape:label="Layer 1"
     inkscape:groupmode="layer"
     id="layer1"
     transform="translate(-55.945496,-106.69377)"><rect
       style="fill:#ffffff"
       id="rect1"
       width="510.62634"
       height="510.62634"
       x="0"
       y="-0.92004746" /><path
       style="display:inline;fill:none;stroke:#000000;stroke-width:5;stroke-dasharray:none"
       d="M 23.965307,480.47695 19.1907,475.70235 V 278.39017 c 0,-185.040371 0.211718,-197.570003 3.404126,-201.457578 l 3.404126,-4.145387 h 228.562688 228.5627 l 3.40412,4.145387 c 3.1924,3.887575 3.40413,16.417207 3.40413,201.457578 v 197.31218 l -4.77463,4.7746 -4.77462,4.77463 H 254.56164 28.739932 Z"
       id="path1" /><path
       style="display:inline;fill:none;stroke:#000000;stroke-width:3;stroke-dasharray:none"
       d="M 459.78176,278.08624 V 99.12651 H 254.56164 49.341524 l -0.559308,17.99325 c -0.429036,13.80275 -1.189478,17.99323 -3.265178,17.99323 -1.488245,0 -4.08143,1.37553 -5.762659,3.05677 -2.46161,2.46162 -3.056749,7.92217 -3.056749,28.0465 0,13.74437 0.557051,26.44143 1.237895,28.21569 0.680845,1.77425 3.306884,4.01255 5.835644,4.97396 l 4.597747,1.74807 v 76.93226 76.93226 l -4.597747,1.74806 c -6.484256,2.46532 -7.073539,5.17152 -7.073539,32.4839 0,25.51131 1.554032,31.80904 7.849291,31.80904 3.510722,0 3.821995,1.39938 3.821995,17.18273 0,9.4505 0.587553,17.77029 1.305687,18.48842 0.718115,0.71812 93.285997,1.08284 205.706427,0.81049 l 204.40073,-0.49517 z"
       id="path20" /><path
       style="display:inline;fill:none;stroke:#000000;stroke-width:3;stroke-linecap:butt;stroke-linejoin:miter;stroke-dasharray:none;paint-order:normal"
       d="m 56.149774,435.64861 c 0,-11.41653 0.610526,-14.58911 2.807505,-14.58911 6.684444,0 8.86378,-7.89146 8.86378,-32.09603 0,-24.20458 -2.179336,-32.09604 -8.86378,-32.09604 -2.400332,0 -2.807505,-11.4259 -2.807505,-78.78119 0,-67.35527 0.407173,-78.78118 2.807505,-78.78118 6.684444,0 8.86378,-7.89147 8.86378,-32.09603 0,-24.20458 -2.179336,-32.09604 -8.86378,-32.09604 -2.196979,0 -2.807505,-3.17257 -2.807505,-14.58911 V 105.93476 H 254.56164 452.97351 V 278.08624 450.23772 H 254.56164 56.149774 Z"
       id="path21" /><path
       style="fill:#666666;stroke-width:1.94522"
       d="m 241.76934,314.14008 c -27.45647,-13.95459 -17.79621,-54.50111 12.99094,-54.5261 22.18406,-0.0176 36.63585,25.12708 24.60285,42.80723 -9.82068,14.42956 -23.72955,18.76529 -37.59379,11.71887 z"
       id="path30" /><path
       id="path23"
       style="display:inline;fill:#666666;stroke-width:1.94522"
       d="m 165.08179,378.26479 c -7.46195,-7.46192 -5.3153,-10.96186 26.10716,-42.56602 l 29.9976,-30.17106 7.84463,7.84464 7.8446,7.8446 -30.68493,30.46913 c -16.87672,16.75802 -32.15502,30.46914 -33.95179,30.46914 -1.79677,0 -5.01754,-1.7507 -7.15727,-3.89043 z m 137.85064,-26.57871 -30.68493,-30.46913 7.84461,-7.8446 7.84461,-7.84464 29.99761,30.17106 c 20.35041,20.46809 29.99761,31.53858 29.99761,34.42332 0,5.03773 -6.42256,12.03313 -11.04772,12.03313 -1.79679,0 -17.07508,-13.71112 -33.95179,-30.46914 z m -111.5,-111.5016 C 172.3956,221.0128 161.19136,208.2702 161.19136,205.79122 c 0,-2.16588 1.60076,-5.38666 3.55728,-7.15727 7.59348,-6.87202 11.49746,-4.44288 42.66964,26.55012 l 29.94154,29.76939 -7.84314,7.84314 -7.84314,7.84315 z m 87.76174,22.54846 -7.46352,-7.74686 29.95794,-29.78572 c 22.81229,-22.68113 31.13228,-29.78572 34.88133,-29.78572 6.56103,0 12.15536,6.32508 10.68365,12.07921 -0.6267,2.45031 -14.51716,17.62454 -30.86767,33.72052 l -29.72822,29.2654 z" /><path
       style="display:inline;fill:none;stroke:#000000;stroke-width:5;stroke-dasharray:none"
       d="m 189.53813,377.95922 10.60697,-10.03163 10.18764,5.10701 c 28.76509,14.41979 59.6927,14.41979 88.45779,0 l 10.18763,-5.10701 10.60698,10.03163 c 8.73623,8.26237 11.84387,10.03165 17.62009,10.03165 9.96328,0 16.56235,-6.98661 16.56235,-17.53497 0,-6.9169 -1.30424,-9.36476 -9.74483,-18.2894 l -9.74479,-10.30371 4.78292,-8.55759 c 14.43914,-25.83443 14.35308,-61.14155 -0.21913,-89.91821 l -4.76588,-9.41147 9.84584,-10.41054 c 8.35548,-8.83468 9.84587,-11.55463 9.84587,-17.96876 0,-5.33088 -1.28978,-8.76213 -4.37674,-11.64354 -9.9405,-9.2786 -19.53912,-7.24347 -33.41145,7.08405 l -7.63737,7.88797 -5.97914,-3.67172 c -25.09681,-15.41168 -67.97396,-15.87553 -93.69806,-1.01364 l -7.96515,4.60181 -7.59656,-7.8462 c -13.82959,-14.284 -23.43965,-16.31203 -33.37066,-7.04227 -3.08697,2.88141 -4.37674,6.31266 -4.37674,11.64354 0,6.41413 1.49036,9.13408 9.84584,17.96876 l 9.84585,10.41054 -4.76589,9.41147 c -14.5722,28.77666 -14.65826,64.08378 -0.2191,89.91821 l 4.78291,8.55759 -9.74481,10.30371 c -8.44057,8.92464 -9.7448,11.3725 -9.7448,18.2894 0,10.54836 6.59906,17.53497 16.56234,17.53497 5.7762,0 8.88385,-1.76928 17.62008,-10.03165 z"
       id="path22" /><path
       style="fill:#000000;stroke-width:1.94522"
       d="m 43.75339,190.49517 c -0.67108,-1.74877 -1.220116,-12.62961 -1.220116,-24.17966 0,-23.13011 1.330273,-26.13761 11.067336,-25.02114 l 5.466989,0.62687 v 25.28779 25.28778 l -7.047049,0.58897 c -5.105273,0.42668 -7.383236,-0.28715 -8.26716,-2.59061 z"
       id="path37" /><path
       style="fill:#000000;stroke-width:1.94522"
       d="m 43.75339,412.2496 c -1.814555,-4.72864 -1.419113,-44.27567 0.47255,-47.2593 0.982159,-1.54913 4.265526,-2.32448 8.237381,-1.94523 l 6.604278,0.63062 v 25.28778 25.28779 l -7.047049,0.58897 c -5.105273,0.42668 -7.383236,-0.28715 -8.26716,-2.59063 z"
       id="path36" /><path
       style="fill:#000000;stroke-width:1.94522"
       d="m 211.93752,219.90584 -6.0508,-6.24286 7.47238,-4.1997 c 10.21032,-5.73851 28.13697,-10.15822 41.20254,-10.15822 13.06557,0 30.99221,4.41971 41.20253,10.15822 l 7.47239,4.1997 -6.0508,6.24286 -6.0508,6.24283 -9.0469,-4.13453 c -7.20087,-3.29088 -12.81764,-4.13451 -27.52642,-4.13451 -14.70879,0 -20.32557,0.84363 -27.52643,4.13451 l -9.04691,4.13453 z"
       id="path35" /><path
       style="fill:#000000;stroke-width:1.94522"
       d="m 233.88504,241.84815 -10.83323,-10.95031 9.40115,-3.59035 c 12.55122,-4.79335 33.78634,-4.61135 45.06328,0.38627 l 8.36551,3.70734 -10.61139,10.4489 c -9.90884,9.75711 -11.27148,10.46544 -20.58173,10.69868 -9.65311,0.24183 -10.31505,-0.0986 -20.80359,-10.70053 z"
       id="path34" /><path
       style="fill:#000000;stroke-width:1.94522"
       d="m 300.22411,308.18626 c -8.91523,-9.05136 -9.65145,-10.53098 -9.9206,-19.93845 -0.27873,-9.74056 0.1206,-10.58468 9.63654,-20.37394 5.46001,-5.6168 10.54336,-10.21237 11.29633,-10.21237 3.79286,0 7.95317,20.50672 7.05346,34.76754 -0.85911,13.61758 -4.22675,25.5341 -7.21603,25.5341 -0.67089,0 -5.55325,-4.39961 -10.8497,-9.77688 z"
       id="path31" /><path
       style="fill:#000000;stroke-width:1.94522"
       d="m 193.49858,310.14292 c -4.02797,-10.06691 -4.04206,-31.60188 -0.0284,-43.38143 1.70537,-5.005 3.70481,-9.09999 4.44319,-9.09999 0.73836,0 5.80978,4.59557 11.26979,10.21237 9.51601,9.78926 9.91526,10.63338 9.63655,20.37394 -0.26916,9.40747 -1.00539,10.88709 -9.92061,19.93845 -5.29643,5.37727 -10.22427,9.77688 -10.9507,9.77688 -0.72646,0 -2.7289,-3.51911 -4.44988,-7.82022 z"
       id="path29" /><path
       style="fill:#000000;stroke-width:1.94522"
       d="m 173.81778,325.2577 c -6.8288,-14.94837 -9.72005,-35.1914 -7.12803,-49.90656 2.07391,-11.7738 11.2945,-35.19657 13.85545,-35.19657 0.7236,0 3.59971,2.40719 6.39136,5.34933 l 5.07573,5.34935 -4.93043,14.58911 c -5.91401,17.49959 -5.53948,34.4982 1.09033,49.48598 l 4.22283,9.5464 -5.26709,5.49766 c -2.8969,3.02373 -6.02709,5.49767 -6.95599,5.49767 -0.9289,0 -3.78827,-4.59557 -6.35416,-10.21237 z"
       id="path27" /><path
       style="fill:#000000;stroke-width:1.94522"
       d="m 321.99535,329.9724 -5.26711,-5.49766 4.04892,-9.15322 c 6.668,-15.07416 7.11533,-32.6158 1.27198,-49.87916 l -4.93815,-14.58911 5.07573,-5.34935 c 2.79165,-2.94214 5.66775,-5.34933 6.39135,-5.34933 2.56095,0 11.78154,23.42277 13.85545,35.19657 1.54832,8.78993 1.50091,15.60307 -0.17974,25.81766 -2.30254,13.99474 -10.17767,34.30127 -13.30251,34.30127 -0.92889,0 -4.0591,-2.47394 -6.95598,-5.49767 z"
       id="path28" /><path
       style="display:inline;fill:#000000;stroke-width:1.94522"
       d="m 235.87594,350.33347 c -13.64806,-4.47057 -13.68699,-4.72262 -2.48212,-16.06844 10.04131,-10.16762 10.64531,-10.46625 21.16782,-10.46625 10.54501,0 11.10969,0.28161 21.3441,10.64476 l 10.51255,10.64477 -7.66117,3.25175 c -10.0976,4.28587 -32.67805,5.33557 -42.88118,1.99341 z"
       id="path26" /><path
       style="display:inline;fill:#000000;stroke-width:1.94522"
       d="m 224.7786,371.70463 c -7.2868,-2.48297 -14.52055,-5.78635 -16.07503,-7.34082 -2.47162,-2.47162 -2.11168,-3.51099 2.86806,-8.28189 l 5.69439,-5.45557 11.35325,4.41083 c 8.19302,3.18305 15.41423,4.41084 25.94237,4.41084 10.52815,0 17.74934,-1.22779 25.94236,-4.41084 l 11.35323,-4.41083 5.7815,5.53902 5.78149,5.53899 -4.19688,3.39842 c -13.86728,11.22904 -51.15984,14.53619 -74.44474,6.60185 z"
       id="path25" /><path
       style="fill:#000000;stroke:#000000;stroke-width:3.90343;stroke-linecap:butt;stroke-linejoin:miter;stroke-dasharray:none;paint-order:normal"
       d="m 26.233755,478.39038 -3.528841,-3.68332 0.357835,-196.3675 C 23.348947,121.28435 23.755357,81.385953 25.092793,79.044473 L 26.765002,76.1169 H 254.26003 c 209.97564,0 227.63255,0.165608 229.28078,2.150486 2.56944,3.094246 3.45118,62.851974 3.6075,244.486264 l 0.12996,151.00271 -4.29066,4.15866 -4.29065,4.15868 H 254.22977 29.762596 Z M 413.55071,459.0925 462.55654,458.23072 V 277.58297 96.935197 H 255.21507 47.87359 l -0.841496,9.954893 c -0.462824,5.47519 -0.850463,12.9405 -0.861421,16.58958 -0.02159,7.19024 -0.748474,8.9908 -4.132979,10.23781 -1.210651,0.44606 -3.259953,2.42629 -4.554002,4.40051 -2.061649,3.14528 -2.352815,6.6561 -2.352815,28.3698 0,13.62917 0.454509,26.40728 1.010019,28.3958 0.647705,2.31854 2.631375,4.38866 5.52986,5.77085 l 4.519841,2.15536 v 75.09683 75.09681 l -4.48033,2.64346 c -6.56806,3.87525 -7.626767,9.37786 -6.925919,35.99732 0.328661,12.48314 1.245026,23.72955 2.10345,25.81535 0.879209,2.1363 3.162958,4.31566 5.411939,5.16455 l 3.89086,1.46864 v 13.2141 c 0,7.26776 0.361268,15.02044 0.802816,17.22819 0.802721,4.01359 0.804009,4.01413 10.734435,4.4548 19.498571,0.86525 307.727852,0.94839 355.822862,0.10265 z"
       id="path39" /><path
       style="fill:#000000;stroke:#000000;stroke-width:3.90343;stroke-linecap:butt;stroke-linejoin:miter;stroke-dasharray:none;paint-order:normal"
       d="m 57.918656,438.81067 c 0.02194,-11.6491 0.863671,-14.97987 4.040419,-15.98812 5.330901,-1.69196 6.878142,-7.82023 7.412635,-29.35974 0.62203,-25.06722 -0.922008,-34.29188 -6.251829,-37.35078 l -3.651037,-2.0954 -0.964968,-26.72623 c -0.530733,-14.69942 -0.653159,-48.51712 -0.27206,-75.15044 l 0.692909,-48.4242 4.562214,-4.30272 c 5.704326,-5.37988 6.603296,-11.19227 5.939618,-38.40324 -0.391799,-16.06384 -0.875252,-19.92427 -2.877943,-22.98077 -1.323871,-2.02048 -3.455619,-3.94781 -4.737217,-4.28296 -2.792995,-0.73038 -3.910508,-5.533 -3.910508,-16.80579 v -8.29479 H 254.37357 450.84625 V 278.44473 448.24396 H 254.37357 57.900889 Z M 179.36722,389.76496 c 1.77741,-0.67576 7.1442,-4.77436 11.92619,-9.108 4.78199,-4.33363 9.24047,-7.87932 9.90773,-7.87932 0.66725,0 3.97493,1.38241 7.35037,3.07204 28.56981,14.30092 60.19621,14.60809 89.60683,0.87028 l 10.60561,-4.95392 5.65868,5.87215 c 8.38793,8.70434 16.22658,13.35583 22.50301,13.35344 7.90619,-0.003 13.89668,-3.58734 17.3107,-10.35755 5.50217,-10.91114 3.51677,-18.46926 -8.16645,-31.08853 l -7.54554,-8.15009 3.9794,-8.05478 c 5.60286,-11.3409 7.74258,-18.32233 9.47658,-30.92008 2.53907,-18.44665 -0.7564,-39.54879 -9.02366,-57.78181 -2.20482,-4.86265 -4.00877,-9.31232 -4.00877,-9.88818 0,-0.57585 3.22291,-4.52813 7.16202,-8.78284 7.53173,-8.13517 11.05399,-14.69442 11.05399,-20.58506 0,-6.07603 -4.77325,-14.04357 -10.26113,-17.12793 -9.84938,-5.53567 -18.7657,-3.02433 -31.90814,8.98711 l -7.38209,6.74681 -10.0299,-4.66444 c -14.63761,-6.80727 -28.33256,-9.18152 -48.31814,-8.37678 -17.48137,0.7039 -31.5112,4.1785 -42.38268,10.4964 l -5.20457,3.02461 -8.34645,-7.73198 c -4.59054,-4.25259 -10.2805,-8.54008 -12.64436,-9.52777 -6.43384,-2.68823 -13.74439,-2.24594 -18.70731,1.13179 -7.17097,4.88053 -9.28065,8.77017 -9.28065,17.11091 0,8.56314 1.3032,11.0265 11.50105,21.73989 l 6.94687,7.29806 -4.55633,9.6168 c -6.99403,14.76193 -9.80228,27.6609 -9.80228,45.02426 0,17.89557 2.28819,28.84988 8.81914,42.22018 l 4.84287,9.91443 -6.90739,7.62414 c -9.0849,10.02761 -10.84393,13.60817 -10.84393,22.07316 0,8.47638 3.41939,14.83098 9.62728,17.89135 4.75942,2.3463 12.21798,2.74514 17.04145,0.91125 z"
       id="path40" /></g></svg>
