<?xml version="1.0" encoding="UTF-8" standalone="no"?>
<!-- Created with Inkscape (http://www.inkscape.org/) -->

<svg
   width="512"
   height="512"
   viewBox="0 0 512 512"
   version="1.1"
   id="svg1"
   inkscape:export-filename="vault.svg"
   inkscape:export-xdpi="96"
   inkscape:export-ydpi="96"
   xml:space="preserve"
   sodipodi:docname="vault-ink.svg"
   inkscape:version="1.3.2 (091e20e, 2023-11-25, custom)"
   xmlns:inkscape="http://www.inkscape.org/namespaces/inkscape"
   xmlns:sodipodi="http://sodipodi.sourceforge.net/DTD/sodipodi-0.dtd"
   xmlns="http://www.w3.org/2000/svg"
   xmlns:svg="http://www.w3.org/2000/svg"><sodipodi:namedview
     id="namedview1"
     pagecolor="#505050"
     bordercolor="#eeeeee"
     borderopacity="1"
     inkscape:showpageshadow="0"
     inkscape:pageopacity="0"
     inkscape:pagecheckerboard="0"
     inkscape:deskcolor="#505050"
     inkscape:document-units="px"
     showguides="true"
     inkscape:zoom="1.0869005"
     inkscape:cx="114.54591"
     inkscape:cy="285.67473"
     inkscape:window-width="1920"
     inkscape:window-height="1001"
     inkscape:window-x="-9"
     inkscape:window-y="-9"
     inkscape:window-maximized="1"
     inkscape:current-layer="layer1" /><defs
     id="defs1" /><g
     inkscape:label="Layer 1"
     inkscape:groupmode="layer"
     id="layer1"><rect
       style="fill:#ffffff;stroke:none;stroke-width:3.01617;stroke-linecap:butt;stroke-linejoin:miter;stroke-dasharray:none;paint-order:normal"
       id="rect40"
       width="511.53024"
       height="512.45026"
       x="0.92812991"
       y="-1.8320124" /><path
       d="m 51.421651,12.330373 c -0.872793,-0.05862 -2.221062,0.254022 -3.145963,1.086106 -0.924901,0.832085 -1.231029,1.779782 -1.356412,2.442518 -0.247509,1.322217 -0.06026,2.001236 0.110729,2.712823 0.338696,1.432944 0.913502,2.909853 1.789551,4.885036 1.745587,3.943853 4.671723,9.584442 8.845171,17.148104 27.188482,49.333984 46.704203,85.08104 59.273403,108.45593 6.28378,11.67687 10.85617,20.2436 13.7302,25.88256 0.12863,0.25564 0.15144,0.31426 0.27193,0.54223 -0.80602,-0.24424 -1.26359,-0.36475 -2.17222,-0.64157 a 1550.1473,1550.1473 0 0 1 -23.17785,-7.50016 1583.149,1583.149 0 0 0 -23.340704,-7.48549 581.56678,581.56678 0 0 0 -7.487132,-2.28295 c -0.934671,-0.2703 -1.67231,-0.49013 -2.282941,-0.64157 a 14.124267,14.124267 0 0 0 -0.863023,-0.22145 c -0.271934,-0.0505 -0.179117,-0.18726 -1.35804,-0.11073 -0.840225,0.0602 -2.874029,1.51763 -2.874029,1.51763 0,0.008 -0.840226,1.75535 -0.874422,2.28131 -0.05048,1.05354 0.127006,1.32385 0.221456,1.57949 0.177489,0.50641 0.270304,0.67576 0.381033,0.86303 0.211684,0.38265 0.433139,0.679 0.703444,1.08609 0.543868,0.82232 1.322217,1.90843 2.331792,3.31695 a 888.9837,888.9837 0 0 0 8.685593,11.71919 c 7.343837,9.79613 17.496568,23.15345 28.554673,37.56267 22.10966,28.81846 47.71377,61.7664 61.17366,78.43252 37.30865,46.18638 80.59332,115.8242 80.59332,115.8242 2.64769,4.504 9.42324,0.68715 6.95467,-3.8999 0,0 -0.1612,-0.32404 -0.16935,-0.33217 -0.15144,-0.31265 -6.44662,-12.7467 -13.12934,-25.9428 -6.76741,-13.35731 -13.6781,-26.91817 -14.7626,-28.98943 v -0.0489 c -7.55877,-13.89142 -25.68225,-49.5131 -41.74424,-81.6892 a 5218.1628,5218.1628 0 0 1 -21.00892,-42.61055 1147.3223,1147.3223 0 0 1 -5.36702,-11.12648 c 5.69106,2.16245 18.97999,6.572 31.53127,10.58424 a 1031.56,1031.56 0 0 0 17.04879,5.31656 c 2.31386,0.69693 4.28091,1.2815 5.74804,1.68859 0.73928,0.19377 1.33199,0.31265 1.84981,0.43313 0.25401,0.0586 0.49989,0.11722 0.75392,0.15959 0.24425,0.0439 0.43966,0.15306 1.19684,0.11069 h 0.0586 a 4.3835055,4.3835055 0 0 0 2.54347,-1.1952 c 0.76533,-0.76532 1.05355,-1.63811 1.14637,-2.22106 0.17912,-1.17891 0,-1.57949 -0.11069,-1.90028 -0.20355,-0.66273 -0.37289,-0.88419 -0.54224,-1.19684 a 27.138003,27.138003 0 0 0 -1.30756,-2.12009 c -1.09426,-1.62022 -2.68677,-3.82337 -4.72384,-6.56387 -4.06271,-5.47939 -9.85474,-12.94209 -16.38277,-21.16849 -13.00397,-16.37622 -38.86209,-49.39255 -57.435,-73.27549 C 122.71386,100.87979 102.39375,75.098199 95.978065,67.262601 89.782209,59.671256 79.368941,45.923137 73.023279,36.967237 67.612288,29.325413 63.319969,23.549672 60.105616,19.599306 58.493555,17.624123 57.177852,16.130931 56.034753,14.986204 A 15.894279,15.894279 0 0 0 54.29568,13.46533 C 53.693193,13.025676 53.168865,12.4411 51.420023,12.330373 Z M 224.3568,106.88513 c -12.13605,-0.0521 -22.58515,4.37537 -30.72688,9.81892 a 10.429552,10.429552 0 1 0 11.62152,17.32071 c 5.67315,-3.80056 11.90645,-6.32775 18.99627,-6.29519 6.37659,0.026 13.84745,2.06311 22.95803,8.46577 v 68.8725 a 10.42223,10.42223 0 1 0 20.84446,0 v -70.06771 c 8.12543,-5.41099 14.93517,-7.25265 20.89817,-7.2787 7.0996,-0.0244 13.49247,2.50277 19.2096,6.3017 7.71836,5.12278 13.47618,12.26307 16.44466,16.39581 l -29.57402,68.822 a 10.408383,10.408383 0 0 0 5.37843,13.89956 10.419782,10.419782 0 0 0 13.78068,-5.70734 l 29.95504,-69.68667 c 15.55396,-2.18849 26.26523,-0.53736 33.60254,2.6021 8.28502,3.53676 12.90627,8.92985 16.07014,15.24782 3.87546,7.7607 4.84432,16.61563 4.98762,22.31483 l -52.42947,52.42947 c -10.21297,9.84498 4.96157,24.94952 14.76421,14.71373 l 49.06204,-49.07019 c 16.50655,3.68822 26.00468,9.52583 31.54106,15.51814 5.87832,6.38799 7.87957,13.30846 8.14172,20.68813 0.34684,10.07294 -3.14595,20.07424 -5.42727,25.4494 l -70.39988,42.0162 a 10.427923,10.427923 0 0 0 -3.68169,14.33921 10.426295,10.426295 0 0 0 14.37503,3.57259 l 65.77863,-39.30175 c 20.63441,12.8216 21.73842,25.69692 19.7095,37.78413 -1.9589,11.65243 -8.18243,20.41294 -9.39555,22.09013 l -94.49451,54.54142 a 10.423038,10.423038 0 0 0 -5.20908,9.01615 v 52.31874 l -52.97983,0.54223 22.09337,-17.80106 a 10.410011,10.410011 0 0 0 2.07779,-15.01172 10.418154,10.418154 0 0 0 -15.10454,-1.21148 l -60.46047,48.67938 -60.46859,-48.67938 a 10.42141,10.42141 0 0 0 -6.73483,-2.39204 c -9.85476,0.0847 -14.09496,12.53336 -6.34403,18.61524 l 22.08361,17.80921 -52.97007,-0.54223 V 421.698 a 10.434437,10.434437 0 0 0 -5.20907,-9.008 L 52.566379,358.08181 C 51.302782,356.3346 45.172061,347.64086 43.231074,336.0503 41.270546,324.39461 42.338741,311.99638 60.921417,299.62259 l 63.454993,37.94533 c 4.9518,3.01081 11.39841,1.40689 14.37503,-3.57259 a 10.429552,10.429552 0 0 0 -3.68169,-14.33921 L 70.68986,281.2288 c -0.713214,-1.36619 -7.599488,-15.01985 -7.106098,-29.03828 0.262163,-7.37967 2.255258,-14.30014 8.141727,-20.68649 6.580142,-6.89605 1.201718,-18.27656 -8.304562,-17.57963 a 10.43118,10.43118 0 0 0 -7.005141,3.46676 c -9.608865,10.42304 -13.280784,22.98409 -13.679729,34.09265 -0.439653,12.63922 2.763302,23.45958 5.699209,30.87994 -0.11073,0.35661 -0.195402,0.72136 -0.271933,1.08611 -22.863597,16.61401 -28.316925,38.95165 -25.451039,56.01671 3.198072,19.07443 14.274075,32.83883 14.274075,32.83883 a 10.372559,10.372559 0 0 0 2.986387,2.55326 l 91.516264,52.86097 v 56.61756 a 10.416524,10.416524 0 0 0 10.31393,10.4149 l 87.00575,0.87604 c 0.79626,0.0147 1.6023,-0.0521 2.3839,-0.22146 l 18.99627,15.30808 a 10.424666,10.424666 0 0 0 13.08538,0 l 18.99791,-15.30808 c 0.77998,0.16936 1.58763,0.23612 2.3839,0.22146 l 87.01388,-0.87604 a 10.42141,10.42141 0 0 0 10.31394,-10.4149 v -56.61593 l 91.56838,-52.86099 a 10.548421,10.548421 0 0 0 2.98639,-2.55323 c 0,0 11.06623,-13.7644 14.27243,-32.83884 2.88217,-17.19859 -2.70468,-39.79187 -26.05352,-56.44822 2.99451,-7.43828 6.42871,-18.53057 5.97114,-31.53454 -0.39081,-11.10857 -4.07086,-23.66963 -13.68136,-34.09267 -8.2264,-8.91193 -20.64252,-15.85193 -37.45194,-20.35431 -0.13354,-7.78512 -1.36455,-19.17539 -7.16635,-30.76922 -4.88504,-9.77821 -13.40129,-19.48802 -26.48503,-25.07651 -11.65243,-4.98762 -26.67229,-6.49709 -45.21264,-3.85918 -3.77288,-5.4289 -9.91499,-13.31661 -21.00727,-20.67673 -8.20035,-5.44517 -18.69179,-9.82217 -30.82783,-9.77006 -10.16903,0.0407 -21.15222,3.57747 -32.18426,10.79592 -11.17045,-7.20868 -22.17805,-10.75521 -32.35684,-10.79592 z"
       fill="#b50000"
       id="path1"
       style="stroke-width:1.62835" /></g></svg>
